<svg width="51" height="50" viewBox="0 0 51 50" fill="none" xmlns="http://www.w3.org/2000/svg">
<path d="M13.9295 45.4034C15.577 48.8706 19.4534 50.075 22.9706 49.9239V43.4486C22.9706 42.6619 23.2106 41.4036 22.8968 40.6752C22.6476 40.0966 21.7914 39.7637 21.2601 39.5122C19.5295 38.6931 17.6483 38.4286 15.7622 38.6998C14.3571 38.9018 13.0301 39.4183 11.8525 40.2134C11.4617 40.4773 10.902 41.1853 10.3864 40.9274C10.1038 40.786 9.87352 40.4913 9.65336 40.272C9.41302 40.0326 9.15106 39.8006 8.93463 39.539C7.89561 38.2829 11.0923 37.6932 11.3201 36.7063C11.9017 34.1861 8.17106 32.3359 6.23243 32.3306V29.154C10.1143 29.1861 13.5452 31.9777 14.4182 35.7515C17.5552 35.353 20.0388 35.6321 22.9706 36.8511V25.4887C20.9913 25.49 19.208 26.4932 18.3047 28.2988C18.031 28.8457 18.0318 30.1575 17.5418 30.4945C16.9321 30.914 15.3872 30.6201 14.6626 30.6201C14.6627 29.5432 15.4903 28.0381 15.2981 27.077C15.1787 26.4799 14.5068 25.8693 14.1743 25.3665C13.5246 24.384 13.0032 23.2409 12.8299 22.0678C10.307 22.5161 8.56869 23.2922 5.98808 22.3042C5.38473 22.0732 3.42916 21.242 3.42916 20.4685C3.42916 20.0205 4.11379 19.5426 4.39979 19.2577C4.621 19.0374 4.85034 18.7462 5.13284 18.6019C5.70406 18.3101 6.86272 19.3389 7.45419 19.5327C8.76889 19.9634 10.2713 19.7985 11.486 19.1618C13.2201 18.2529 13.1813 15.8101 14.2173 14.2485C14.4961 13.8284 15.1393 12.6438 15.7622 12.8077C16.5218 13.0074 17.192 14.1592 17.8392 14.615V14.7372C15.7665 16.3271 15.3087 19.7054 16.0489 22.0678C16.2236 22.6251 16.6839 24.1745 17.3731 24.277C17.8965 24.3549 18.7267 23.5048 19.1831 23.2629C20.3629 22.6376 21.6358 22.3158 22.9706 22.3121V15.5924C22.9706 14.2492 23.1035 12.8275 22.5628 11.5606C22.0313 10.3152 21.1573 9.3499 19.9162 8.78885C19.4013 8.5561 18.1507 8.56282 17.8426 8.10085C17.4249 7.47462 17.717 5.94478 17.717 5.20746C19.7702 5.20884 21.2344 6.07352 22.9706 7.04011V0.076064C19.8208 -0.0591954 16.9568 0.757985 14.8214 3.25264C14.1458 4.042 13.7788 5.48036 13.0232 6.11115C12.6059 6.45951 11.8681 6.27457 11.3638 6.36371C10.4936 6.51753 9.64298 6.87055 8.9203 7.38033C7.83006 8.14941 6.96763 9.29741 6.5883 10.5832C6.41935 11.1559 6.54564 12.1324 6.22903 12.609C5.76965 13.3005 4.01717 13.6833 3.3002 14.2192C1.27845 15.7302 0.252292 18.0216 0.0221835 20.4795C-0.101174 21.7971 0.303936 23.3398 0.889672 24.5113C1.14976 25.0315 2.0271 25.8803 1.97116 26.4661C1.91946 27.0076 1.19194 27.5945 0.913429 28.0544C0.324388 29.0272 -0.052307 30.3316 0.0128507 31.4753C0.114585 33.2611 0.950783 34.9349 2.32279 36.0783C2.81249 36.4863 3.81257 36.7536 4.15204 37.2687C4.39859 37.6428 4.19692 38.1528 4.19692 38.5616C4.19692 39.4176 4.37413 40.3271 4.67214 41.1273C6.08038 44.9085 10.1987 46.5886 13.9295 45.4034ZM26.1471 1.54218V4.59658C27.0831 4.59658 28.4417 4.34512 29.3237 4.6703C30.7323 5.18966 31.1125 6.3812 32.8668 6.16225C35.8767 5.7866 36.3283 1.40434 33.5999 0.256781C31.6107 -0.579865 31.0187 0.842256 29.435 1.46846C28.5499 1.81841 27.0952 1.54218 26.1471 1.54218ZM26.1471 7.77316V10.9497H33.5999C34.4933 10.9497 35.9659 11.2295 36.7765 10.8242C38.5238 9.95052 40.1602 7.56596 41.5413 6.18487C42.0366 5.68964 42.5784 4.94001 43.2518 4.68737C44.132 4.35716 44.5801 5.26609 45.2071 5.68297C46.0495 6.24313 47.1901 6.35198 48.1389 5.99397C50.7754 4.99911 50.6039 0.90041 47.8945 0.136305C46.1366 -0.359468 45.5476 0.650036 44.1943 1.41661C43.3567 1.89109 42.2426 1.20838 41.4192 1.82537C39.8584 2.99482 38.5223 4.6834 37.143 6.0627C36.6302 6.57546 36.0891 7.31932 35.4325 7.64759C34.7016 8.01307 33.4255 7.77316 32.6225 7.77316H26.1471ZM26.1471 14.1263V17.1807C28.3777 17.1807 31.3202 16.6664 33.4759 17.2196C33.9438 17.3396 34.2113 17.785 34.5821 18.0618C35.3934 18.6674 36.4118 18.889 37.3873 18.6101C40.336 17.7671 40.304 13.3003 37.2652 12.6027C36.4085 12.4061 35.4081 12.5663 34.6999 13.0949C34.2498 13.4309 33.9382 13.9892 33.3537 14.0984C31.1108 14.5174 28.4314 14.1263 26.1471 14.1263ZM26.1471 20.3573V23.4117H36.1656C37.2111 23.4117 39.1725 23.0377 40.0752 23.6076C41.2255 24.3338 43.0695 26.1102 43.7541 27.2865C44.0012 27.7111 43.8202 28.3168 43.9028 28.7875C44.097 29.8927 44.9905 30.8239 46.0619 31.1176C48.6792 31.835 51.0304 29.0007 49.662 26.5883C48.688 24.8711 47.404 25.6251 46.0619 24.9055C44.8274 24.2437 44.0361 22.7563 42.8853 21.9456C43.8547 20.9762 44.8788 19.5427 46.0619 18.8475C46.4372 18.627 46.8723 18.7685 47.2836 18.7136C48.3246 18.5747 49.2463 18.0168 49.7271 17.0586C51.1112 14.3004 47.9798 11.4078 45.3288 12.949C43.7255 13.881 44.3743 15.0603 43.8074 16.3958C43.6176 16.8432 43.0994 17.2111 42.7631 17.5473C41.956 18.3541 40.9154 19.8837 39.8309 20.2836C38.7005 20.7004 36.8793 20.3573 35.6769 20.3573H26.1471ZM26.1471 26.5883V29.6427C27.7466 29.6427 29.8509 29.2764 31.3959 29.6815C32.7353 30.0327 33.1337 31.3906 34.8217 31.2098C37.9256 30.8773 38.5331 26.2654 35.5547 25.2155C34.5835 24.8732 33.474 24.9853 32.6229 25.5865C32.2091 25.8788 31.9022 26.4167 31.3959 26.5495C29.8508 26.9545 27.7467 26.5883 26.1471 26.5883ZM26.1471 32.8193V35.8737H33.7221C34.9403 35.8737 36.305 35.7 37.5077 35.8918C38.0964 35.9857 38.3982 36.5669 38.8539 36.8953C39.817 37.5894 41.246 37.6795 42.2744 37.068C44.8158 35.5568 43.8805 31.7069 41.0526 31.2852C39.3919 31.0376 38.855 32.591 37.5094 32.8012C33.912 33.3632 29.7929 32.8193 26.1471 32.8193ZM26.1471 39.0503V42.2268H32.6225C33.4255 42.2268 34.7016 41.9869 35.4325 42.3524C36.0891 42.6807 36.6302 43.4245 37.143 43.9373C38.5223 45.3166 39.8584 47.0052 41.4192 48.1746C42.2426 48.7916 43.3567 48.1089 44.1943 48.5834C45.5476 49.35 46.1366 50.3595 47.8945 49.8637C50.6039 49.0996 50.7754 45.0009 48.1389 44.006C47.1901 43.648 46.0495 43.7569 45.2071 44.317C44.5801 44.7339 44.132 45.6428 43.2518 45.3126C42.5784 45.06 42.0366 44.3104 41.5413 43.8151C40.1602 42.434 38.5238 40.0495 36.7765 39.1758C35.9659 38.7705 34.4933 39.0503 33.5999 39.0503H26.1471ZM26.1471 45.4034V48.4578C27.0952 48.4578 28.5499 48.1816 29.435 48.5315C31.0187 49.1577 31.6107 50.5799 33.5999 49.7432C36.3283 48.5957 35.8767 44.2134 32.8668 43.8378C31.1125 43.6188 30.7323 44.8104 29.3237 45.3297C28.4417 45.6549 27.0831 45.4034 26.1471 45.4034Z" fill="white"/>
</svg>
