<svg width="70" height="35" viewBox="0 0 70 35" fill="none" xmlns="http://www.w3.org/2000/svg">
<path d="M52.5 35C45.1821 35 38.7552 29.3723 35 23.7504C31.2448 29.3723 24.8179 35 17.5 35C7.85021 35 0 27.1498 0 17.5C0 7.85021 7.85021 0 17.5 0C26.1552 0 31.9142 6.48666 35 11.3094C38.0858 6.48666 43.8448 0 52.5 0C62.1498 0 70 7.85021 70 17.5C70 27.1498 62.1498 35 52.5 35ZM38.1806 17.554C40.5825 22.7704 46.6667 29.1667 52.5 29.1667C58.9327 29.1667 64.1667 23.9327 64.1667 17.5C64.1667 11.0673 58.9327 5.83333 52.5 5.83333C44.6017 5.83333 39.6652 14.5163 38.1806 17.554ZM17.5 5.83333C11.0673 5.83333 5.83333 11.0673 5.83333 17.5C5.83333 23.9327 11.0673 29.1667 17.5 29.1667C23.3581 29.1667 29.4671 22.7179 31.8252 17.554C30.3873 14.6096 25.4406 5.83333 17.5 5.83333ZM23.3333 18.2292V16.7708C23.3333 16.3683 23.0067 16.0417 22.6042 16.0417H12.3958C11.9933 16.0417 11.6667 16.3683 11.6667 16.7708V18.2292C11.6667 18.6317 11.9933 18.9583 12.3958 18.9583H22.6042C23.0067 18.9583 23.3333 18.6317 23.3333 18.2292ZM57.6042 16.0417H53.9583V12.3958C53.9583 11.9933 53.6317 11.6667 53.2292 11.6667H51.7708C51.3683 11.6667 51.0417 11.9933 51.0417 12.3958V16.0417H47.3958C46.9933 16.0417 46.6667 16.3683 46.6667 16.7708V18.2292C46.6667 18.6317 46.9933 18.9583 47.3958 18.9583H51.0417V22.6042C51.0417 23.0067 51.3683 23.3333 51.7708 23.3333H53.2292C53.6317 23.3333 53.9583 23.0067 53.9583 22.6042V18.9583H57.6042C58.0067 18.9583 58.3333 18.6317 58.3333 18.2292V16.7708C58.3333 16.3683 58.0067 16.0417 57.6042 16.0417Z" fill="url(#paint0_linear_243_495)"/>
<defs>
<linearGradient id="paint0_linear_243_495" x1="30.8802" y1="-2.87729" x2="37.73" y2="31.0013" gradientUnits="userSpaceOnUse">
<stop stop-color="white"/>
<stop offset="0.998" stop-color="white"/>
</linearGradient>
</defs>
</svg>
