<svg width="70" height="57" viewBox="0 0 70 57" fill="none" xmlns="http://www.w3.org/2000/svg">
<path d="M27.5372 31.5483C27.7922 26.9981 30.0204 22.9894 33.382 20.1476C36.6785 17.3564 41.1157 15.6504 45.957 15.6504C50.7936 15.6504 55.2308 17.3564 58.5298 20.1476C61.8889 22.9894 64.117 26.9982 64.3745 31.5435C64.6296 36.2188 62.7503 40.5621 59.4538 43.7816C56.0922 47.0565 51.311 49.1114 45.957 49.1114C40.6031 49.1114 35.8123 47.0565 32.4531 43.7816C29.1542 40.5621 27.2797 36.2188 27.5372 31.5483Z" fill="white"/>
<path d="M36.4925 31.9601C36.6234 29.6253 37.7667 27.5684 39.4915 26.1103C41.183 24.6781 43.4597 23.8027 45.9439 23.8027C48.4255 23.8027 50.7023 24.6781 52.395 26.1103C54.1186 27.5684 55.2619 29.6254 55.394 31.9576C55.5249 34.3565 54.5606 36.5851 52.8691 38.237C51.1443 39.9174 48.691 40.9718 45.9439 40.9718C43.1967 40.9718 40.7385 39.9174 39.0149 38.237C37.3222 36.5851 36.3604 34.3565 36.4925 31.9601Z" fill="#265787"/>
<path d="M21.4404 36.6891C21.4565 37.6028 21.7479 39.3782 22.1849 40.7647C23.1035 43.6995 24.6617 46.4144 26.8297 48.8072C29.0546 51.2666 31.7943 53.2421 34.9588 54.6446C38.285 56.1176 41.889 56.8682 45.6325 56.8621C49.3698 56.8571 52.9738 56.0916 56.3 54.6076C59.4644 53.1914 62.2017 51.2074 64.4228 48.7467C66.5897 46.3441 68.1454 43.6242 69.0664 40.6894C69.5294 39.2066 69.822 37.7015 69.9393 36.1916C70.0542 34.7038 70.006 33.2136 69.7949 31.7246C69.3825 28.8232 68.3787 26.1008 66.8329 23.6191C65.4192 21.3387 63.5969 19.3423 61.43 17.662L61.435 17.6583L39.5678 0.868244C39.548 0.853428 39.532 0.837402 39.511 0.823821C38.0763 -0.277486 35.6638 -0.273776 34.0859 0.83C32.4907 1.94612 32.308 3.7919 33.7278 4.95617L33.7216 4.96235L42.8421 12.3789L15.0436 12.4085H15.0066C12.7089 12.411 10.5001 13.9185 10.063 15.8236C9.61359 17.7644 11.1742 19.3744 13.5633 19.383L13.5596 19.3917L27.6496 19.3645L2.50685 38.6634C2.47475 38.6868 2.44017 38.7115 2.41054 38.7349C0.0387486 40.5511 -0.727961 43.5711 0.765984 45.4823C2.28215 47.4256 5.50586 47.4293 7.90235 45.4934L21.6244 34.263C21.6244 34.263 21.4244 35.7792 21.4404 36.6891ZM56.7012 41.766C53.8738 44.6464 49.9155 46.2799 45.6325 46.2885C41.3432 46.2959 37.3849 44.6773 34.5575 41.8018C33.1759 40.4005 32.161 38.788 31.5351 37.0706C30.9214 35.3829 30.6831 33.5914 30.8412 31.7839C30.9906 30.0171 31.5165 28.3318 32.3561 26.807C33.1809 25.3081 34.3168 23.9537 35.7193 22.808C38.4677 20.5683 41.9668 19.3559 45.6263 19.3509C49.2896 19.346 52.7861 20.5473 55.537 22.7796C56.9371 23.9204 58.0717 25.2699 58.8965 26.7663C59.7398 28.2898 60.262 29.9689 60.4176 31.7406C60.5732 33.5457 60.3349 35.3347 59.7212 37.0237C59.094 38.7461 58.0828 40.3585 56.7012 41.766Z" fill="#9EB5C8"/>
</svg>
