<svg width="65" height="65" viewBox="0 0 65 65" fill="none" xmlns="http://www.w3.org/2000/svg">
<path d="M30.8828 36.1811L39.5273 25.8789L37.7471 24.3851L29.1025 34.6873L30.8828 36.1811Z" fill="#265787"/>
<path d="M39.5273 25.8794L48.1719 15.5771L46.3916 14.0833L37.747 24.3855L39.5273 25.8794Z" fill="#265787"/>
<path d="M39.6418 26.0023L48.4648 15.8525L46.7109 14.3279L37.8878 24.4776L39.6418 26.0023Z" fill="#265787"/>
<path d="M39.7551 26.128L48.7539 16.1338L47.0268 14.5787L38.028 24.573L39.7551 26.128Z" fill="#265787"/>
<path d="M39.8652 26.2556L49.0371 16.4199L47.3374 14.835L38.1655 24.6706L39.8652 26.2556Z" fill="#265787"/>
<path d="M39.9723 26.386L49.3145 16.7119L47.6427 15.0975L38.3005 24.7716L39.9723 26.386Z" fill="#265787"/>
<path d="M40.0783 26.5164L49.5879 17.0068L47.9446 15.3635L38.435 24.8731L40.0783 26.5164Z" fill="#265787"/>
<path d="M40.1814 26.6508L49.8555 17.3086L48.2411 15.6368L38.567 24.979L40.1814 26.6508Z" fill="#265787"/>
<path d="M40.2815 26.7852L50.1172 17.6133L48.5322 15.9136L38.6966 25.0855L40.2815 26.7852Z" fill="#265787"/>
<path d="M40.3808 26.9207L50.375 17.9219L48.8199 16.1948L38.8257 25.1937L40.3808 26.9207Z" fill="#265787"/>
<path d="M40.4772 27.0604L50.627 18.2373L49.1023 16.4834L38.9525 25.3064L40.4772 27.0604Z" fill="#265787"/>
<path d="M40.5728 27.2002L50.875 18.5557L49.3812 16.7754L39.079 25.42L40.5728 27.2002Z" fill="#265787"/>
<path d="M40.6618 27.3414L51.1133 18.8779L49.6507 17.0718L39.1992 25.5353L40.6618 27.3414Z" fill="#265787"/>
<path d="M40.75 27.4848L51.3477 19.2051L49.9169 17.3737L39.3192 25.6535L40.75 27.4848Z" fill="#265787"/>
<path d="M40.8376 27.6297L51.5781 19.5361L50.1795 17.6801L39.439 25.7737L40.8376 27.6297Z" fill="#265787"/>
<path d="M40.9226 27.776L51.8027 19.8711L50.4367 17.9909L39.5566 25.8958L40.9226 27.776Z" fill="#265787"/>
<path d="M41.0011 27.9237L52.0176 20.21L50.6846 18.3063L39.6682 26.02L41.0011 27.9237Z" fill="#265787"/>
<path d="M41.0811 28.0721L52.2305 20.5518L50.9309 18.6251L39.7815 26.1454L41.0811 28.0721Z" fill="#265787"/>
<path d="M41.1566 28.2231L52.4355 20.8984L51.1698 18.9494L39.8909 26.274L41.1566 28.2231Z" fill="#265787"/>
<path d="M41.2297 28.3747L52.6348 21.248L51.4032 19.2772L39.9982 26.4038L41.2297 28.3747Z" fill="#265787"/>
<path d="M41.2985 28.5271L52.8262 21.6006L51.6292 19.6085L40.1015 26.5351L41.2985 28.5271Z" fill="#265787"/>
<path d="M41.3688 28.6823L53.0156 21.958L51.8536 19.9454L40.2068 26.6697L41.3688 28.6823Z" fill="#265787"/>
<path d="M41.4329 28.8374L53.1953 22.3174L52.0686 20.2848L40.3062 26.8048L41.4329 28.8374Z" fill="#265787"/>
<path d="M41.4967 28.9934L53.3711 22.6797L52.28 20.6277L40.4056 26.9414L41.4967 28.9934Z" fill="#265787"/>
<path d="M41.5543 29.1514L53.5371 23.0459L52.482 20.9752L40.4993 27.0807L41.5543 29.1514Z" fill="#265787"/>
<path d="M41.6137 29.3105L53.7012 23.415L52.6824 21.3262L40.5949 27.2217L41.6137 29.3105Z" fill="#265787"/>
<path d="M41.6669 29.4697L53.8555 23.7861L52.8733 21.6799L40.6848 27.3635L41.6669 29.4697Z" fill="#265787"/>
<path d="M41.718 29.6302L54.0039 24.1602L53.0587 22.0371L40.7728 27.5071L41.718 29.6302Z" fill="#265787"/>
<path d="M41.767 29.7909L54.1465 24.5361L53.2384 22.3969L40.8589 27.6517L41.767 29.7909Z" fill="#265787"/>
<path d="M41.8119 29.9539L54.2812 24.916L53.4107 22.7612L40.9414 27.7992L41.8119 29.9539Z" fill="#265787"/>
<path d="M41.8568 30.1164L54.4121 25.2969L53.5793 23.1272L41.0239 27.9468L41.8568 30.1164Z" fill="#265787"/>
<path d="M41.8957 30.2803L54.5332 25.6807L53.7383 23.4968L41.1008 28.0965L41.8957 30.2803Z" fill="#265787"/>
<path d="M41.9326 30.4448L54.6484 26.0664L53.8918 23.869L41.1759 28.2475L41.9326 30.4448Z" fill="#265787"/>
<path d="M41.9694 30.609L54.7598 26.4531L54.0416 24.2429L41.2512 28.3987L41.9694 30.609Z" fill="#265787"/>
<path d="M42.0004 30.7757L54.8613 26.8438L54.1819 24.6213L41.3209 28.5533L42.0004 30.7757Z" fill="#265787"/>
<path d="M42.0294 30.9413L54.957 27.2344L54.3165 25.0004L41.3888 28.7073L42.0294 30.9413Z" fill="#265787"/>
<path d="M42.0546 31.1067L55.0449 27.626L54.4434 25.3812L41.4531 28.8619L42.0546 31.1067Z" fill="#265787"/>
<path d="M42.0779 31.275L55.127 28.0215L54.5647 25.7665L41.5156 29.02L42.0779 31.275Z" fill="#265787"/>
<path d="M42.0973 31.4423L55.2012 28.417L54.6784 26.1526L41.5745 29.1778L42.0973 31.4423Z" fill="#265787"/>
<path d="M42.1129 31.6096L55.2676 28.8135L54.7844 26.5403L41.6297 29.3364L42.1129 31.6096Z" fill="#265787"/>
<path d="M42.1286 31.778L55.3301 29.2119L54.8866 26.9306L41.6851 29.4967L42.1286 31.778Z" fill="#265787"/>
<path d="M42.1405 31.9457L55.3848 29.6104L54.9812 27.3217L41.7369 29.657L42.1405 31.9457Z" fill="#265787"/>
<path d="M42.1467 32.1136L55.4297 30.0098L55.0661 27.7144L41.7831 29.8182L42.1467 32.1136Z" fill="#265787"/>
<path d="M42.153 32.2828L55.4707 30.4111L55.1473 28.1098L41.8296 29.9814L42.153 32.2828Z" fill="#265787"/>
<path d="M42.1556 32.4505L55.5039 30.8115L55.2207 28.5048L41.8723 30.1438L42.1556 32.4505Z" fill="#265787"/>
<path d="M42.1544 32.6186L55.5293 31.2129L55.2864 28.9016L41.9115 30.3074L42.1544 32.6186Z" fill="#265787"/>
<path d="M42.1495 32.7883L55.5469 31.6162L55.3443 29.3011L41.9469 30.4732L42.1495 32.7883Z" fill="#265787"/>
<path d="M42.1447 32.9557L55.5605 32.0176L55.3984 29.6992L41.9826 30.6374L42.1447 32.9557Z" fill="#265787"/>
<path d="M42.1363 33.1238L55.5664 32.4199L55.4448 30.0991L42.0146 30.803L42.1363 33.1238Z" fill="#265787"/>
<path d="M42.1221 33.2926L55.5625 32.8232L55.4814 30.5007L42.041 30.97L42.1221 33.2926Z" fill="#265787"/>
<path d="M42.1062 33.4593L55.5527 33.2246L55.5122 30.901L42.0656 31.1357L42.1062 33.4593Z" fill="#265787"/>
<path d="M42.0885 33.6279L55.5371 33.6279L55.5371 31.3039L42.0885 31.3039L42.0885 33.6279Z" fill="#265787"/>
<path d="M42.0691 33.7946L55.5156 34.0293L55.5562 31.7057L42.1097 31.4709L42.0691 33.7946Z" fill="#265787"/>
<path d="M42.044 33.9613L55.4844 34.4307L55.5655 32.1081L42.1251 31.6387L42.044 33.9613Z" fill="#265787"/>
<path d="M42.0152 34.1272L55.4453 34.8311L55.5669 32.5102L42.1368 31.8064L42.0152 34.1272Z" fill="#265787"/>
<path d="M41.9885 34.2943L55.4043 35.2324L55.5664 32.9141L42.1506 31.976L41.9885 34.2943Z" fill="#265787"/>
<path d="M41.9542 34.4587L55.3516 35.6309L55.5541 33.3157L42.1567 32.1436L41.9542 34.4587Z" fill="#265787"/>
<path d="M41.9181 34.6235L55.293 36.0293L55.5359 33.718L42.161 32.3123L41.9181 34.6235Z" fill="#265787"/>
<path d="M41.8802 34.7878L55.2285 36.4268L55.5117 34.1201L42.1634 32.4811L41.8802 34.7878Z" fill="#265787"/>
<path d="M41.8386 34.9516L55.1562 36.8232L55.4797 34.5219L42.162 32.6502L41.8386 34.9516Z" fill="#265787"/>
<path d="M41.7951 35.114L55.0781 37.2178L55.4417 34.9224L42.1587 32.8186L41.7951 35.114Z" fill="#265787"/>
<path d="M41.746 35.276L54.9902 37.6113L55.3938 35.3226L42.1495 32.9873L41.746 35.276Z" fill="#265787"/>
<path d="M41.6989 35.4368L54.9004 38.0029L55.3438 35.7216L42.1423 33.1555L41.6989 35.4368Z" fill="#265787"/>
<path d="M41.6461 35.5955L54.8008 38.3916L55.284 36.1184L42.1293 33.3223L41.6461 35.5955Z" fill="#265787"/>
<path d="M41.5895 35.755L54.6934 38.7803L55.2161 36.5158L42.1123 33.4906L41.5895 35.755Z" fill="#265787"/>
<path d="M41.5329 35.9145L54.582 39.168L55.1443 36.913L42.0952 33.6595L41.5329 35.9145Z" fill="#265787"/>
<path d="M41.4706 36.071L54.4609 39.5518L55.0624 37.3069L42.0721 33.8262L41.4706 36.071Z" fill="#265787"/>
<path d="M41.4064 36.2276L54.334 39.9346L54.9746 37.7006L42.047 33.9937L41.4064 36.2276Z" fill="#265787"/>
<path d="M41.3402 36.3815L54.2012 40.3135L54.8806 38.091L42.0197 34.159L41.3402 36.3815Z" fill="#265787"/>
<path d="M41.2721 36.5356L54.0625 40.6914L54.7807 38.4812L41.9903 34.3253L41.2721 36.5356Z" fill="#265787"/>
<path d="M41.2001 36.687L53.916 41.0654L54.6726 38.868L41.9568 34.4896L41.2001 36.687Z" fill="#265787"/>
<path d="M41.1261 36.8388L53.7637 41.4385L54.5585 39.2546L41.921 34.6549L41.1261 36.8388Z" fill="#265787"/>
<path d="M41.0482 36.9891L53.6035 41.8086L54.4364 39.639L41.881 34.8194L41.0482 36.9891Z" fill="#265787"/>
<path d="M40.9701 37.1369L53.4395 42.1748L54.31 40.02L41.8407 34.9821L40.9701 37.1369Z" fill="#265787"/>
<path d="M40.8842 37.2853L53.2637 42.54L54.1717 40.4008L41.7922 35.146L40.8842 37.2853Z" fill="#265787"/>
<path d="M40.8 37.4304L53.0859 42.9004L54.0312 40.7773L41.7453 35.3073L40.8 37.4304Z" fill="#265787"/>
<path d="M40.7138 37.5752L52.9023 43.2588L53.8845 41.1525L41.696 35.4689L40.7138 37.5752Z" fill="#265787"/>
<path d="M40.6254 37.7168L52.7129 43.6123L53.7317 41.5235L41.6442 35.628L40.6254 37.7168Z" fill="#265787"/>
<path d="M40.5329 37.8583L52.5156 43.9639L53.5707 41.8932L41.5879 35.7876L40.5329 37.8583Z" fill="#265787"/>
<path d="M40.4381 37.9978L52.3125 44.3115L53.4036 42.2596L41.5292 35.9458L40.4381 37.9978Z" fill="#265787"/>
<path d="M40.3411 38.1353L52.1035 44.6553L53.2302 42.6227L41.4678 36.1027L40.3411 38.1353Z" fill="#265787"/>
<path d="M40.2399 38.2708L51.8867 44.9951L53.0487 42.9825L41.4019 36.2582L40.2399 38.2708Z" fill="#265787"/>
<path d="M40.1383 38.4045L51.666 45.3311L52.863 43.339L41.3353 36.4125L40.1383 38.4045Z" fill="#265787"/>
<path d="M40.0344 38.5374L51.4395 45.6641L52.671 43.6932L41.2659 36.5665L40.0344 38.5374Z" fill="#265787"/>
<path d="M39.9261 38.6685L51.2051 45.9932L52.4708 44.0441L41.1919 36.7195L39.9261 38.6685Z" fill="#265787"/>
<path d="M39.8194 38.7961L50.9688 46.3164L52.2683 44.3897L41.1189 36.8694L39.8194 38.7961Z" fill="#265787"/>
<path d="M39.7062 38.9239L50.7227 46.6377L52.0556 44.734L41.0392 37.0202L39.7062 38.9239Z" fill="#265787"/>
<path d="M39.5945 39.0483L50.4746 46.9531L51.8406 45.073L40.9605 37.1681L39.5945 39.0483Z" fill="#265787"/>
<path d="M39.4782 39.1711L50.2188 47.2646L51.6174 45.4086L40.8769 37.3151L39.4782 39.1711Z" fill="#265787"/>
<path d="M39.3633 39.2925L49.9609 47.5723L51.3917 45.7409L40.7941 37.4612L39.3633 39.2925Z" fill="#265787"/>
<path d="M39.2438 39.4106L49.6953 47.874L51.1579 46.0679L40.7063 37.6045L39.2438 39.4106Z" fill="#265787"/>
<path d="M39.1216 39.5273L49.4238 48.1719L50.9177 46.3916L40.6155 37.747L39.1216 39.5273Z" fill="#265787"/>
<path d="M38.9948 39.6418L49.1445 48.4648L50.6692 46.7109L40.5194 37.8878L38.9948 39.6418Z" fill="#265787"/>
<path d="M38.871 39.7541L48.8652 48.7529L50.4203 47.0259L40.4261 38.027L38.871 39.7541Z" fill="#265787"/>
<path d="M38.7444 39.8642L48.5801 49.0361L50.165 47.3365L40.3294 38.1646L38.7444 39.8642Z" fill="#265787"/>
<path d="M38.613 39.9723L48.2871 49.3145L49.9015 47.6427L40.2274 38.3005L38.613 39.9723Z" fill="#265787"/>
<path d="M38.4826 40.0773L47.9922 49.5869L49.6355 47.9436L40.1259 38.434L38.4826 40.0773Z" fill="#265787"/>
<path d="M38.3492 40.1814L47.6914 49.8555L49.3632 48.2411L40.021 38.567L38.3492 40.1814Z" fill="#265787"/>
<path d="M38.2148 40.2815L47.3867 50.1172L49.0864 48.5322L39.9145 38.6966L38.2148 40.2815Z" fill="#265787"/>
<path d="M38.0773 40.3808L47.0762 50.375L48.8032 48.8199L39.8044 38.8257L38.0773 40.3808Z" fill="#265787"/>
<path d="M37.9387 40.4772L46.7617 50.627L48.5157 49.1023L39.6926 38.9525L37.9387 40.4772Z" fill="#265787"/>
<path d="M37.8007 40.5708L46.4453 50.873L48.2256 49.3792L39.581 39.077L37.8007 40.5708Z" fill="#265787"/>
<path d="M37.6576 40.6618L46.1211 51.1133L47.9272 49.6507L39.4637 39.1992L37.6576 40.6618Z" fill="#265787"/>
<path d="M37.5132 40.75L45.793 51.3477L47.6243 49.9169L39.3445 39.3192L37.5132 40.75Z" fill="#265787"/>
<path d="M37.3693 40.8366L45.4629 51.5771L47.3189 50.1785L39.2254 39.438L37.3693 40.8366Z" fill="#265787"/>
<path d="M37.2221 40.9197L45.127 51.7998L47.0071 50.4338L39.1022 39.5537L37.2221 40.9197Z" fill="#265787"/>
<path d="M37.0772 41.0021L44.791 52.0186L46.6947 50.6856L38.9809 39.6691L37.0772 41.0021Z" fill="#265787"/>
<path d="M36.9269 41.0801L44.4473 52.2295L46.3739 50.9299L38.8536 39.7806L36.9269 41.0801Z" fill="#265787"/>
<path d="M36.775 41.1556L44.0996 52.4346L46.0487 51.1688L38.7241 39.8899L36.775 41.1556Z" fill="#265787"/>
<path d="M36.6233 41.2297L43.75 52.6348L45.7209 51.4032L38.5942 39.9982L36.6233 41.2297Z" fill="#265787"/>
<path d="M36.4719 41.2995L43.3984 52.8271L45.3905 51.6302L38.464 40.1025L36.4719 41.2995Z" fill="#265787"/>
<path d="M36.3187 41.3678L43.043 53.0146L45.0556 51.8526L38.3313 40.2058L36.3187 41.3678Z" fill="#265787"/>
<path d="M36.1636 41.4329L42.6836 53.1953L44.7162 52.0686L38.1962 40.3062L36.1636 41.4329Z" fill="#265787"/>
<path d="M36.0046 41.4957L42.3184 53.3701L44.3703 52.2791L38.0566 40.4047L36.0046 41.4957Z" fill="#265787"/>
<path d="M35.8476 41.5553L41.9531 53.5381L44.0238 52.483L37.9183 40.5002L35.8476 41.5553Z" fill="#265787"/>
<path d="M35.6885 41.6127L41.584 53.7002L43.6728 52.6814L37.7773 40.5939L35.6885 41.6127Z" fill="#265787"/>
<path d="M35.5312 41.6669L41.2148 53.8555L43.3211 52.8733L37.6375 40.6848L35.5312 41.6669Z" fill="#265787"/>
<path d="M35.3698 41.718L40.8398 54.0039L42.9629 53.0587L37.4929 40.7728L35.3698 41.718Z" fill="#265787"/>
<path d="M35.2101 41.767L40.4648 54.1465L42.6041 53.2384L37.3493 40.8589L35.2101 41.767Z" fill="#265787"/>
<path d="M35.0461 41.8119L40.084 54.2812L42.2388 53.4107L37.2008 40.9414L35.0461 41.8119Z" fill="#265787"/>
<path d="M34.8836 41.8558L39.7031 54.4111L41.8728 53.5783L37.0532 41.023L34.8836 41.8558Z" fill="#265787"/>
<path d="M34.7187 41.8967L39.3184 54.5342L41.5022 53.7393L36.9025 41.1018L34.7187 41.8967Z" fill="#265787"/>
<path d="M34.5532 41.9335L38.9316 54.6494L41.129 53.8928L36.7506 41.1769L34.5532 41.9335Z" fill="#265787"/>
<path d="M34.3891 41.9675L38.5449 54.7578L40.7552 54.0397L36.5993 41.2493L34.3891 41.9675Z" fill="#265787"/>
<path d="M34.2243 41.9994L38.1562 54.8604L40.3787 54.1809L36.4467 41.3199L34.2243 41.9994Z" fill="#265787"/>
<path d="M34.0567 42.0285L37.7637 54.9561L39.9976 54.3155L36.2907 41.3879L34.0567 42.0285Z" fill="#265787"/>
<path d="M33.8923 42.0526L37.373 55.043L39.6179 54.4415L36.1371 41.4511L33.8923 42.0526Z" fill="#265787"/>
<path d="M33.7231 42.0769L36.9766 55.126L39.2315 54.5638L35.978 41.5147L33.7231 42.0769Z" fill="#265787"/>
<path d="M33.5568 42.0963L36.582 55.2002L38.8465 54.6774L35.8212 41.5735L33.5568 42.0963Z" fill="#265787"/>
<path d="M33.3914 42.1139L36.1875 55.2686L38.4607 54.7854L35.6646 41.6307L33.3914 42.1139Z" fill="#265787"/>
<path d="M33.223 42.1276L35.7891 55.3291L38.0704 54.8857L35.5043 41.6842L33.223 42.1276Z" fill="#265787"/>
<path d="M33.0534 42.1386L35.3887 55.3828L37.6774 54.9793L35.342 41.735L33.0534 42.1386Z" fill="#265787"/>
<path d="M32.8864 42.1467L34.9902 55.4297L37.2856 55.0661L35.1818 41.7831L32.8864 42.1467Z" fill="#265787"/>
<path d="M32.7182 42.152L34.5898 55.4697L36.8912 55.1463L35.0195 41.8286L32.7182 42.152Z" fill="#265787"/>
<path d="M32.5505 42.1546L34.1895 55.5029L36.4961 55.2197L34.8572 41.8714L32.5505 42.1546Z" fill="#265787"/>
<path d="M32.3814 42.1544L33.7871 55.5293L36.0984 55.2864L34.6926 41.9115L32.3814 42.1544Z" fill="#265787"/>
<path d="M32.2107 42.1505L33.3828 55.5479L35.698 55.3453L34.5258 41.9479L32.2107 42.1505Z" fill="#265787"/>
<path d="M32.0423 42.1447L32.9805 55.5605L35.2988 55.3984L34.3607 41.9826L32.0423 42.1447Z" fill="#265787"/>
<path d="M31.8743 42.1333L32.5781 55.5635L34.8989 55.4418L34.1951 42.0117L31.8743 42.1333Z" fill="#265787"/>
<path d="M31.7064 42.1221L32.1758 55.5625L34.4984 55.4814L34.029 42.041L31.7064 42.1221Z" fill="#265787"/>
<path d="M31.5368 42.1072L31.7715 55.5537L34.0951 55.5132L33.8604 42.0666L31.5368 42.1072Z" fill="#265787"/>
<path d="M31.3711 42.0885L31.3711 55.5371L33.6951 55.5371L33.6951 42.0885L31.3711 42.0885Z" fill="#265787"/>
<path d="M31.2035 42.0662L30.9688 55.5127L33.2924 55.5533L33.5271 42.1067L31.2035 42.0662Z" fill="#265787"/>
<path d="M31.0358 42.044L30.5664 55.4844L32.889 55.5655L33.3583 42.1251L31.0358 42.044Z" fill="#265787"/>
<path d="M30.8699 42.0162L30.166 55.4463L32.4868 55.5679L33.1907 42.1378L30.8699 42.0162Z" fill="#265787"/>
<path d="M30.7038 41.9865L29.7656 55.4023L32.084 55.5645L33.0221 42.1486L30.7038 41.9865Z" fill="#265787"/>
<path d="M30.5413 41.9542L29.3691 55.3516L31.6843 55.5541L32.8564 42.1567L30.5413 41.9542Z" fill="#265787"/>
<path d="M30.3765 41.919L28.9707 55.2939L31.282 55.5369L32.6877 42.162L30.3765 41.919Z" fill="#265787"/>
<path d="M30.2112 41.8792L28.5723 55.2275L30.8789 55.5108L32.5179 42.1624L30.2112 41.8792Z" fill="#265787"/>
<path d="M30.0475 41.8386L28.1758 55.1562L30.4772 55.4797L32.3488 42.162L30.0475 41.8386Z" fill="#265787"/>
<path d="M29.8851 41.7951L27.7812 55.0781L30.0766 55.4417L32.1805 42.1587L29.8851 41.7951Z" fill="#265787"/>
<path d="M29.724 41.747L27.3887 54.9912L29.6774 55.3948L32.0127 42.1505L29.724 41.747Z" fill="#265787"/>
<path d="M29.5622 41.697L26.9961 54.8984L29.2774 55.3419L31.8435 42.1404L29.5622 41.697Z" fill="#265787"/>
<path d="M29.4016 41.6441L26.6055 54.7988L28.8787 55.282L31.6748 42.1273L29.4016 41.6441Z" fill="#265787"/>
<path d="M29.2421 41.5885L26.2168 54.6924L28.4812 55.2152L31.5065 42.1113L29.2421 41.5885Z" fill="#265787"/>
<path d="M29.0836 41.531L25.8301 54.5801L28.085 55.1423L31.3386 42.0932L29.0836 41.531Z" fill="#265787"/>
<path d="M28.928 41.4687L25.4473 54.459L27.6921 55.0605L31.1728 42.0702L28.928 41.4687Z" fill="#265787"/>
<path d="M28.7714 41.4064L25.0645 54.334L27.2984 54.9746L31.0054 42.047L28.7714 41.4064Z" fill="#265787"/>
<path d="M28.6175 41.3393L24.6855 54.2002L26.908 54.8797L30.84 42.0187L28.6175 41.3393Z" fill="#265787"/>
<path d="M28.4625 41.2702L24.3066 54.0605L26.5169 54.7787L30.6727 41.9883L28.4625 41.2702Z" fill="#265787"/>
<path d="M28.3101 41.1992L23.9316 53.915L26.129 54.6717L30.5075 41.9558L28.3101 41.1992Z" fill="#265787"/>
<path d="M28.1583 41.1232L23.5586 53.7607L25.7424 54.5556L30.3421 41.9181L28.1583 41.1232Z" fill="#265787"/>
<path d="M28.009 41.0472L23.1895 53.6025L25.3591 54.4354L30.1786 41.8801L28.009 41.0472Z" fill="#265787"/>
<path d="M27.8602 40.9672L22.8223 53.4365L24.977 54.3071L30.015 41.8378L27.8602 40.9672Z" fill="#265787"/>
<path d="M27.7138 40.8852L22.459 53.2646L24.5982 54.1727L29.853 41.7932L27.7138 40.8852Z" fill="#265787"/>
<path d="M27.5677 40.801L22.0977 53.0869L24.2207 54.0322L29.6908 41.7463L27.5677 40.801Z" fill="#265787"/>
<path d="M27.4258 40.7128L21.7422 52.9014L23.8484 53.8835L29.5321 41.695L27.4258 40.7128Z" fill="#265787"/>
<path d="M27.2822 40.6234L21.3867 52.7109L23.4755 53.7297L29.371 41.6422L27.2822 40.6234Z" fill="#265787"/>
<path d="M27.1426 40.5309L21.0371 52.5137L23.1078 53.5687L29.2133 41.586L27.1426 40.5309Z" fill="#265787"/>
<path d="M27.0012 40.4362L20.6875 52.3105L22.7395 53.4016L29.0532 41.5272L27.0012 40.4362Z" fill="#265787"/>
<path d="M26.8638 40.3392L20.3438 52.1016L22.3764 53.2283L28.8964 41.4659L26.8638 40.3392Z" fill="#265787"/>
<path d="M26.7282 40.2399L20.0039 51.8867L22.0165 53.0487L28.7408 41.4019L26.7282 40.2399Z" fill="#265787"/>
<path d="M26.5945 40.1374L19.668 51.665L21.66 52.862L28.5866 41.3343L26.5945 40.1374Z" fill="#265787"/>
<path d="M26.4626 40.0325L19.3359 51.4375L21.3068 52.669L28.4335 41.264L26.4626 40.0325Z" fill="#265787"/>
<path d="M26.3305 39.9271L19.0059 51.2061L20.9549 52.4718L28.2796 41.1929L26.3305 39.9271Z" fill="#265787"/>
<path d="M26.2039 39.8184L18.6836 50.9678L20.6103 52.2673L28.1306 41.118L26.2039 39.8184Z" fill="#265787"/>
<path d="M26.0751 39.7072L18.3613 50.7236L20.265 52.0566L27.9788 41.0402L26.0751 39.7072Z" fill="#265787"/>
<path d="M25.9498 39.5945L18.0449 50.4746L19.9251 51.8406L27.83 40.9605L25.9498 39.5945Z" fill="#265787"/>
<path d="M25.8279 39.4782L17.7344 50.2188L19.5904 51.6174L27.684 40.8769L25.8279 39.4782Z" fill="#265787"/>
<path d="M25.7075 39.3614L17.4277 49.959L19.2591 51.3898L27.5388 40.7922L25.7075 39.3614Z" fill="#265787"/>
<path d="M25.5885 39.2409L17.125 49.6924L18.9311 51.1549L27.3946 40.7034L25.5885 39.2409Z" fill="#265787"/>
<path d="M25.4708 39.1197L16.8262 49.4219L18.6065 50.9157L27.251 40.6135L25.4708 39.1197Z" fill="#265787"/>
<path d="M25.3563 38.9967L16.5332 49.1465L18.2871 50.6712L27.1102 40.5214L25.3563 38.9967Z" fill="#265787"/>
<path d="M25.2449 38.871L16.2461 48.8652L17.9732 50.4203L26.972 40.4261L25.2449 38.871Z" fill="#265787"/>
<path d="M25.1348 38.7425L15.9629 48.5781L17.6626 50.1631L26.8345 40.3274L25.1348 38.7425Z" fill="#265787"/>
<path d="M25.0258 38.613L15.6836 48.2871L17.3553 49.9015L26.6975 40.2274L25.0258 38.613Z" fill="#265787"/>
<path d="M24.9217 38.4816L15.4121 47.9912L17.0554 49.6345L26.565 40.1249L24.9217 38.4816Z" fill="#265787"/>
<path d="M24.8167 38.3492L15.1426 47.6914L16.757 49.3632L26.4311 40.021L24.8167 38.3492Z" fill="#265787"/>
<path d="M24.7165 38.2138L14.8809 47.3857L16.4658 49.0854L26.3015 39.9135L24.7165 38.2138Z" fill="#265787"/>
<path d="M24.6192 38.0773L14.625 47.0762L16.1801 48.8032L26.1743 39.8044L24.6192 38.0773Z" fill="#265787"/>
<path d="M24.5228 37.9396L14.373 46.7627L15.8977 48.5166L26.0475 39.6936L24.5228 37.9396Z" fill="#265787"/>
<path d="M24.4292 37.7988L14.127 46.4434L15.6208 48.2236L25.923 39.5791L24.4292 37.7988Z" fill="#265787"/>
<path d="M24.3363 37.6576L13.8848 46.1211L15.3473 47.9272L25.7988 39.4637L24.3363 37.6576Z" fill="#265787"/>
<path d="M24.25 37.5142L13.6523 45.7939L15.0831 47.6253L25.6808 39.3455L24.25 37.5142Z" fill="#265787"/>
<path d="M24.1643 37.3693L13.4238 45.4629L14.8224 47.3189L25.563 39.2254L24.1643 37.3693Z" fill="#265787"/>
<path d="M24.0793 37.2231L13.1992 45.1279L14.5652 47.0081L25.4454 39.1032L24.0793 37.2231Z" fill="#265787"/>
<path d="M23.9969 37.0763L12.9805 44.79L14.3135 46.6937L25.3299 38.98L23.9969 37.0763Z" fill="#265787"/>
<path d="M23.917 36.9259L12.7676 44.4463L14.0671 46.373L25.2165 38.8526L23.917 36.9259Z" fill="#265787"/>
<path d="M23.8434 36.775L12.5645 44.0996L13.8302 46.0487L25.1091 38.7241L23.8434 36.775Z" fill="#265787"/>
<path d="M23.7703 36.6243L12.3652 43.751L13.5968 45.7218L25.0018 38.5952L23.7703 36.6243Z" fill="#265787"/>
<path d="M23.6996 36.4719L12.1719 43.3984L13.3688 45.3905L24.8965 38.464L23.6996 36.4719Z" fill="#265787"/>
<path d="M23.6312 36.3167L11.9844 43.041L13.1464 45.0537L24.7932 38.3294L23.6312 36.3167Z" fill="#265787"/>
<path d="M23.5651 36.1616L11.8027 42.6816L12.9294 44.7143L24.6918 38.1943L23.5651 36.1616Z" fill="#265787"/>
<path d="M23.5053 36.0056L11.6309 42.3193L12.7219 44.3713L24.5963 38.0576L23.5053 36.0056Z" fill="#265787"/>
<path d="M23.4437 35.8476L11.4609 41.9531L12.516 44.0238L24.4988 37.9183L23.4437 35.8476Z" fill="#265787"/>
<path d="M23.3863 35.6895L11.2988 41.585L12.3176 43.6738L24.4051 37.7783L23.3863 35.6895Z" fill="#265787"/>
<path d="M23.3311 35.5293L11.1426 41.2129L12.1247 43.3191L24.3133 37.6355L23.3311 35.5293Z" fill="#265787"/>
<path d="M23.282 35.3688L10.9961 40.8389L11.9413 42.9619L24.2272 37.4919L23.282 35.3688Z" fill="#265787"/>
<path d="M23.231 35.2081L10.8516 40.4629L11.7596 42.6021L24.1391 37.3474L23.231 35.2081Z" fill="#265787"/>
<path d="M23.1861 35.0461L10.7168 40.084L11.5874 42.2388L24.0567 37.2008L23.1861 35.0461Z" fill="#265787"/>
<path d="M23.1432 34.8826L10.5879 39.7021L11.4207 41.8718L23.9761 37.0522L23.1432 34.8826Z" fill="#265787"/>
<path d="M23.1024 34.7187L10.4648 39.3184L11.2597 41.5022L23.8972 36.9025L23.1024 34.7187Z" fill="#265787"/>
<path d="M23.0674 34.5542L10.3516 38.9326L11.1082 41.13L23.8241 36.7516L23.0674 34.5542Z" fill="#265787"/>
<path d="M23.0306 34.3901L10.2402 38.5459L10.9584 40.7562L23.7488 36.6003L23.0306 34.3901Z" fill="#265787"/>
<path d="M22.9996 34.2233L10.1387 38.1553L10.8181 40.3777L23.6791 36.4457L22.9996 34.2233Z" fill="#265787"/>
<path d="M22.9706 34.0577L10.043 37.7646L10.6835 39.9986L23.6112 36.2917L22.9706 34.0577Z" fill="#265787"/>
<path d="M22.9454 33.8923L9.95508 37.373L10.5566 39.6179L23.5469 36.1371L22.9454 33.8923Z" fill="#265787"/>
<path d="M22.9221 33.724L9.87305 36.9775L10.4353 39.2325L23.4844 35.979L22.9221 33.724Z" fill="#265787"/>
<path d="M22.9008 33.5577L9.79688 36.583L10.3197 38.8474L23.4236 35.8222L22.9008 33.5577Z" fill="#265787"/>
<path d="M22.8852 33.3904L9.73047 36.1865L10.2137 38.4597L23.3684 35.6636L22.8852 33.3904Z" fill="#265787"/>
<path d="M22.8714 33.222L9.66992 35.7881L10.1134 38.0694L23.3149 35.5033L22.8714 33.222Z" fill="#265787"/>
<path d="M22.8595 33.0534L9.61523 35.3887L10.0188 37.6774L23.2631 35.342L22.8595 33.0534Z" fill="#265787"/>
<path d="M22.8514 32.8854L9.56836 34.9893L9.93191 37.2846L23.2149 35.1808L22.8514 32.8854Z" fill="#265787"/>
<path d="M22.847 32.7162L9.5293 34.5879L9.85273 36.8893L23.1704 35.0176L22.847 32.7162Z" fill="#265787"/>
<path d="M22.8444 32.5485L9.49609 34.1875L9.77932 36.4942L23.1277 34.8552L22.8444 32.5485Z" fill="#265787"/>
<path d="M22.8456 32.3794L9.4707 33.7852L9.71363 36.0964L23.0885 34.6907L22.8456 32.3794Z" fill="#265787"/>
<path d="M22.8486 32.2117L9.45117 33.3838L9.65372 35.6989L23.0511 34.5268L22.8486 32.2117Z" fill="#265787"/>
<path d="M22.8572 32.0433L9.44141 32.9814L9.60352 35.2998L23.0193 34.3617L22.8572 32.0433Z" fill="#265787"/>
<path d="M22.8637 31.8753L9.43359 32.5791L9.55522 34.8999L22.9854 34.1961L22.8637 31.8753Z" fill="#265787"/>
<path d="M22.8779 31.7064L9.4375 32.1758L9.51861 34.4984L22.959 34.029L22.8779 31.7064Z" fill="#265787"/>
<path d="M22.8938 31.5387L9.44727 31.7734L9.48782 34.0971L22.9344 33.8624L22.8938 31.5387Z" fill="#265787"/>
<path d="M22.9115 31.3711L9.46289 31.3711L9.46289 33.6951L22.9115 33.6951L22.9115 31.3711Z" fill="#265787"/>
<path d="M22.9309 31.2044L9.48438 30.9697L9.44382 33.2934L22.8903 33.5281L22.9309 31.2044Z" fill="#265787"/>
<path d="M22.958 31.0377L9.51758 30.5684L9.43647 32.8909L22.8769 33.3603L22.958 31.0377Z" fill="#265787"/>
<path d="M22.9829 30.8708L9.55273 30.167L9.43111 32.4878L22.8613 33.1916L22.9829 30.8708Z" fill="#265787"/>
<path d="M23.0135 30.7047L9.59766 29.7666L9.43554 32.0849L22.8514 33.0231L23.0135 30.7047Z" fill="#265787"/>
<path d="M23.0458 30.5393L9.64844 29.3672L9.44589 31.6823L22.8433 32.8545L23.0458 30.5393Z" fill="#265787"/>
<path d="M23.0819 30.3755L9.70703 28.9697L9.46411 31.281L22.839 32.6868L23.0819 30.3755Z" fill="#265787"/>
<path d="M23.1198 30.2112L9.77148 28.5723L9.48826 30.8789L22.8366 32.5179L23.1198 30.2112Z" fill="#265787"/>
<path d="M23.1614 30.0484L9.84375 28.1768L9.52031 30.4781L22.838 32.3498L23.1614 30.0484Z" fill="#265787"/>
<path d="M23.2068 29.8851L9.92383 27.7812L9.56027 30.0766L22.8433 32.1805L23.2068 29.8851Z" fill="#265787"/>
<path d="M23.2521 29.724L10.0078 27.3887L9.60425 29.6774L22.8485 32.0127L23.2521 29.724Z" fill="#265787"/>
<path d="M23.3031 29.5622L10.1016 26.9961L9.65812 29.2774L22.8596 31.8435L23.3031 29.5622Z" fill="#265787"/>
<path d="M23.3539 29.4016L10.1992 26.6055L9.71603 28.8787L22.8707 31.6748L23.3539 29.4016Z" fill="#265787"/>
<path d="M23.4086 29.243L10.3047 26.2178L9.7819 28.4822L22.8858 31.5075L23.4086 29.243Z" fill="#265787"/>
<path d="M23.469 29.0846L10.4199 25.8311L9.8577 28.086L22.9068 31.3395L23.469 29.0846Z" fill="#265787"/>
<path d="M23.5294 28.928L10.5391 25.4473L9.93757 27.6921L22.9279 31.1728L23.5294 28.928Z" fill="#265787"/>
<path d="M23.5936 28.7724L10.666 25.0654L10.0254 27.2994L22.953 31.0063L23.5936 28.7724Z" fill="#265787"/>
<path d="M23.6598 28.6175L10.7988 24.6855L10.1194 26.908L22.9803 30.84L23.6598 28.6175Z" fill="#265787"/>
<path d="M23.7298 28.4625L10.9395 24.3066L10.2213 26.5169L23.0117 30.6727L23.7298 28.4625Z" fill="#265787"/>
<path d="M23.7999 28.311L11.084 23.9326L10.3274 26.13L23.0432 30.5084L23.7999 28.311Z" fill="#265787"/>
<path d="M23.8739 28.1602L11.2363 23.5605L10.4415 25.7444L23.079 30.3441L23.8739 28.1602Z" fill="#265787"/>
<path d="M23.9518 28.009L11.3965 23.1895L10.5636 25.3591L23.119 30.1786L23.9518 28.009Z" fill="#265787"/>
<path d="M24.0318 27.8612L11.5625 22.8232L10.6919 24.978L23.1612 30.0159L24.0318 27.8612Z" fill="#265787"/>
<path d="M24.1139 27.7147L11.7344 22.46L10.8263 24.5992L23.2058 29.854L24.1139 27.7147Z" fill="#265787"/>
<path d="M24.198 27.5687L11.9121 22.0986L10.9669 24.2217L23.2527 29.6917L24.198 27.5687Z" fill="#265787"/>
<path d="M24.2843 27.4238L12.0957 21.7402L11.1135 23.8465L23.3021 29.5301L24.2843 27.4238Z" fill="#265787"/>
<path d="M24.3766 27.2822L12.2891 21.3867L11.2703 23.4755L23.3578 29.371L24.3766 27.2822Z" fill="#265787"/>
<path d="M24.4671 27.1417L12.4844 21.0361L11.4293 23.1068L23.4121 29.2124L24.4671 27.1417Z" fill="#265787"/>
<path d="M24.5619 27.0022L12.6875 20.6885L11.5964 22.7404L23.4708 29.0542L24.5619 27.0022Z" fill="#265787"/>
<path d="M24.6608 26.8637L12.8984 20.3438L11.7717 22.3764L23.5341 28.8964L24.6608 26.8637Z" fill="#265787"/>
<path d="M24.7581 26.7272L13.1113 20.0029L11.9493 22.0156L23.5961 28.7399L24.7581 26.7272Z" fill="#265787"/>
<path d="M24.8617 26.5935L13.334 19.667L12.137 21.659L23.6647 28.5856L24.8617 26.5935Z" fill="#265787"/>
<path d="M24.9656 26.4616L13.5605 19.335L12.329 21.3058L23.7341 28.4325L24.9656 26.4616Z" fill="#265787"/>
<path d="M25.0719 26.3315L13.793 19.0068L12.5272 20.9559L23.8062 28.2805L25.0719 26.3315Z" fill="#265787"/>
<path d="M25.1806 26.202L14.0312 18.6816L12.7317 20.6083L23.8811 28.1287L25.1806 26.202Z" fill="#265787"/>
<path d="M25.2918 26.0761L14.2754 18.3623L12.9424 20.266L23.9588 27.9798L25.2918 26.0761Z" fill="#265787"/>
<path d="M25.4055 25.9508L14.5254 18.0459L13.1594 19.9261L24.0395 27.8309L25.4055 25.9508Z" fill="#265787"/>
<path d="M25.5198 25.827L14.7793 17.7334L13.3807 19.5894L24.1212 27.683L25.5198 25.827Z" fill="#265787"/>
<path d="M25.6386 25.7065L15.041 17.4268L13.6102 19.2581L24.2078 27.5379L25.6386 25.7065Z" fill="#265787"/>
<path d="M25.7582 25.5875L15.3066 17.124L13.8441 18.9301L24.2956 27.3936L25.7582 25.5875Z" fill="#265787"/>
<path d="M25.8784 25.4717L15.5762 16.8271L14.0823 18.6074L24.3845 27.252L25.8784 25.4717Z" fill="#265787"/>
<path d="M26.0033 25.3572L15.8535 16.5342L14.3288 18.2881L24.4786 27.1112L26.0033 25.3572Z" fill="#265787"/>
<path d="M26.129 25.244L16.1348 16.2451L14.5797 17.9722L24.5739 26.971L26.129 25.244Z" fill="#265787"/>
<path d="M26.2556 25.1348L16.4199 15.9629L14.835 17.6626L24.6706 26.8345L26.2556 25.1348Z" fill="#265787"/>
<path d="M26.385 25.0267L16.7109 15.6846L15.0966 17.3563L24.7706 26.6985L26.385 25.0267Z" fill="#265787"/>
<path d="M26.5174 24.9217L17.0078 15.4121L15.3645 17.0554L24.8741 26.565L26.5174 24.9217Z" fill="#265787"/>
<path d="M26.6508 24.8176L17.3086 15.1436L15.6368 16.7579L24.979 26.432L26.6508 24.8176Z" fill="#265787"/>
<path d="M26.7852 24.7175L17.6133 14.8818L15.9136 16.4668L25.0855 26.3025L26.7852 24.7175Z" fill="#265787"/>
<path d="M26.9207 24.6192L17.9219 14.625L16.1948 16.1801L25.1937 26.1743L26.9207 24.6192Z" fill="#265787"/>
<path d="M27.0613 24.5218L18.2383 14.3721L16.4843 15.8967L25.3074 26.0465L27.0613 24.5218Z" fill="#265787"/>
<path d="M27.2012 24.4282L18.5566 14.126L16.7764 15.6198L25.4209 25.922L27.2012 24.4282Z" fill="#265787"/>
<path d="M27.3424 24.3372L18.8789 13.8857L17.0728 15.3483L25.5363 25.7998L27.3424 24.3372Z" fill="#265787"/>
<path d="M27.4849 24.248L19.2051 13.6504L17.3737 15.0812L25.6535 25.6788L27.4849 24.248Z" fill="#265787"/>
<path d="M27.6268 24.1624L19.5332 13.4219L17.6772 14.8205L25.7707 25.561L27.6268 24.1624Z" fill="#265787"/>
<path d="M27.7779 24.0784L19.873 13.1982L17.9929 14.5643L25.8978 25.4444L27.7779 24.0784Z" fill="#265787"/>
<path d="M27.9247 23.9969L20.2109 12.9805L18.3072 14.3135L26.021 25.3299L27.9247 23.9969Z" fill="#265787"/>
<path d="M28.0731 23.9189L20.5527 12.7695L18.6261 14.0691L26.1464 25.2185L28.0731 23.9189Z" fill="#265787"/>
<path d="M28.2231 23.8424L20.8984 12.5635L18.9494 13.8292L26.274 25.1081L28.2231 23.8424Z" fill="#265787"/>
<path d="M28.3747 23.7703L21.248 12.3652L19.2772 13.5968L26.4038 25.0018L28.3747 23.7703Z" fill="#265787"/>
<path d="M28.5281 23.6986L21.6016 12.1709L19.6095 13.3678L26.536 24.8955L28.5281 23.6986Z" fill="#265787"/>
<path d="M28.6813 23.6312L21.957 11.9844L19.9444 13.1464L26.6687 24.7932L28.6813 23.6312Z" fill="#265787"/>
<path d="M28.8384 23.5651L22.3184 11.8027L20.2857 12.9294L26.8057 24.6918L28.8384 23.5651Z" fill="#265787"/>
<path d="M28.9954 23.5033L22.6816 11.6289L20.6297 12.72L26.9434 24.5943L28.9954 23.5033Z" fill="#265787"/>
<path d="M29.1524 23.4427L23.0469 11.46L20.9762 12.515L27.0817 24.4978L29.1524 23.4427Z" fill="#265787"/>
<path d="M29.3095 23.3863L23.4141 11.2988L21.3253 12.3176L27.2207 24.4051L29.3095 23.3863Z" fill="#265787"/>
<path d="M29.4688 23.3311L23.7852 11.1426L21.6789 12.1247L27.3625 24.3133L29.4688 23.3311Z" fill="#265787"/>
<path d="M29.6302 23.28L24.1602 10.9941L22.0371 11.9394L27.5071 24.2253L29.6302 23.28Z" fill="#265787"/>
<path d="M29.7899 23.232L24.5352 10.8525L22.3959 11.7606L27.6507 24.1401L29.7899 23.232Z" fill="#265787"/>
<path d="M29.9539 23.1851L24.916 10.7158L22.7612 11.5864L27.7992 24.0557L29.9539 23.1851Z" fill="#265787"/>
<path d="M30.1164 23.1432L25.2969 10.5879L23.1272 11.4207L27.9468 23.9761L30.1164 23.1432Z" fill="#265787"/>
<path d="M30.2774 23.1033L25.6777 10.4658L23.4939 11.2607L28.0936 23.8982L30.2774 23.1033Z" fill="#265787"/>
<path d="M30.4448 23.0655L26.0664 10.3496L23.869 11.1062L28.2475 23.8221L30.4448 23.0655Z" fill="#265787"/>
<path d="M30.609 23.0306L26.4531 10.2402L24.2429 10.9584L28.3987 23.7487L30.609 23.0306Z" fill="#265787"/>
<path d="M30.7757 22.9996L26.8438 10.1387L24.6213 10.8181L28.5533 23.6791L30.7757 22.9996Z" fill="#265787"/>
<path d="M30.9413 22.9706L27.2344 10.043L25.0004 10.6835L28.7073 23.6111L30.9413 22.9706Z" fill="#265787"/>
<path d="M31.1077 22.9444L27.627 9.9541L25.3821 10.5556L28.8629 23.5459L31.1077 22.9444Z" fill="#265787"/>
<path d="M31.275 22.9221L28.0215 9.87305L25.7665 10.4353L29.02 23.4844L31.275 22.9221Z" fill="#265787"/>
<path d="M31.4413 22.9027L28.416 9.79883L26.1516 10.3216L29.1769 23.4255L31.4413 22.9027Z" fill="#265787"/>
<path d="M31.6086 22.8861L28.8125 9.73145L26.5393 10.2146L29.3354 23.3693L31.6086 22.8861Z" fill="#265787"/>
<path d="M31.779 22.8704L29.2129 9.66895L26.9316 10.1124L29.4977 23.3139L31.779 22.8704Z" fill="#265787"/>
<path d="M31.9447 22.8595L29.6094 9.61523L27.3207 10.0188L29.656 23.2631L31.9447 22.8595Z" fill="#265787"/>
<path d="M32.1116 22.8514L30.0078 9.56836L27.7124 9.93191L29.8162 23.2149L32.1116 22.8514Z" fill="#265787"/>
<path d="M32.2818 22.847L30.4102 9.5293L28.1088 9.85273L29.9805 23.1704L32.2818 22.847Z" fill="#265787"/>
<path d="M32.4515 22.8444L30.8125 9.49609L28.5058 9.77932L30.1448 23.1276L32.4515 22.8444Z" fill="#265787"/>
<path d="M32.6186 22.8456L31.2129 9.4707L28.9016 9.71363L30.3074 23.0885L32.6186 22.8456Z" fill="#265787"/>
<path d="M32.7874 22.8486L31.6152 9.45117L29.3001 9.65372L30.4722 23.0511L32.7874 22.8486Z" fill="#265787"/>
<path d="M32.9577 22.8553L32.0195 9.43945L29.7012 9.60157L30.6393 23.0174L32.9577 22.8553Z" fill="#265787"/>
<path d="M33.1238 22.8637L32.4199 9.43359L30.0991 9.55522L30.803 22.9854L33.1238 22.8637Z" fill="#265787"/>
<path d="M33.2916 22.8779L32.8223 9.4375L30.4997 9.51861L30.969 22.959L33.2916 22.8779Z" fill="#265787"/>
<path d="M33.4593 22.8918L33.2246 9.44531L30.901 9.48587L31.1357 22.9324L33.4593 22.8918Z" fill="#265787"/>
<path d="M33.625 22.9095L33.625 9.46094L31.301 9.46094L31.301 22.9095L33.625 22.9095Z" fill="#265787"/>
<path d="M33.7965 22.9309L34.0312 9.48438L31.7076 9.44382L31.4729 22.8903L33.7965 22.9309Z" fill="#265787"/>
<path d="M33.9623 22.955L34.4316 9.51465L32.1091 9.43354L31.6397 22.8739L33.9623 22.955Z" fill="#265787"/>
<path d="M34.1282 22.9819L34.832 9.55176L32.5112 9.43013L31.8074 22.8603L34.1282 22.9819Z" fill="#265787"/>
<path d="M34.2962 23.0125L35.2344 9.59668L32.916 9.43457L31.9779 22.8504L34.2962 23.0125Z" fill="#265787"/>
<path d="M34.4587 23.0458L35.6309 9.64844L33.3157 9.44589L32.1436 22.8433L34.4587 23.0458Z" fill="#265787"/>
<path d="M34.6255 23.081L36.0312 9.70605L33.72 9.46313L32.3142 22.838L34.6255 23.081Z" fill="#265787"/>
<path d="M34.7888 23.1188L36.4277 9.77051L34.1211 9.48728L32.4821 22.8356L34.7888 23.1188Z" fill="#265787"/>
<path d="M34.9525 23.1614L36.8242 9.84375L34.5228 9.52031L32.6512 22.838L34.9525 23.1614Z" fill="#265787"/>
<path d="M35.113 23.2049L37.2168 9.92188L34.9214 9.55832L32.8176 22.8413L35.113 23.2049Z" fill="#265787"/>
<path d="M35.276 23.253L37.6113 10.0088L35.3226 9.60523L32.9873 22.8495L35.276 23.253Z" fill="#265787"/>
<path d="M35.4358 23.3021L38.002 10.1006L35.7207 9.65715L33.1545 22.8586L35.4358 23.3021Z" fill="#265787"/>
<path d="M35.5965 23.3539L38.3926 10.1992L36.1194 9.71603L33.3232 22.8707L35.5965 23.3539Z" fill="#265787"/>
<path d="M35.754 23.4105L38.7793 10.3066L36.5149 9.78385L33.4896 22.8877L35.754 23.4105Z" fill="#265787"/>
<path d="M35.9145 23.468L39.168 10.4189L36.913 9.85672L33.6595 22.9058L35.9145 23.468Z" fill="#265787"/>
<path d="M36.07 23.5284L39.5508 10.5381L37.306 9.93659L33.8252 22.9269L36.07 23.5284Z" fill="#265787"/>
<path d="M36.2267 23.5926L39.9336 10.665L37.6996 10.0245L33.9927 22.9521L36.2267 23.5926Z" fill="#265787"/>
<path d="M36.3825 23.6598L40.3145 10.7988L38.092 10.1194L34.16 22.9803L36.3825 23.6598Z" fill="#265787"/>
<path d="M36.5375 23.7288L40.6934 10.9385L38.4831 10.2203L34.3273 23.0107L36.5375 23.7288Z" fill="#265787"/>
<path d="M36.686 23.7999L41.0645 11.084L38.8671 10.3274L34.4886 23.0432L36.686 23.7999Z" fill="#265787"/>
<path d="M36.8398 23.8739L41.4395 11.2363L39.2556 10.4415L34.6559 23.079L36.8398 23.8739Z" fill="#265787"/>
<path d="M36.9891 23.9508L41.8086 11.3955L39.639 10.5627L34.8194 23.118L36.9891 23.9508Z" fill="#265787"/>
<path d="M37.1379 24.0308L42.1758 11.5615L40.021 10.6909L34.9831 23.1602L37.1379 24.0308Z" fill="#265787"/>
<path d="M37.2862 24.1129L42.541 11.7334L40.4018 10.8253L35.147 23.2048L37.2862 24.1129Z" fill="#265787"/>
<path d="M37.4304 24.199L42.9004 11.9131L40.7773 10.9678L35.3073 23.2537L37.4304 24.199Z" fill="#265787"/>
<path d="M37.5742 24.2862L43.2578 12.0977L41.1516 11.1155L35.4679 23.304L37.5742 24.2862Z" fill="#265787"/>
<path d="M37.7178 24.3756L43.6133 12.2881L41.5245 11.2693L35.629 23.3568L37.7178 24.3756Z" fill="#265787"/>
<path d="M37.8593 24.4671L43.9648 12.4844L41.8941 11.4293L35.7886 23.4121L37.8593 24.4671Z" fill="#265787"/>
<path d="M37.9988 24.5619L44.3125 12.6875L42.2605 11.5964L35.9468 23.4708L37.9988 24.5619Z" fill="#265787"/>
<path d="M38.1343 24.6598L44.6543 12.8975L42.6217 11.7708L36.1017 23.5332L38.1343 24.6598Z" fill="#265787"/>
<path d="M38.2718 24.7591L44.9961 13.1123L42.9835 11.9503L36.2592 23.5971L38.2718 24.7591Z" fill="#265787"/>
<path d="M38.4055 24.8607L45.332 13.333L43.34 12.1361L36.4134 23.6637L38.4055 24.8607Z" fill="#265787"/>
<path d="M38.5394 24.9646L45.666 13.5596L43.6952 12.328L36.5685 23.7331L38.5394 24.9646Z" fill="#265787"/>
<path d="M38.6695 25.0719L45.9941 13.793L44.0451 12.5272L36.7204 23.8062L38.6695 25.0719Z" fill="#265787"/>
<path d="M38.798 25.1806L46.3184 14.0312L44.3917 12.7317L36.8713 23.8811L38.798 25.1806Z" fill="#265787"/>
<path d="M38.9229 25.2918L46.6367 14.2754L44.733 12.9424L37.0192 23.9588L38.9229 25.2918Z" fill="#265787"/>
<path d="M39.0482 25.4045L46.9531 14.5244L45.073 13.1584L37.1681 24.0385L39.0482 25.4045Z" fill="#265787"/>
<path d="M39.1721 25.5208L47.2656 14.7803L45.4096 13.3817L37.316 24.1222L39.1721 25.5208Z" fill="#265787"/>
<path d="M39.2905 25.6377L47.5703 15.04L45.739 13.6092L37.4592 24.2069L39.2905 25.6377Z" fill="#265787"/>
<path d="M39.4115 25.7572L47.875 15.3057L46.0689 13.8431L37.6054 24.2946L39.4115 25.7572Z" fill="#265787"/>
<path d="M33.1836 54.766H31.8634C31.8022 54.7438 31.7407 54.7382 31.6789 54.7382C30.9741 54.7048 30.2744 54.648 29.5808 54.5537C28.2833 54.3858 27.0076 54.1005 25.7658 53.7038C23.6345 53.0218 21.6487 52.0431 19.8083 50.7677C18.1017 49.5818 16.5919 48.1838 15.2771 46.5735C13.727 44.6831 12.5192 42.5968 11.6629 40.3044C10.8963 38.2687 10.4377 36.1607 10.2976 33.985C10.2976 33.8675 10.2753 33.7501 10.2363 33.6326V31.3341C10.2753 31.2328 10.292 31.127 10.2976 31.0209C10.3254 30.5006 10.3811 29.9804 10.449 29.4663C10.7849 26.9833 11.5228 24.6284 12.6586 22.3968C13.4417 20.8587 14.3928 19.4276 15.5111 18.107C16.6189 16.7986 17.8608 15.6293 19.2365 14.6062C21.4798 12.9393 23.9469 11.737 26.6429 10.9992C27.9518 10.6418 29.2892 10.4069 30.6424 10.2946C30.8827 10.2724 31.135 10.2946 31.3752 10.2334H33.6351C33.8084 10.2835 33.9876 10.2557 34.1607 10.2724C35.0563 10.3503 35.9456 10.4629 36.8289 10.636C39.6093 11.1841 42.1877 12.2246 44.5712 13.7617C46.4231 14.9529 48.0565 16.39 49.4827 18.0621C50.6298 19.4044 51.6026 20.8642 52.3972 22.4407C53.3369 24.3034 54.0079 26.2547 54.3891 28.307C54.5902 29.3918 54.7416 30.488 54.7467 31.5954C54.7467 31.6688 54.7634 31.7468 54.769 31.8189V33.1389C54.7467 33.2224 54.7467 33.312 54.7411 33.4015C54.7411 33.6138 54.7412 33.827 54.7245 34.0392C54.6231 35.3929 54.4112 36.7292 54.0753 38.0489C53.4321 40.5266 52.3966 42.8252 50.959 44.9444C49.8903 46.5216 48.6433 47.9423 47.2109 49.2002C45.7846 50.4531 44.2234 51.5101 42.5283 52.3653C40.5755 53.3492 38.5227 54.0321 36.3689 54.4062C35.5412 54.5515 34.7076 54.6464 33.8687 54.6968C33.6477 54.7224 33.4132 54.7171 33.1836 54.766Z" fill="#9EB5C8"/>
<path style="mix-blend-mode:lighten" d="M26.7111 23.2611C26.6955 23.6702 26.7682 24.1174 26.8887 24.5648C27.1184 25.416 27.499 26.1959 27.9478 26.9326C28.9702 28.6079 30.2588 30.0422 31.6571 31.3738C31.7716 31.4833 31.9079 31.5758 32.0539 31.6462C32.2 31.7223 32.346 31.7223 32.4971 31.6571C32.643 31.5919 32.7736 31.4991 32.8833 31.3787C33.3685 30.877 33.8481 30.3746 34.3074 29.8561C34.9542 29.1194 35.5702 28.3615 36.1284 27.5485C36.6348 26.8119 37.0884 26.037 37.422 25.1968C37.7555 24.3617 37.9177 23.5003 37.8082 22.5946C37.6256 21.1001 37.0154 19.8338 35.9248 18.8409C34.6353 17.6688 33.1332 17.1995 31.4429 17.4609C28.6936 17.887 26.7005 20.4188 26.7111 23.2611Z" fill="url(#paint0_radial_243_107)"/>
<path d="M40.9406 43.6316C40.5946 43.6421 40.206 43.5993 39.8176 43.5168C38.6683 43.2652 37.6922 42.7427 36.9421 41.8163C36.4859 41.2514 36.1023 40.6392 35.7717 39.9953C35.3831 39.2366 35.0583 38.4462 34.7752 37.646C34.4291 36.6782 34.1353 35.6891 33.9091 34.6895C33.7835 34.1295 33.9247 33.7786 34.5441 33.5857C35.3309 33.3399 36.1235 33.1201 36.9315 32.9418C38.2692 32.6487 39.6176 32.4607 40.9929 32.507C41.3815 32.5226 41.7692 32.5643 42.1527 32.6323C43.2652 32.8262 44.2095 33.339 44.9807 34.1498C46.2981 35.5312 46.822 37.1795 46.4972 39.0584C46.0303 41.7431 43.6479 43.6528 40.9406 43.6316Z" fill="url(#paint1_radial_243_107)"/>
<path d="M23.6111 43.6316C23.9572 43.6421 24.3457 43.5993 24.7342 43.5168C25.8834 43.2652 26.8595 42.7427 27.6097 41.8163C28.0659 41.2514 28.4494 40.6392 28.78 39.9953C29.1687 39.2366 29.4934 38.4462 29.7766 37.646C30.1226 36.6782 30.4165 35.6891 30.6426 34.6895C30.7683 34.1295 30.6271 33.7786 30.0077 33.5857C29.2209 33.3399 28.4282 33.1201 27.6202 32.9418C26.2825 32.6487 24.9341 32.4607 23.5588 32.507C23.1703 32.5226 22.7826 32.5643 22.399 32.6323C21.2866 32.8262 20.3423 33.339 19.5711 34.1498C18.2537 35.5312 17.7297 37.1795 18.0546 39.0584C18.5214 41.7431 20.9039 43.6528 23.6111 43.6316Z" fill="url(#paint2_radial_243_107)"/>
<defs>
<radialGradient id="paint0_radial_243_107" cx="0" cy="0" r="1" gradientUnits="userSpaceOnUse" gradientTransform="translate(32.3833 30.9627) rotate(4.82254) scale(5.91299 10.9302)">
<stop stop-color="white"/>
<stop offset="1" stop-color="white"/>
</radialGradient>
<radialGradient id="paint1_radial_243_107" cx="0" cy="0" r="1" gradientUnits="userSpaceOnUse" gradientTransform="translate(33.929 34.3474) rotate(21.7759) scale(13.0393 6.96792)">
<stop stop-color="white"/>
<stop offset="1" stop-color="white"/>
</radialGradient>
<radialGradient id="paint2_radial_243_107" cx="0" cy="0" r="1" gradientUnits="userSpaceOnUse" gradientTransform="translate(30.5536 33.8749) rotate(146.321) scale(13.1772 5.98972)">
<stop stop-color="white"/>
<stop offset="1" stop-color="white"/>
</radialGradient>
</defs>
</svg>
