<svg width="70" height="29" viewBox="0 0 70 29" fill="none" xmlns="http://www.w3.org/2000/svg">
<rect width="70" height="28.2569" fill="#9EB5C8"/>
<path fill-rule="evenodd" clip-rule="evenodd" d="M12.1105 2.20215V20.33C10.1824 20.6941 9.17039 20.8375 7.63512 20.8375C3.0365 20.8332 0.642578 18.7804 0.642578 14.8398C0.642578 11.0425 3.18128 8.5783 7.1162 8.5783C7.72687 8.5783 8.19132 8.6256 8.75468 8.77038V2.20215H12.1105ZM8.75468 11.7664C8.31316 11.623 7.95049 11.5743 7.48461 11.5743C5.58094 11.5743 4.48002 12.734 4.48002 14.7681C4.48002 16.7477 5.5322 17.84 7.46024 17.84C7.87738 17.84 8.21569 17.8171 8.75468 17.744V11.7664Z" fill="white"/>
<path fill-rule="evenodd" clip-rule="evenodd" d="M17.8434 8.00189V17.4887C17.8434 20.4646 17.6213 22.1103 16.9662 23.3431C16.3555 24.5286 15.5513 25.2768 13.8899 26.1025L10.3965 24.4554C12.0579 23.6828 12.8635 23.0005 13.3767 21.9583C13.9143 20.8932 14.0848 19.444 14.0848 16.2V7.99902H17.8434V8.00189Z" fill="white"/>
<path d="M17.8421 2.20215H14.082V6.0912H17.8421V2.20215Z" fill="white"/>
<path fill-rule="evenodd" clip-rule="evenodd" d="M20.3301 9.19138C21.9585 8.4001 23.5167 8.05176 25.2154 8.05176C27.109 8.05176 28.3533 8.57211 28.9037 9.58989C29.2119 10.159 29.3123 10.9001 29.3123 12.487V20.2378C27.6609 20.483 25.5766 20.6593 24.0471 20.6593C20.9565 20.6593 19.5703 19.544 19.5703 17.0684C19.5703 14.3906 21.4123 13.1535 25.9364 12.7593V11.9207C25.9364 11.2284 25.5996 10.9775 24.6692 10.9775C23.3074 10.9775 21.7736 11.376 20.3344 12.1415L20.3301 9.19138ZM26.1027 15.2565C23.6629 15.5016 22.8702 15.9001 22.8702 16.8921C22.8702 17.6346 23.326 17.983 24.3324 17.983C24.8828 17.983 25.386 17.9342 26.1027 17.8109V15.2565Z" fill="white"/>
<path fill-rule="evenodd" clip-rule="evenodd" d="M31.3457 8.92951C33.5246 8.32601 35.3193 8.05078 37.1384 8.05078C39.0278 8.05078 40.3967 8.5052 41.2081 9.38392C41.9707 10.2125 42.2144 11.1213 42.2144 13.0579V20.6597H38.5246V13.2128C38.5246 11.7248 38.0444 11.1715 36.7299 11.1715C36.2267 11.1715 35.7709 11.2217 35.0298 11.451V20.6612H31.3457V8.92951Z" fill="white"/>
<path fill-rule="evenodd" clip-rule="evenodd" d="M43.9022 22.2796C45.2195 22.9762 46.5383 23.2973 47.9331 23.2973C50.4002 23.2973 51.4509 22.6193 51.4509 20.1781V20.1035C50.7198 20.4734 49.9816 20.6282 49.0082 20.6282C45.7084 20.6282 43.6484 18.4106 43.6484 14.8985C43.6484 10.5364 46.7175 8.07227 52.2121 8.07227C53.8262 8.07227 55.3184 8.24572 57.1246 8.62129L55.8359 11.3879C54.8339 11.1901 55.7542 11.3578 54.9988 11.2847V11.6847L55.0475 13.3045L55.0719 15.3988C55.0963 15.9235 55.0963 16.4453 55.1206 16.9699V18.0164C55.1206 21.3062 54.8483 22.5046 54.0441 23.779C52.8715 25.6454 50.8417 26.57 47.9575 26.57C46.4896 26.57 45.2195 26.3478 43.9022 25.8231V22.2796ZM51.3778 11.1629H51.2559H50.9836C50.2525 11.1385 49.3953 11.3363 48.8076 11.7119C47.9073 12.2351 47.4414 13.1841 47.4414 14.5273C47.4414 16.4438 48.3718 17.5404 50.0332 17.5404C50.5464 17.5404 50.9635 17.4415 51.448 17.2939V17.0172V15.9708C51.448 15.5207 51.4237 15.0218 51.4237 14.4986L51.3993 12.7297L51.3749 11.4596V11.1629H51.3778Z" fill="white"/>
<path fill-rule="evenodd" clip-rule="evenodd" d="M63.0922 8.00195C67.0386 8.00195 69.4483 10.3815 69.4483 14.2348C69.4483 18.1854 66.9368 20.6611 62.9345 20.6611C58.9838 20.6611 56.5469 18.2829 56.5469 14.4541C56.554 10.479 59.0655 8.00195 63.0922 8.00195ZM63.0105 17.6149C64.5257 17.6149 65.4202 16.4137 65.4202 14.3265C65.4202 12.2637 64.55 11.0381 63.0363 11.0381C61.4695 11.0381 60.5735 12.2393 60.5735 14.3265C60.575 16.4137 61.4752 17.6149 63.0105 17.6149Z" fill="white"/>
</svg>
