<svg width="60" height="60" viewBox="0 0 60 60" fill="none" xmlns="http://www.w3.org/2000/svg">
<path d="M16.9377 59.799C16.1932 59.5355 15.0745 58.4817 14.6824 57.6744C14.5054 57.3099 14.3237 56.6908 14.2786 56.2986C14.0794 54.5641 15.2439 52.6579 16.8596 52.0737C17.2909 51.9177 17.2909 51.9177 17.2909 50.7844C17.2909 49.6512 17.2909 49.6512 18.6953 48.2141C20.0151 46.8634 20.0996 46.7458 20.0996 46.2596C20.0996 45.7423 20.0996 45.7423 18.7894 45.6938C17.1959 45.6348 16.3715 45.2919 15.4468 44.3033C14.5721 43.3682 14.3158 42.7058 14.2512 41.2131C14.1973 39.9684 14.1973 39.9684 13.6007 39.9684C13.0107 39.9684 12.9888 39.9838 11.6156 41.3727C10.227 42.777 10.227 42.777 9.16897 42.777C8.11093 42.777 8.11093 42.777 7.861 43.342C7.50473 44.1474 6.65622 45.0124 5.81906 45.4235C5.2143 45.7205 4.93508 45.7772 4.0775 45.7772C3.15759 45.7772 2.9765 45.734 2.25376 45.3421C0.768153 44.5365 -0.000412428 43.268 0.00350896 41.628C0.00649124 40.3808 0.420539 39.4782 1.4007 38.5824C3.39675 36.7582 6.41852 37.2981 7.70328 39.7085C8.11395 40.479 8.11395 40.479 8.77889 40.479C9.44383 40.479 9.44383 40.479 10.8438 39.0747C12.2438 37.6704 12.2438 37.6704 13.2354 37.6704C14.2269 37.6704 14.2269 37.6704 14.2269 34.4787C14.2269 31.2871 14.2269 31.2871 12.6505 31.2871C11.0741 31.2871 11.0741 31.2871 10.8392 31.8081C10.3736 32.8404 8.9725 33.7127 7.77981 33.7127C5.96114 33.7127 4.26723 32.0229 4.26971 30.2111C4.27277 27.9815 6.3443 26.2446 8.45939 26.6982C9.37629 26.8948 10.2504 27.5243 10.7161 28.3234C11.0991 28.9806 11.0991 28.9806 12.663 28.9848C14.2269 28.9891 14.2269 28.9891 14.2269 25.8613C14.2269 22.7335 14.2269 22.7335 13.4569 22.7335C13.0333 22.7335 12.5019 22.6533 12.2759 22.5554C12.05 22.4574 11.2917 21.7968 10.5909 21.0872C9.33894 19.8198 9.30618 19.7971 8.72277 19.7971C8.13118 19.7971 8.12767 19.7997 7.79218 20.4855C7.08658 21.9276 5.73819 22.7783 4.13898 22.7902C3.30305 22.7964 3.06863 22.7429 2.32308 22.376C0.831152 21.6418 0.00823709 20.3209 0.000168092 18.6474C-0.00365934 17.8537 0.0562357 17.5651 0.348946 16.9669C1.09789 15.4361 2.47474 14.5273 4.06627 14.5133C4.86 14.5064 5.10783 14.5636 5.83657 14.9224C6.75842 15.3762 7.41222 16.0353 7.83708 16.9392C8.10029 17.4992 8.10029 17.4992 9.14105 17.4992C10.1818 17.4992 10.1818 17.4992 11.6683 18.9673C13.0766 20.3583 13.1822 20.4355 13.6771 20.4355C14.1994 20.4355 14.1994 20.4355 14.2456 18.9992C14.286 17.7446 14.3364 17.4722 14.6439 16.8449C15.0613 15.9937 16.0412 15.0346 16.8802 14.6561C17.3292 14.4535 17.8154 14.3709 18.791 14.3314C20.0996 14.2785 20.0996 14.2785 20.0996 13.747C20.0996 13.2568 20.0291 13.1464 19.1921 12.3253C18.6929 11.8356 18.061 11.157 17.7877 10.8171C17.3016 10.2126 17.2909 10.1768 17.2905 9.15748C17.29 8.1157 17.29 8.1157 16.7318 7.88621C15.8624 7.52871 15.1782 6.85982 14.7111 5.91046C14.3467 5.17011 14.2912 4.92813 14.294 4.0927C14.2966 3.30299 14.361 2.99852 14.6507 2.40643C15.0916 1.50524 16.133 0.533089 16.9803 0.231696C18.4307 -0.284264 20.1438 0.0806552 21.2242 1.13571C22.1706 2.05997 22.4614 2.7704 22.4614 4.15806C22.4614 5.19271 22.4238 5.375 22.0832 5.98985C21.6455 6.78001 20.6624 7.71498 20.028 7.94438C19.5997 8.09926 19.5889 8.12051 19.5889 8.80951C19.5889 9.51586 19.5889 9.51586 20.9604 10.8916C22.332 12.2674 22.332 12.2674 22.3783 13.2875C22.4246 14.3075 22.4246 14.3075 25.5389 14.3075C28.6532 14.3075 28.6532 14.3075 28.6532 12.7272C28.6532 11.1468 28.6532 11.1468 28.2692 10.9878C28.058 10.9003 27.6503 10.6007 27.3631 10.322C25.6317 8.64171 26.1089 5.76968 28.301 4.67731C29.9885 3.83638 32.1486 4.60318 32.9471 6.32657C33.3684 7.2359 33.439 7.90033 33.2013 8.71792C32.9293 9.65379 32.3534 10.4084 31.59 10.8294C30.9549 11.1797 30.9549 11.1797 30.953 12.7436C30.9512 14.3075 30.9512 14.3075 34.079 14.3075C37.2068 14.3075 37.2068 14.3075 37.2068 13.4713C37.2068 12.9924 37.2848 12.4879 37.3893 12.2904C37.4896 12.1008 38.1503 11.3723 38.8574 10.6714C40.1283 9.41183 40.1431 9.39015 40.1431 8.789C40.1431 8.19402 40.1308 8.17504 39.5729 7.91282C38.7117 7.50796 37.9018 6.72462 37.5012 5.90892C37.1993 5.29403 37.143 5.01888 37.1431 4.15806C37.1432 2.92105 37.5248 1.97916 38.3505 1.17784C39.2277 0.326534 39.8886 0.0727451 41.2283 0.0727451C42.1861 0.0727451 42.4819 0.124216 43.0058 0.382068C43.8449 0.795046 44.5637 1.53724 44.9755 2.41568C45.4249 3.37449 45.4517 4.87016 45.0358 5.77631C44.6511 6.61459 43.8508 7.43466 43.0208 7.84106C42.3135 8.18741 42.3135 8.18741 42.3135 9.28823C42.3135 10.3891 42.3135 10.3891 40.9091 11.8124C39.5834 13.1561 39.5048 13.265 39.5048 13.7572C39.5048 14.2785 39.5048 14.2785 40.815 14.327C41.9171 14.3678 42.2366 14.43 42.8266 14.7187C43.7418 15.1665 44.5657 15.9858 44.9806 16.8608C45.2656 17.4617 45.3198 17.7701 45.3565 18.9992C45.3994 20.4355 45.3994 20.4355 45.929 20.4355C46.4333 20.4355 46.5274 20.3668 47.8988 18.9992C49.339 17.563 49.339 17.563 50.4574 17.5194C51.5758 17.4759 51.5758 17.4759 51.802 16.9289C52.1566 16.0717 52.8301 15.384 53.767 14.9228C54.4833 14.5702 54.7524 14.5064 55.517 14.5081C57.1354 14.5116 58.5606 15.4456 59.2733 16.9696C59.5436 17.5476 59.6107 17.8812 59.6114 18.6508C59.6121 19.4783 59.5545 19.7282 59.1947 20.4591C58.4442 21.9836 57.1228 22.8069 55.4631 22.784C54.4259 22.7697 53.9315 22.604 53.0805 21.9853C52.4965 21.5608 51.8232 20.6651 51.6904 20.1359C51.6122 19.8241 51.553 19.7971 50.9466 19.7971C50.2878 19.7971 50.2878 19.7971 49.0135 21.0828C48.3127 21.79 47.5841 22.4506 47.3945 22.551C47.1971 22.6555 46.6926 22.7335 46.2136 22.7335C45.3775 22.7335 45.3775 22.7335 45.3775 25.8613C45.3775 28.9891 45.3775 28.9891 46.9578 28.9891C48.5381 28.9891 48.5381 28.9891 48.6972 28.6051C48.9342 28.0329 49.7908 27.212 50.4641 26.9118C51.8721 26.284 53.6313 26.7575 54.5865 28.0213C55.7641 29.5793 55.5341 31.5905 54.0312 32.8769C52.404 34.2696 49.8232 33.7706 48.8139 31.868C48.5057 31.2871 48.5057 31.2871 46.9416 31.2871C45.3775 31.2871 45.3775 31.2871 45.3775 34.4787C45.3775 37.6704 45.3775 37.6704 46.4076 37.6704C47.4377 37.6704 47.4377 37.6704 48.7891 39.0747C50.1405 40.479 50.1405 40.479 50.8549 40.4786C51.5693 40.478 51.5693 40.478 51.8062 39.9018C52.0951 39.1993 52.9484 38.2968 53.6731 37.9271C55.7141 36.8858 58.2766 37.8194 59.2765 39.9684C59.5347 40.5234 59.6038 40.8725 59.606 41.6341C59.6085 42.4683 59.5526 42.7119 59.1903 43.448C58.7339 44.375 58.0908 45.012 57.1401 45.4789C56.2355 45.9231 54.7529 45.8986 53.7853 45.4235C52.9482 45.0124 52.0997 44.1474 51.7434 43.342C51.4935 42.777 51.4935 42.777 50.4585 42.777C49.4236 42.777 49.4236 42.777 48.0002 41.3727C46.5954 39.9867 46.569 39.9684 45.9771 39.9684C45.3775 39.9684 45.3775 39.9684 45.3775 41.0487C45.3775 42.4528 45.0665 43.304 44.2118 44.2391C43.2529 45.2883 42.4471 45.6334 40.815 45.6938C39.5048 45.7423 39.5048 45.7423 39.5048 46.2596C39.5048 46.7458 39.5893 46.8634 40.9091 48.2141C42.3135 49.6512 42.3135 49.6512 42.3135 50.7456C42.3135 51.84 42.3135 51.84 42.8837 52.108C43.7404 52.5107 44.5131 53.2595 44.9335 54.0944C45.2555 54.7339 45.3099 54.9884 45.3115 55.8628C45.3138 57.0955 44.9522 57.9891 44.1136 58.823C43.2422 59.6896 42.5793 59.9481 41.2283 59.9481C40.2705 59.9481 39.9747 59.8966 39.4508 59.6388C38.6498 59.2445 37.9497 58.5438 37.5002 57.6864C37.1947 57.1035 37.1465 56.8643 37.146 55.9266C37.1457 55.0853 37.2072 54.7073 37.4201 54.2445C37.8074 53.4026 38.6482 52.5411 39.4547 52.1595C40.1431 51.8338 40.1431 51.8338 40.1431 51.2288C40.1431 50.6315 40.1265 50.6072 38.8574 49.3494C38.1503 48.6486 37.4896 47.92 37.3893 47.7304C37.2848 47.533 37.2068 47.0284 37.2068 46.5495C37.2068 45.7133 37.2068 45.7133 34.079 45.7133C30.9512 45.7133 30.9512 45.7133 30.9512 47.2775C30.9512 48.8416 30.9512 48.8416 31.5314 49.1494C33.0304 49.9446 33.7251 51.9588 33.0345 53.5074C31.739 56.4124 27.8654 56.4124 26.5699 53.5074C25.8793 51.9588 26.574 49.9446 28.073 49.1494C28.6532 48.8416 28.6532 48.8416 28.6532 47.2775C28.6532 45.7133 28.6532 45.7133 25.5389 45.7133C22.4246 45.7133 22.4246 45.7133 22.3783 46.7334C22.332 47.7534 22.332 47.7534 20.9604 49.1292C19.5889 50.505 19.5889 50.505 19.5889 51.2271C19.5889 51.9378 19.5959 51.9515 20.0313 52.0952C20.7015 52.3163 21.6979 53.2866 22.1039 54.1134C22.4116 54.74 22.461 54.9927 22.4583 55.9266C22.4557 56.8131 22.3981 57.1286 22.1437 57.6501C21.708 58.5434 20.7677 59.424 19.9048 59.7469C19.0598 60.063 17.7488 60.086 16.9377 59.799ZM19.4231 57.4638C20.5726 56.7629 20.4858 54.7887 19.2804 54.2167C18.359 53.7795 17.2988 54.0845 16.7796 54.936C16.284 55.7488 16.5539 56.9332 17.3548 57.4602C17.867 57.7973 18.8732 57.7991 19.4231 57.4638ZM42.2529 57.4566C43.3853 56.7568 43.3314 54.9974 42.1551 54.2587C41.6342 53.9316 40.6098 53.972 40.1066 54.3394C39.0981 55.0756 39.14 56.8289 40.1813 57.4638C40.7318 57.7995 41.7035 57.7961 42.2529 57.4566ZM30.7422 52.9599C31.0531 52.629 31.0976 52.4962 31.0402 52.0686C30.9362 51.2929 30.6923 51.1069 29.8024 51.1243C28.909 51.1418 28.6638 51.3262 28.5662 52.0534C28.5106 52.468 28.5578 52.626 28.8357 52.9563C29.3807 53.604 30.1354 53.6054 30.7422 52.9599ZM4.89846 43.3561C5.56865 43.0095 5.92866 42.4446 5.92866 41.7396C5.92866 40.5615 5.24787 39.8183 4.15372 39.8018C3.03865 39.7849 2.22579 40.5814 2.22682 41.6899C2.22807 43.0311 3.72342 43.9637 4.89846 43.3561ZM56.4536 43.2884C58.0676 42.3043 57.4128 39.7965 55.5425 39.7988C54.8697 39.7997 54.2448 40.1252 53.9184 40.6448C53.5838 41.1774 53.6308 42.3722 54.0027 42.7905C54.6799 43.5522 55.6859 43.7565 56.4536 43.2884ZM42.0183 43.2039C42.2634 43.0876 42.6168 42.7615 42.8036 42.4791C43.1433 41.9658 43.1433 41.9658 43.1433 30.0197C43.1433 18.0737 43.1433 18.0736 42.8432 17.5909C42.6781 17.3254 42.3213 16.9951 42.0504 16.8569C41.5707 16.6121 41.2459 16.6055 29.7754 16.6076C17.9931 16.6097 17.9931 16.6097 17.4937 16.8948C17.1987 17.0633 16.8852 17.389 16.7277 17.6907C16.4639 18.1959 16.4607 18.3229 16.4257 29.6274C16.4022 37.2021 16.4351 41.2629 16.5232 41.6747C16.6872 42.4406 17.0256 42.9327 17.5741 43.203C17.9508 43.3887 19.1839 43.4098 29.7829 43.4124C40.4965 43.4151 41.6134 43.396 42.0183 43.2039ZM8.49975 31.1707C8.75249 30.9661 8.80354 30.802 8.81598 30.1537C8.83447 29.1907 8.60527 28.9253 7.75536 28.9253C6.9936 28.9253 6.56699 29.382 6.56699 30.1977C6.56699 30.6619 6.63188 30.8083 6.95978 31.0842C7.43367 31.483 8.06992 31.5187 8.49975 31.1707ZM52.6446 31.0842C52.975 30.8062 53.0374 30.6634 53.0374 30.1848C53.0374 29.1701 52.1288 28.5984 51.2577 29.0651C50.8146 29.3024 50.8028 29.3286 50.7867 30.1092C50.772 30.8224 50.8053 30.9373 51.0912 31.1623C51.5427 31.5174 52.1671 31.486 52.6446 31.0842ZM4.89846 20.3762C5.57891 20.0244 5.92871 19.4665 5.92818 18.7341C5.92734 17.5612 5.23337 16.8117 4.14819 16.8117C3.03442 16.8117 2.2258 17.6106 2.22682 18.71C2.22807 20.0513 3.72342 20.9839 4.89846 20.3762ZM56.4536 20.3085C57.318 19.7815 57.6202 18.6821 57.1544 17.7588C56.8582 17.1715 56.2131 16.8117 55.4562 16.8117C54.7607 16.8117 54.2903 17.0728 53.9179 17.6657C53.5838 18.1976 53.6311 19.3926 54.0027 19.8106C54.6799 20.5723 55.6859 20.7766 56.4536 20.3085ZM30.765 8.67585C30.8782 8.56263 31.0016 8.24044 31.0392 7.95988C31.0977 7.52395 31.0532 7.38889 30.7337 7.03124C30.4192 6.67931 30.271 6.61273 29.8022 6.61273C29.3334 6.61273 29.1852 6.67931 28.8707 7.03124C28.5529 7.38693 28.5069 7.52519 28.5642 7.95222C28.6682 8.7279 28.9121 8.91398 29.802 8.89654C30.3124 8.88654 30.6263 8.81461 30.765 8.67585ZM19.6852 5.46186C20.0898 5.05723 20.152 4.91031 20.1938 4.26029C20.2309 3.68144 20.1853 3.43048 19.9846 3.11101C19.6535 2.58387 19.0664 2.28562 18.36 2.28562C16.6288 2.28562 15.8751 4.39407 17.1831 5.57805C17.6049 5.95993 17.7754 6.00809 18.5448 5.96283C19.1287 5.92848 19.289 5.85805 19.6852 5.46186ZM42.1551 5.75457C43.0273 5.22274 43.3271 4.10659 42.8416 3.19857C42.2084 2.01426 40.3406 1.9635 39.6198 3.11101C39.2264 3.73732 39.3307 4.8544 39.8321 5.38428C40.0383 5.60215 40.3219 5.82825 40.4623 5.88672C40.9244 6.07913 41.7253 6.01661 42.1551 5.75457Z" fill="white"/>
<path d="M26.9264 33.352L22.3064 31.468C21.8744 31.292 21.6584 30.984 21.6584 30.544C21.6584 30.328 21.7104 30.148 21.8144 30.004C21.9264 29.852 22.0904 29.732 22.3064 29.644L26.9264 27.748C27.0864 27.684 27.2264 27.676 27.3464 27.724C27.4744 27.764 27.5744 27.836 27.6464 27.94C27.7264 28.044 27.7704 28.164 27.7784 28.3C27.7864 28.428 27.7584 28.552 27.6944 28.672C27.6304 28.784 27.5224 28.872 27.3704 28.936L22.2224 31V30.112L27.3704 32.188C27.5224 32.252 27.6304 32.344 27.6944 32.464C27.7584 32.576 27.7864 32.696 27.7784 32.824C27.7704 32.952 27.7264 33.068 27.6464 33.172C27.5744 33.276 27.4744 33.348 27.3464 33.388C27.2264 33.428 27.0864 33.416 26.9264 33.352ZM29.3097 34.312C29.2537 34.488 29.1617 34.616 29.0337 34.696C28.9137 34.776 28.7777 34.816 28.6257 34.816C28.4817 34.816 28.3497 34.776 28.2297 34.696C28.1097 34.624 28.0217 34.52 27.9657 34.384C27.9097 34.248 27.9137 34.084 27.9777 33.892L30.6897 25.432C30.7457 25.256 30.8377 25.128 30.9657 25.048C31.0937 24.96 31.2257 24.92 31.3617 24.928C31.5057 24.928 31.6377 24.968 31.7577 25.048C31.8857 25.12 31.9777 25.224 32.0337 25.36C32.0897 25.488 32.0857 25.648 32.0217 25.84L29.3097 34.312ZM33.0903 33.352C32.9303 33.416 32.7863 33.428 32.6583 33.388C32.5303 33.348 32.4303 33.276 32.3583 33.172C32.2863 33.068 32.2423 32.952 32.2263 32.824C32.2183 32.696 32.2463 32.576 32.3103 32.464C32.3823 32.344 32.4943 32.252 32.6463 32.188L37.7943 30.112V31L32.6463 28.936C32.4943 28.872 32.3823 28.784 32.3103 28.672C32.2463 28.552 32.2183 28.428 32.2263 28.3C32.2423 28.164 32.2863 28.044 32.3583 27.94C32.4303 27.836 32.5303 27.764 32.6583 27.724C32.7863 27.676 32.9303 27.684 33.0903 27.748L37.7103 29.644C38.1423 29.82 38.3583 30.12 38.3583 30.544C38.3583 30.76 38.3023 30.944 38.1903 31.096C38.0863 31.248 37.9263 31.372 37.7103 31.468L33.0903 33.352Z" fill="white"/>
</svg>
