<svg width="78" height="78" viewBox="0 0 78 78" fill="none" xmlns="http://www.w3.org/2000/svg">
<path d="M76.3148 35.4249L42.3527 1.4669C40.3986 -0.488967 37.2267 -0.488967 35.2701 1.4669L28.2183 8.51944L37.1633 17.4645C39.2428 16.7624 41.6264 17.2331 43.2832 18.8903C44.9486 20.5578 45.416 22.9617 44.6963 25.0481L53.3177 33.6696C55.4035 32.9508 57.8101 33.4152 59.4756 35.0836C61.8041 37.4114 61.8041 41.1834 59.4756 43.5119C57.1467 45.841 53.3748 45.841 51.0446 43.5119C49.2938 41.7597 48.8607 39.1871 49.7475 37.0299L41.7071 28.9895L41.7064 50.1478C42.2741 50.4288 42.8098 50.8039 43.2829 51.2749C45.6107 53.6025 45.6107 57.3738 43.2829 59.7052C40.9544 62.0327 37.1807 62.0327 34.8546 59.7052C32.5265 57.374 32.5265 53.6027 34.8546 51.2749C35.43 50.7006 36.0958 50.2659 36.8061 49.9745V28.6195C36.0954 28.3294 35.4304 27.8979 34.8542 27.3189C33.0907 25.5568 32.666 22.9686 33.5704 20.8031L24.7524 11.9837L1.46736 35.268C-0.489121 37.2253 -0.489121 40.3973 1.46736 42.3533L35.4274 76.3113C37.3826 78.2672 40.5535 78.2672 42.5114 76.3113L76.3144 42.5137C78.2703 40.5569 78.2703 37.384 76.3144 35.4277" fill="white"/>
</svg>
