<svg width="65" height="65" viewBox="0 0 65 65" fill="none" xmlns="http://www.w3.org/2000/svg">
<path d="M0 65V0H65V65H0Z" fill="white"/>
<path d="M42.4995 48.6541C43.7489 50.6835 45.1067 52.6281 47.983 52.6281C50.3988 52.6281 51.6663 51.4274 51.6663 49.7663C51.6663 47.7784 50.3554 47.0724 47.6977 45.9151L46.2406 45.294C42.0354 43.5101 39.2386 41.2748 39.2386 36.5533C39.2386 32.2019 42.5699 28.8905 47.7753 28.8905C51.4821 28.8905 54.1453 30.1742 56.0664 33.5362L51.5273 36.4377C50.5288 34.6538 49.4491 33.9515 47.7753 33.9515C46.0673 33.9515 44.9857 35.0294 44.9857 36.4377C44.9857 38.1783 46.0691 38.8824 48.5698 39.9603L50.0268 40.5814C54.9831 42.6921 57.7781 44.848 57.7781 49.6941C57.7781 54.9158 53.6542 57.7776 48.1184 57.7776C42.7035 57.7776 39.6286 55.0602 37.917 51.6964L42.4995 48.6541ZM21.5803 48.8021C22.4939 50.438 23.8824 51.6964 25.8793 51.6964C27.7896 51.6964 28.8892 50.9417 28.8892 48.0077V28.8887H34.9071V48.9321C34.9071 55.0115 31.3809 57.7776 26.2314 57.7776C21.5785 57.7776 18.2202 54.6251 16.8516 51.6964L21.5803 48.8021Z" fill="#9EB5C8"/>
</svg>
