<svg width="80" height="80" viewBox="0 0 80 80" fill="none" xmlns="http://www.w3.org/2000/svg">
<path d="M79.4413 68.0414C79.4413 68.8995 78.811 69.4756 78.0649 69.4756V69.4704C77.2976 69.4756 76.6789 68.8995 76.6789 68.0414C76.6789 67.1835 77.2976 66.609 78.0649 66.609C78.811 66.609 79.4413 67.1835 79.4413 68.0414ZM79.9997 68.0414C79.9997 66.8635 79.0849 66.1797 78.0649 66.1797C77.0381 66.1797 76.123 66.8635 76.123 68.0414C76.123 69.2187 77.0381 69.9052 78.0649 69.9052C79.0849 69.9052 79.9997 69.2187 79.9997 68.0414ZM77.7439 68.1989H77.9511L78.4314 69.0418H78.9585L78.4268 68.1634C78.7015 68.1438 78.9276 68.013 78.9276 67.6431C78.9276 67.1835 78.611 67.0358 78.074 67.0358H77.2976V69.0418H77.7439V68.1989ZM77.7439 67.8593V67.3763H78.0544C78.2233 67.3763 78.4534 67.3897 78.4534 67.596C78.4534 67.8202 78.3344 67.8593 78.1352 67.8593H77.7439Z" fill="white"/>
<path d="M66.9705 57.78L69.3828 64.3794H64.4835L66.9705 57.78ZM64.3867 55.2104L58.8278 69.2953H62.7533L63.6326 66.8068H70.2116L71.0437 69.2953H75.3053L69.7046 55.2085L64.3867 55.2104ZM53.226 69.3008H57.2087V55.206L53.2253 55.2051L53.226 69.3008ZM25.5773 55.2051L22.2544 66.3763L19.0714 55.206L14.7741 55.2051L19.3202 69.3008H25.0578L29.6405 55.2051H25.5773ZM41.676 58.2744H43.3877C45.8711 58.2744 47.4769 59.3895 47.4769 62.2828C47.4769 65.1768 45.8711 66.2919 43.3877 66.2919H41.676V58.2744ZM37.7266 55.2051V69.3008H44.1835C47.6235 69.3008 48.7466 68.729 49.9612 67.4459C50.8191 66.5452 51.3741 64.5688 51.3741 62.408C51.3741 60.4261 50.9045 58.6595 50.0857 57.5587C48.6105 55.59 46.4854 55.2051 43.314 55.2051H37.7266ZM0 55.1855V69.3008H4.01627V58.583L7.12831 58.5839C8.15875 58.5839 8.89328 58.8407 9.3895 59.3708C10.0189 60.0412 10.2759 61.1233 10.2759 63.1025V69.3008H14.1677V61.502C14.1677 55.936 10.62 55.1855 7.14879 55.1855H0ZM31.3167 55.2051L31.3183 69.3008H35.2992V55.2051H31.3167Z" fill="white"/>
<path d="M10.7044 27.1388C10.7044 27.1388 15.8268 19.5811 26.0545 18.7995V16.0573C14.726 16.9671 4.91602 26.5618 4.91602 26.5618C4.91602 26.5618 10.4722 42.6241 26.0545 44.0948V41.1803C14.6192 39.7415 10.7044 27.1388 10.7044 27.1388ZM26.0545 35.384V38.053C17.4121 36.5123 15.0132 27.5283 15.0132 27.5283C15.0132 27.5283 19.1628 22.9315 26.0545 22.1862V25.115C26.0492 25.115 26.0456 25.1134 26.0413 25.1134C22.4241 24.6794 19.5984 28.0582 19.5984 28.0582C19.5984 28.0582 21.182 33.7469 26.0545 35.384ZM26.0545 11V16.0573C26.387 16.0316 26.7196 16.0102 27.054 15.9988C39.9332 15.5647 48.325 26.5618 48.325 26.5618C48.325 26.5618 38.6868 38.2816 28.6455 38.2816C27.7252 38.2816 26.8637 38.1962 26.0545 38.053V41.1803C26.7464 41.2682 27.4639 41.3199 28.2126 41.3199C37.5566 41.3199 44.314 36.5478 50.8572 30.8998C51.9421 31.7686 56.3834 33.8821 57.2964 34.8076C51.0751 40.0163 36.5758 44.215 28.3557 44.215C27.5634 44.215 26.8024 44.167 26.0545 44.0948V48.489H61.5707V11H26.0545ZM26.0545 22.1862V18.7995C26.3836 18.7765 26.7153 18.7587 27.054 18.748C36.3154 18.4571 42.3918 26.7068 42.3918 26.7068C42.3918 26.7068 35.829 35.8214 28.7923 35.8214C27.7796 35.8214 26.8716 35.6587 26.0545 35.384V25.115C29.66 25.5507 30.3857 27.1434 32.5533 30.7569L37.3743 26.6915C37.3743 26.6915 33.8551 22.0761 27.9226 22.0761C27.2773 22.0761 26.6602 22.1214 26.0545 22.1862Z" fill="white"/>
</svg>
