<svg width="55" height="54" viewBox="0 0 55 54" fill="none" xmlns="http://www.w3.org/2000/svg">
<path d="M9.73958 0H45.2604C50.6458 0 55 4.35417 55 9.73958V43.8854C55 49.2708 50.6458 53.625 45.2604 53.625H9.73958C4.35417 53.625 0 49.2708 0 43.8854V9.73958C0 4.35417 4.35417 0 9.73958 0Z" fill="#9EB5C8"/>
<path d="M12.377 37.6046V14.0234C12.377 13.863 12.4457 13.7713 12.6061 13.7713C12.9957 13.7713 13.3624 13.7713 13.8895 13.7484C14.4395 13.7255 15.0124 13.7255 15.6311 13.7025C16.2499 13.6796 16.9145 13.6796 17.6249 13.6567C18.3353 13.6338 19.0228 13.6338 19.7103 13.6338C21.5895 13.6338 23.1478 13.863 24.4311 14.3442C25.577 14.7338 26.6311 15.3755 27.502 16.2234C28.2353 16.9567 28.8082 17.8505 29.1749 18.8359C29.5186 19.7984 29.702 20.7838 29.702 21.815C29.702 23.7859 29.2436 25.413 28.327 26.6963C27.4103 27.9796 26.127 28.9421 24.6374 29.4921C23.079 30.065 21.3603 30.2713 19.4811 30.2713C18.9311 30.2713 18.5645 30.2713 18.3353 30.2484C18.1061 30.2255 17.7853 30.2255 17.3499 30.2255V37.5817C17.3728 37.7421 17.2582 37.8796 17.0978 37.9025C17.0749 37.9025 17.052 37.9025 17.0061 37.9025H12.652C12.4686 37.9025 12.377 37.8109 12.377 37.6046ZM17.3728 18.1942V25.8942C17.6936 25.9171 17.9915 25.94 18.2665 25.94H19.4811C20.3749 25.94 21.2686 25.8025 22.1165 25.5275C22.8499 25.3213 23.4915 24.8859 23.9957 24.313C24.477 23.74 24.7061 22.9609 24.7061 21.9525C24.729 21.2421 24.5457 20.5317 24.179 19.913C23.7895 19.3171 23.2395 18.8588 22.5749 18.6067C21.727 18.263 20.8103 18.1255 19.8707 18.1484C19.2749 18.1484 18.7478 18.1484 18.3124 18.1713C17.854 18.1484 17.5332 18.1713 17.3728 18.1942Z" fill="white"/>
<path d="M44.0032 24.4956C43.3157 24.1289 42.5823 23.8768 41.8032 23.7164C40.9553 23.5331 40.1073 23.4185 39.2365 23.4185C38.7782 23.3956 38.2969 23.4643 37.8615 23.5789C37.5636 23.6477 37.3115 23.8081 37.1511 24.0372C37.0365 24.2206 36.9678 24.4497 36.9678 24.656C36.9678 24.8622 37.0594 25.0685 37.1969 25.2518C37.4032 25.5039 37.6782 25.7102 37.9761 25.8706C38.5032 26.1456 39.0532 26.3977 39.6032 26.6268C40.8407 27.0393 42.0323 27.6122 43.1323 28.2997C43.8886 28.781 44.5073 29.4227 44.9428 30.2018C45.3094 30.9352 45.4928 31.7372 45.4698 32.5622C45.4928 33.6393 45.1719 34.7164 44.5761 35.6102C43.9344 36.5268 43.0407 37.2372 42.0094 37.6497C40.8865 38.131 39.5115 38.3831 37.8615 38.3831C36.8073 38.3831 35.7761 38.2914 34.7448 38.0852C33.9428 37.9477 33.1407 37.6956 32.4073 37.3518C32.2469 37.2602 32.1323 37.0997 32.1553 36.9164V32.9289C32.1553 32.8602 32.1782 32.7685 32.2469 32.7227C32.3157 32.6768 32.3844 32.6997 32.4532 32.7456C33.3469 33.2727 34.2865 33.6393 35.2948 33.8685C36.1657 34.0977 37.0823 34.2122 37.999 34.2122C38.8698 34.2122 39.4886 34.0977 39.9011 33.8914C40.2678 33.731 40.5198 33.3414 40.5198 32.9289C40.5198 32.6081 40.3365 32.3102 39.9698 32.0122C39.6032 31.7143 38.8469 31.3706 37.724 30.9352C36.5553 30.5227 35.4782 29.9727 34.4698 29.2852C33.7594 28.781 33.1636 28.1164 32.7282 27.3372C32.3615 26.6039 32.1782 25.8018 32.2011 24.9997C32.2011 24.0143 32.4761 23.0747 32.9803 22.2268C33.5532 21.3102 34.4011 20.5768 35.3865 20.1185C36.4636 19.5685 37.8157 19.3164 39.4428 19.3164C40.3823 19.3164 41.3448 19.3852 42.2844 19.5227C42.9719 19.6143 43.6365 19.7977 44.2553 20.0497C44.3469 20.0727 44.4386 20.1643 44.4844 20.256C44.5073 20.3477 44.5303 20.4393 44.5303 20.531V24.2664C44.5303 24.3581 44.4844 24.4497 44.4157 24.4956C44.2094 24.5414 44.0948 24.5414 44.0032 24.4956Z" fill="white"/>
</svg>
