<svg width="70" height="40" viewBox="0 0 70 40" fill="none" xmlns="http://www.w3.org/2000/svg">
<path d="M35 37.1875C17.2156 37.1875 2.1875 29.1725 2.1875 19.6875C2.1875 10.2025 17.2156 2.1875 35 2.1875C52.7844 2.1875 67.8125 10.2025 67.8125 19.6875C67.8125 29.1725 52.7844 37.1875 35 37.1875Z" fill="white"/>
<path d="M35 4.375C53.0469 4.375 65.625 12.4469 65.625 19.6875C65.625 26.9281 53.0469 35 35 35C16.9531 35 4.375 26.9281 4.375 19.6875C4.375 12.4469 16.9531 4.375 35 4.375ZM35 0C15.6712 0 0 8.81563 0 19.6875C0 30.5594 15.6712 39.375 35 39.375C54.3288 39.375 70 30.5594 70 19.6875C70 8.81563 54.3288 0 35 0Z" fill="#9EB5C8"/>
<path d="M19.7967 17.5C20.8161 17.5 21.5423 17.8325 21.7873 18.1431C21.8311 18.2 21.9492 18.3487 21.8267 18.865C21.4417 20.4794 21.1136 21.875 16.3142 21.875H15.8986L16.7211 17.5H19.7967ZM19.7967 13.125H13.0898L9.80859 30.625H14.0873L14.9098 26.25H16.3142C21.8092 26.25 24.968 24.5831 26.0836 19.8756C27.0461 15.8331 23.8523 13.125 19.7967 13.125ZM54.7967 17.5C55.8161 17.5 56.5423 17.8325 56.7873 18.1431C56.8311 18.2 56.9492 18.3487 56.8267 18.865C56.4417 20.4794 56.1136 21.875 51.3142 21.875H50.903L51.7255 17.5H54.7967ZM54.7967 13.125H48.0855L44.8042 30.625H49.083L49.9055 26.25H51.3098C56.8048 26.25 59.9636 24.5831 61.0792 19.8756C62.0461 15.8331 58.8523 13.125 54.7967 13.125Z" fill="#36404D"/>
<path d="M42.3891 14.1838C41.5622 13.4313 40.1097 13.125 37.9441 13.125H35.1922L36.3209 8.75H31.9153L28.2578 26.25H32.7159L34.4222 17.5H35.1922H37.9441C38.2459 17.5 38.5041 17.5088 38.7184 17.5175L37.0472 26.25H41.5972L43.1197 17.8237C43.4434 16.1525 43.1984 14.9275 42.3891 14.1838Z" fill="#36404D"/>
</svg>
