<svg width="70" height="71" viewBox="0 0 70 71" fill="none" xmlns="http://www.w3.org/2000/svg">
<path d="M34.5833 0.000578878C31.6969 0.0139905 28.9404 0.260157 26.515 0.689326C19.3701 1.95159 18.0729 4.5936 18.0729 9.46593V15.9008H34.9572V18.0458H18.0729H11.7364C6.82932 18.0458 2.53258 20.9951 1.18861 26.6059C-0.361637 33.0371 -0.430399 37.0503 1.18861 43.7655C2.38881 48.7641 5.25503 52.3257 10.1621 52.3257H15.9673V44.6117C15.9673 39.0388 20.7891 34.1231 26.515 34.1231H43.3796C48.0741 34.1231 51.8218 30.2578 51.8218 25.5433V9.46593C51.8218 4.89023 47.9616 1.45299 43.3796 0.689326C40.4792 0.20651 37.4697 -0.0128329 34.5833 0.000578878ZM25.4524 5.17602C27.1964 5.17602 28.6206 6.62351 28.6206 8.40329C28.6206 10.1768 27.1964 11.6109 25.4524 11.6109C23.7021 11.6109 22.2841 10.1768 22.2841 8.40329C22.2841 6.62351 23.7021 5.17602 25.4524 5.17602Z" fill="#9EB5C8"/>
<path d="M53.9268 18.0449V25.5424C53.9268 31.3551 48.9987 36.2475 43.379 36.2475H26.5144C21.8949 36.2475 18.0723 40.2012 18.0723 44.8274V60.9047C18.0723 65.4804 22.0512 68.1718 26.5144 69.4845C31.859 71.056 36.9842 71.34 43.379 69.4845C47.6297 68.2538 51.8211 65.777 51.8211 60.9047V54.4698H34.9565V52.3249H51.8211H60.2633C65.1703 52.3249 66.9989 48.9021 68.7054 43.7647C70.4682 38.4758 70.3932 33.3897 68.7054 26.6051C67.4927 21.7201 65.1766 18.0449 60.2633 18.0449H53.9268ZM44.4416 58.7597C46.1919 58.7597 47.6099 60.1938 47.6099 61.9673C47.6099 63.7471 46.1919 65.1946 44.4416 65.1946C42.6976 65.1946 41.2734 63.7471 41.2734 61.9673C41.2734 60.1938 42.6976 58.7597 44.4416 58.7597Z" fill="white"/>
</svg>
