<svg width="72" height="70" viewBox="0 0 72 70" fill="none" xmlns="http://www.w3.org/2000/svg">
<path d="M36.1146 47.6439C54.4032 47.6439 69.2291 41.9831 69.2291 35.0002C69.2291 28.0172 54.4032 22.3564 36.1146 22.3564C17.8259 22.3564 3 28.0172 3 35.0002C3 41.9831 17.8259 47.6439 36.1146 47.6439Z" stroke="white" stroke-width="5"/>
<path d="M36.1147 41.1718C39.5231 41.1718 42.2861 38.4088 42.2861 35.0005C42.2861 31.5921 39.5231 28.8291 36.1147 28.8291C32.7064 28.8291 29.9434 31.5921 29.9434 35.0005C29.9434 38.4088 32.7064 41.1718 36.1147 41.1718Z" fill="white"/>
<path d="M25.1655 41.3218C34.3098 57.1602 46.6252 67.1694 52.6726 63.678C58.72 60.1865 56.2094 44.5165 47.0651 28.678C37.9208 12.8396 25.6054 2.8304 19.558 6.32187C13.5106 9.81334 16.0212 25.4833 25.1655 41.3218Z" stroke="white" stroke-width="5"/>
<path d="M25.1662 28.6779C16.0218 44.5163 13.5113 60.1863 19.5587 63.6778C25.6061 67.1692 37.9214 57.16 47.0658 41.3216C56.2101 25.4832 58.7207 9.81316 52.6732 6.32169C46.6258 2.83021 34.3105 12.8394 25.1662 28.6779Z" stroke="white" stroke-width="5"/>
</svg>
