<svg width="91" height="95" viewBox="0 0 91 95" fill="none" xmlns="http://www.w3.org/2000/svg">
<g filter="url(#filter0_d_243_83)">
<path d="M34.641 9.99902V19.9996L51.9609 30.0001V19.9996L34.641 9.99902ZM0 19.9996V30.0001L8.65998 34.9993V24.9998L0 19.9996ZM25.9799 24.9998L17.32 30.0001V59.9996L25.9799 64.9999V44.9998L34.641 50.0001V39.9996L25.9799 34.9993V24.9998Z" fill="#748899"/>
<path d="M34.6411 9.99902L8.66016 24.9998V34.9993L25.9801 24.9998V34.9993L34.6411 30.0001V9.99902ZM60.6221 14.9993L51.9611 19.9996V30.0001L60.6221 24.9998V14.9993ZM43.3011 34.9993L34.6411 39.9996V50.0001L43.3011 44.9998V34.9993ZM34.6411 50.0001L25.9801 44.9998V64.9999L34.6411 59.9996V50.0001Z" fill="#9EB5C8"/>
<path d="M34.641 0L0 20L8.65998 25.0003L34.641 9.99949L51.9609 20L60.6219 14.9998L34.641 0ZM34.641 30.0005L25.9799 34.9998L34.641 40L43.3009 34.9998L34.641 30.0005Z" fill="white"/>
</g>
<defs>
<filter id="filter0_d_243_83" x="0" y="0" width="90.623" height="95" filterUnits="userSpaceOnUse" color-interpolation-filters="sRGB">
<feFlood flood-opacity="0" result="BackgroundImageFix"/>
<feColorMatrix in="SourceAlpha" type="matrix" values="0 0 0 0 0 0 0 0 0 0 0 0 0 0 0 0 0 0 127 0" result="hardAlpha"/>
<feOffset dx="20" dy="20"/>
<feGaussianBlur stdDeviation="5"/>
<feComposite in2="hardAlpha" operator="out"/>
<feColorMatrix type="matrix" values="0 0 0 0 0 0 0 0 0 0 0 0 0 0 0 0 0 0 0.25 0"/>
<feBlend mode="normal" in2="BackgroundImageFix" result="effect1_dropShadow_243_83"/>
<feBlend mode="normal" in="SourceGraphic" in2="effect1_dropShadow_243_83" result="shape"/>
</filter>
</defs>
</svg>
