<svg width="130" height="87" viewBox="0 0 130 87" fill="none" xmlns="http://www.w3.org/2000/svg">
<g filter="url(#filter0_d_157_68)">
<path d="M50.222 53.0377C25.1792 53.0377 4.01758 41.7515 4.01758 28.3953C4.01758 15.0391 25.1792 3.75293 50.222 3.75293C75.2648 3.75293 96.4264 15.0391 96.4264 28.3953C96.4264 41.7515 75.2648 53.0377 50.222 53.0377Z" fill="#DCD5F2"/>
<path d="M50.2222 6.83344C75.6347 6.83344 93.3464 18.1997 93.3464 28.3955C93.3464 38.5913 75.6347 49.9576 50.2222 49.9576C24.8098 49.9576 7.09809 38.5913 7.09809 28.3955C7.09809 18.1997 24.8098 6.83344 50.2222 6.83344ZM50.2222 0.672852C23.0047 0.672852 0.9375 13.0864 0.9375 28.3955C0.9375 43.7046 23.0047 56.1182 50.2222 56.1182C77.4397 56.1182 99.507 43.7046 99.507 28.3955C99.507 13.0864 77.4397 0.672852 50.2222 0.672852Z" fill="#8B75A1"/>
<path d="M28.8146 25.3149C30.25 25.3149 31.2727 25.7831 31.6177 26.2205C31.6793 26.3006 31.8456 26.51 31.6731 27.237C31.131 29.5102 30.669 31.4755 23.9108 31.4755H23.3255L24.4837 25.3149H28.8146ZM28.8146 19.1543H19.3704L14.75 43.7967H20.7751L21.9332 37.6361H23.9108C31.6485 37.6361 36.0964 35.2889 37.6674 28.6601C39.0227 22.9677 34.5255 19.1543 28.8146 19.1543ZM78.0994 25.3149C79.5348 25.3149 80.5574 25.7831 80.9024 26.2205C80.964 26.3006 81.1304 26.51 80.9579 27.237C80.4157 29.5102 79.9537 31.4755 73.1955 31.4755H72.6164L73.7746 25.3149H78.0994ZM78.0994 19.1543H68.649L64.0286 43.7967H70.0536L71.2118 37.6361H73.1894C80.9271 37.6361 85.375 35.2889 86.946 28.6601C88.3075 22.9677 83.8102 19.1543 78.0994 19.1543Z" fill="#36404D"/>
<path d="M60.6272 20.6456C59.4629 19.586 57.4176 19.1547 54.3681 19.1547H50.493L52.0825 12.9941H45.8788L40.7285 37.6365H47.0062L49.4088 25.3153H50.493H54.3681C54.7931 25.3153 55.1566 25.3276 55.4585 25.34L53.1051 37.6365H59.5122L61.656 25.7712C62.1119 23.4179 61.7669 21.6929 60.6272 20.6456Z" fill="#36404D"/>
</g>
<defs>
<filter id="filter0_d_157_68" x="0.9375" y="0.672852" width="128.57" height="85.4453" filterUnits="userSpaceOnUse" color-interpolation-filters="sRGB">
<feFlood flood-opacity="0" result="BackgroundImageFix"/>
<feColorMatrix in="SourceAlpha" type="matrix" values="0 0 0 0 0 0 0 0 0 0 0 0 0 0 0 0 0 0 127 0" result="hardAlpha"/>
<feOffset dx="20" dy="20"/>
<feGaussianBlur stdDeviation="5"/>
<feComposite in2="hardAlpha" operator="out"/>
<feColorMatrix type="matrix" values="0 0 0 0 0 0 0 0 0 0 0 0 0 0 0 0 0 0 0.25 0"/>
<feBlend mode="normal" in2="BackgroundImageFix" result="effect1_dropShadow_157_68"/>
<feBlend mode="normal" in="SourceGraphic" in2="effect1_dropShadow_157_68" result="shape"/>
</filter>
</defs>
</svg>
