<svg width="103" height="110" viewBox="0 0 103 110" fill="none" xmlns="http://www.w3.org/2000/svg">
<g filter="url(#filter0_d_157_73)">
<path fill-rule="evenodd" clip-rule="evenodd" d="M34.5795 1.33284C35.8601 0.614314 37.4367 0.614314 38.7153 1.33284C45.0425 4.88398 64.0825 15.5732 70.4115 19.1244C71.692 19.841 72.4803 21.1687 72.4803 22.6057C72.4803 29.708 72.4803 51.0846 72.4803 58.1869C72.4803 59.6239 71.692 60.9516 70.4115 61.6701C64.0843 65.2212 45.0444 75.9105 38.7153 79.4616C37.4348 80.1801 35.8582 80.1801 34.5795 79.4616C28.2524 75.9105 9.2124 65.2212 2.88335 61.6701C1.60471 60.9516 0.816406 59.6258 0.816406 58.1887C0.816406 51.0865 0.816406 29.7099 0.816406 22.6076C0.816406 21.1706 1.60471 19.8429 2.88523 19.1244C9.21052 15.5732 28.2543 4.88398 34.5795 1.33284Z" fill="#00549D"/>
<path fill-rule="evenodd" clip-rule="evenodd" d="M1.38972 60.0171C0.88807 59.3457 0.816406 58.7083 0.816406 57.8502C0.816406 50.7894 0.816406 29.5354 0.816406 22.4727C0.816406 21.0432 1.60282 19.7231 2.87957 19.0103C9.18411 15.4799 28.16 4.85285 34.4645 1.32057C35.7413 0.60582 37.4706 0.620907 38.7474 1.33566C45.0519 4.86605 63.9636 15.4025 70.2682 18.9329C70.7774 19.2196 71.1659 19.5647 71.5129 20.0192L1.38972 60.0171Z" fill="#0086D4"/>
<path fill-rule="evenodd" clip-rule="evenodd" d="M36.6486 13.9941C51.2209 13.9941 63.0511 25.8243 63.0511 40.3966C63.0511 54.9689 51.2209 66.7991 36.6486 66.7991C22.0763 66.7991 10.2461 54.9689 10.2461 40.3966C10.2461 25.8243 22.0763 13.9941 36.6486 13.9941ZM36.6486 27.1954C43.9338 27.1954 49.8498 33.1096 49.8498 40.3966C49.8498 47.6819 43.9338 53.5979 36.6486 53.5979C29.3634 53.5979 23.4473 47.6819 23.4473 40.3966C23.4473 33.1096 29.3615 27.1954 36.6486 27.1954Z" fill="white"/>
<path fill-rule="evenodd" clip-rule="evenodd" d="M71.5092 20.0381C72.4823 20.949 72.4634 22.3219 72.4634 23.4025C72.4634 30.5595 72.4031 50.9158 72.4804 58.0728C72.4879 58.8196 72.2409 59.606 71.8712 60.1982L35.8809 40.3963L71.5092 20.0381Z" fill="#0075C0"/>
<path fill-rule="evenodd" clip-rule="evenodd" d="M49.8496 34.7383H53.6214V46.0536H49.8496V34.7383ZM63.0509 34.7383H66.8226V46.0536H63.0509V34.7383Z" fill="white"/>
<path fill-rule="evenodd" clip-rule="evenodd" d="M46.0762 38.5107H57.3915V42.2825H46.0762V38.5107ZM59.2774 38.5107H70.5928V42.2825H59.2774V38.5107Z" fill="white"/>
</g>
<defs>
<filter id="filter0_d_157_73" x="0.816406" y="0.791992" width="101.664" height="109.209" filterUnits="userSpaceOnUse" color-interpolation-filters="sRGB">
<feFlood flood-opacity="0" result="BackgroundImageFix"/>
<feColorMatrix in="SourceAlpha" type="matrix" values="0 0 0 0 0 0 0 0 0 0 0 0 0 0 0 0 0 0 127 0" result="hardAlpha"/>
<feOffset dx="20" dy="20"/>
<feGaussianBlur stdDeviation="5"/>
<feComposite in2="hardAlpha" operator="out"/>
<feColorMatrix type="matrix" values="0 0 0 0 0 0 0 0 0 0 0 0 0 0 0 0 0 0 0.25 0"/>
<feBlend mode="normal" in2="BackgroundImageFix" result="effect1_dropShadow_157_73"/>
<feBlend mode="normal" in="SourceGraphic" in2="effect1_dropShadow_157_73" result="shape"/>
</filter>
</defs>
</svg>
