<svg width="118" height="66" viewBox="0 0 118 66" fill="none" xmlns="http://www.w3.org/2000/svg">
<g filter="url(#filter0_d_157_87)">
<rect x="0.0585938" y="0.349609" width="87.0065" height="35.1219" fill="#004D40"/>
<path fill-rule="evenodd" clip-rule="evenodd" d="M15.1114 3.08691V25.619C12.715 26.0715 11.4571 26.2497 9.54881 26.2497C3.83295 26.2443 0.857422 23.6929 0.857422 18.7948C0.857422 14.075 4.0129 11.0121 8.90381 11.0121C9.66284 11.0121 10.2401 11.0709 10.9404 11.2509V3.08691H15.1114ZM10.9404 14.9748C10.3916 14.7966 9.94079 14.736 9.36172 14.736C6.99556 14.736 5.62717 16.1774 5.62717 18.7058C5.62717 21.1664 6.93498 22.524 9.33144 22.524C9.84993 22.524 10.2704 22.4955 10.9404 22.4047V14.9748Z" fill="white"/>
<path fill-rule="evenodd" clip-rule="evenodd" d="M22.2367 10.2956V22.0872C22.2367 25.7861 21.9605 27.8316 21.1462 29.3639C20.3872 30.8374 19.3876 31.7675 17.3226 32.7937L12.9805 30.7465C15.0455 29.7861 16.0469 28.938 16.6847 27.6427C17.3529 26.3189 17.5649 24.5175 17.5649 20.4854V10.292H22.2367V10.2956Z" fill="white"/>
<path d="M22.236 3.08691H17.5625V7.92081H22.236V3.08691Z" fill="white"/>
<path fill-rule="evenodd" clip-rule="evenodd" d="M25.3271 11.7739C27.3512 10.7904 29.288 10.3574 31.3994 10.3574C33.753 10.3574 35.2996 11.0042 35.9838 12.2692C36.3669 12.9766 36.4916 13.8978 36.4916 15.8702V25.5041C34.439 25.8088 31.8484 26.0279 29.9472 26.0279C26.1058 26.0279 24.3828 24.6417 24.3828 21.5646C24.3828 18.2363 26.6724 16.6987 32.2956 16.2087V15.1664C32.2956 14.3058 31.8769 13.994 30.7205 13.994C29.0278 13.994 27.1214 14.4893 25.3325 15.4408L25.3271 11.7739ZM32.5023 19.3125C29.4697 19.6172 28.4844 20.1125 28.4844 21.3455C28.4844 22.2684 29.051 22.7014 30.3018 22.7014C30.986 22.7014 31.6114 22.6408 32.5023 22.4876V19.3125Z" fill="white"/>
<path fill-rule="evenodd" clip-rule="evenodd" d="M39.0195 11.4487C41.7278 10.6985 43.9585 10.3564 46.2196 10.3564C48.5679 10.3564 50.2695 10.9213 51.278 12.0135C52.2259 13.0433 52.5288 14.173 52.5288 16.5801V26.0287H47.9425V16.7725C47.9425 14.9231 47.3457 14.2353 45.7118 14.2353C45.0864 14.2353 44.5198 14.2977 43.5986 14.5828V26.0305H39.0195V11.4487Z" fill="white"/>
<path fill-rule="evenodd" clip-rule="evenodd" d="M54.6259 28.0418C56.2633 28.9077 57.9026 29.3068 59.6362 29.3068C62.7026 29.3068 64.0086 28.464 64.0086 25.4297V25.3371C63.0999 25.7968 62.1823 25.9892 60.9725 25.9892C56.8709 25.9892 54.3105 23.2328 54.3105 18.8675C54.3105 13.4456 58.1253 10.3828 64.9547 10.3828C66.961 10.3828 68.8158 10.5984 71.0608 11.0652L69.459 14.504C68.2136 14.2581 69.3574 14.4666 68.4185 14.3757V14.8728L68.479 16.8862L68.5093 19.4893C68.5396 20.1415 68.5396 20.79 68.5699 21.4422V22.7428C68.5699 26.832 68.2314 28.3215 67.2318 29.9055C65.7743 32.2253 63.2514 33.3745 59.6665 33.3745C57.842 33.3745 56.2633 33.0984 54.6259 32.4463V28.0418ZM63.9178 14.2243H63.7663H63.4278C62.5191 14.194 61.4536 14.4399 60.7231 14.9067C59.6041 15.557 59.0251 16.7365 59.0251 18.406C59.0251 20.7882 60.1814 22.1513 62.2465 22.1513C62.8843 22.1513 63.4028 22.0283 64.0051 21.8448V21.5009V20.2003C64.0051 19.6408 63.9748 19.0207 63.9748 18.3704L63.9445 16.1717L63.9142 14.5931V14.2243H63.9178Z" fill="white"/>
<path fill-rule="evenodd" clip-rule="evenodd" d="M78.4792 10.2959C83.3844 10.2959 86.3795 13.2536 86.3795 18.043C86.3795 22.9535 83.2579 26.0306 78.2832 26.0306C73.3727 26.0306 70.3438 23.0746 70.3438 18.3156C70.3527 13.3748 73.4743 10.2959 78.4792 10.2959ZM78.3777 22.2443C80.261 22.2443 81.3728 20.7512 81.3728 18.157C81.3728 15.593 80.2913 14.0696 78.4097 14.0696C76.4623 14.0696 75.3487 15.5628 75.3487 18.157C75.3505 20.7512 76.4694 22.2443 78.3777 22.2443Z" fill="white"/>
</g>
<defs>
<filter id="filter0_d_157_87" x="0.0585938" y="0.349609" width="117.006" height="65.1221" filterUnits="userSpaceOnUse" color-interpolation-filters="sRGB">
<feFlood flood-opacity="0" result="BackgroundImageFix"/>
<feColorMatrix in="SourceAlpha" type="matrix" values="0 0 0 0 0 0 0 0 0 0 0 0 0 0 0 0 0 0 127 0" result="hardAlpha"/>
<feOffset dx="20" dy="20"/>
<feGaussianBlur stdDeviation="5"/>
<feComposite in2="hardAlpha" operator="out"/>
<feColorMatrix type="matrix" values="0 0 0 0 0 0 0 0 0 0 0 0 0 0 0 0 0 0 0.25 0"/>
<feBlend mode="normal" in2="BackgroundImageFix" result="effect1_dropShadow_157_87"/>
<feBlend mode="normal" in="SourceGraphic" in2="effect1_dropShadow_157_87" result="shape"/>
</filter>
</defs>
</svg>
