<svg width="101" height="109" viewBox="0 0 101 109" fill="none" xmlns="http://www.w3.org/2000/svg">
<g filter="url(#filter0_d_157_510)">
<path d="M28.6595 2.14355L28.2623 2.38381C27.6305 2.766 27.0353 3.19332 26.4799 3.66024L27.6256 2.85437H37.3495L39.1172 16.2399L30.2785 25.0787L21.4397 31.2223V38.3066C21.4397 43.2546 24.0257 47.8428 28.2586 50.405L37.5636 56.0372L17.9041 67.5052H14.1125L7.04546 63.2276C2.81255 60.6654 0.226562 56.0772 0.226562 51.1292V27.3071C0.226562 22.3576 2.81419 17.7681 7.04926 15.2064L28.2623 2.37511C28.3939 2.2956 28.5263 2.21842 28.6595 2.14355Z" fill="url(#paint0_radial_157_510)"/>
<path d="M28.6595 2.14355L28.2623 2.38381C27.6305 2.766 27.0353 3.19332 26.4799 3.66024L27.6256 2.85437H37.3495L39.1172 16.2399L30.2785 25.0787L21.4397 31.2223V38.3066C21.4397 43.2546 24.0257 47.8428 28.2586 50.405L37.5636 56.0372L17.9041 67.5052H14.1125L7.04546 63.2276C2.81255 60.6654 0.226562 56.0772 0.226562 51.1292V27.3071C0.226562 22.3576 2.81419 17.7681 7.04926 15.2064L28.2623 2.37511C28.3939 2.2956 28.5263 2.21842 28.6595 2.14355Z" fill="url(#paint1_linear_157_510)"/>
<path d="M49.7238 30.3828V38.3029C49.7238 43.2509 47.1377 47.8391 42.9048 50.4013L21.6917 63.2416C17.3522 65.8683 11.953 65.963 7.53711 63.526L28.2584 76.0688C32.7602 78.7938 38.4029 78.7938 42.9048 76.0688L64.1179 63.2283C68.3508 60.6661 70.9367 56.0779 70.9367 51.1299V45.4088L69.169 42.7571L49.7238 30.3828Z" fill="url(#paint2_radial_157_510)"/>
<path d="M49.7238 30.3828V38.3029C49.7238 43.2509 47.1377 47.8391 42.9048 50.4013L21.6917 63.2416C17.3522 65.8683 11.953 65.963 7.53711 63.526L28.2584 76.0688C32.7602 78.7938 38.4029 78.7938 42.9048 76.0688L64.1179 63.2283C68.3508 60.6661 70.9367 56.0779 70.9367 51.1299V45.4088L69.169 42.7571L49.7238 30.3828Z" fill="url(#paint3_linear_157_510)"/>
<path d="M64.114 15.2067L42.9009 2.37544C38.5404 -0.26218 33.1104 -0.343886 28.6836 2.1303L28.2621 2.38522C24.0271 4.94691 21.4395 9.53626 21.4395 14.4859V31.2511L28.2621 27.1241C32.7621 24.4023 38.4009 24.4023 42.9009 27.1241L64.114 39.9554C68.2166 42.4371 70.7733 46.8215 70.9291 51.5929C70.9342 51.4387 70.9367 51.2844 70.9367 51.1295V27.3074C70.9367 22.3579 68.349 17.7684 64.114 15.2067Z" fill="url(#paint4_radial_157_510)"/>
<path d="M64.114 15.2067L42.9009 2.37544C38.5404 -0.26218 33.1104 -0.343886 28.6836 2.1303L28.2621 2.38522C24.0271 4.94691 21.4395 9.53626 21.4395 14.4859V31.2511L28.2621 27.1241C32.7621 24.4023 38.4009 24.4023 42.9009 27.1241L64.114 39.9554C68.2166 42.4371 70.7733 46.8215 70.9291 51.5929C70.9342 51.4387 70.9367 51.2844 70.9367 51.1295V27.3074C70.9367 22.3579 68.349 17.7684 64.114 15.2067Z" fill="url(#paint5_linear_157_510)"/>
</g>
<defs>
<filter id="filter0_d_157_510" x="0.226562" y="0.333984" width="100.711" height="107.778" filterUnits="userSpaceOnUse" color-interpolation-filters="sRGB">
<feFlood flood-opacity="0" result="BackgroundImageFix"/>
<feColorMatrix in="SourceAlpha" type="matrix" values="0 0 0 0 0 0 0 0 0 0 0 0 0 0 0 0 0 0 127 0" result="hardAlpha"/>
<feOffset dx="20" dy="20"/>
<feGaussianBlur stdDeviation="5"/>
<feComposite in2="hardAlpha" operator="out"/>
<feColorMatrix type="matrix" values="0 0 0 0 0 0 0 0 0 0 0 0 0 0 0 0 0 0 0.25 0"/>
<feBlend mode="normal" in2="BackgroundImageFix" result="effect1_dropShadow_157_510"/>
<feBlend mode="normal" in="SourceGraphic" in2="effect1_dropShadow_157_510" result="shape"/>
</filter>
<radialGradient id="paint0_radial_157_510" cx="0" cy="0" r="1" gradientUnits="userSpaceOnUse" gradientTransform="translate(23.9474 15.6005) rotate(110.528) scale(58.9825 102.878)">
<stop offset="0.06441" stop-color="#AE7FE2"/>
<stop offset="1" stop-color="#0078D4"/>
</radialGradient>
<linearGradient id="paint1_linear_157_510" x1="24.1123" y1="63.7369" x2="15.6968" y2="49.1815" gradientUnits="userSpaceOnUse">
<stop stop-color="#114A8B"/>
<stop offset="1" stop-color="#0078D4" stop-opacity="0"/>
</linearGradient>
<radialGradient id="paint2_radial_157_510" cx="0" cy="0" r="1" gradientUnits="userSpaceOnUse" gradientTransform="translate(11.5931 61.0554) rotate(-8.36717) scale(54.8894 36.2581)">
<stop offset="0.133928" stop-color="#D59DFF"/>
<stop offset="1" stop-color="#5E438F"/>
</radialGradient>
<linearGradient id="paint3_linear_157_510" x1="64.4962" y1="41.6555" x2="55.4782" y2="54.5863" gradientUnits="userSpaceOnUse">
<stop stop-color="#493474"/>
<stop offset="1" stop-color="#8C66BA" stop-opacity="0"/>
</linearGradient>
<radialGradient id="paint4_radial_157_510" cx="0" cy="0" r="1" gradientUnits="userSpaceOnUse" gradientTransform="translate(65.731 43.6477) rotate(-165.772) scale(44.0575 74.1667)">
<stop offset="0.0584996" stop-color="#50E6FF"/>
<stop offset="1" stop-color="#436DCD"/>
</radialGradient>
<linearGradient id="paint5_linear_157_510" x1="23.1644" y1="2.19826" x2="36.4421" y2="2.19826" gradientUnits="userSpaceOnUse">
<stop stop-color="#2D3F80"/>
<stop offset="1" stop-color="#436DCD" stop-opacity="0"/>
</linearGradient>
</defs>
</svg>
