<svg width="134" height="87" viewBox="0 0 134 87" fill="none" xmlns="http://www.w3.org/2000/svg">
<g filter="url(#filter0_d_157_62)">
<path d="M0.89295 52.2196H4.99986V37.0646L10.7046 50.0206C11.4084 51.6356 12.3709 52.2067 14.2597 52.2067C16.1484 52.2067 17.0725 51.6356 17.7762 50.0206L23.481 37.3962V52.2196H27.5879V36.6946C27.5879 35.2037 26.9954 34.4807 25.7719 34.1085C22.8478 33.1887 20.8842 33.9823 19.9965 35.9737L14.1463 49.1501L8.48004 35.9737C7.62872 33.9844 5.63087 33.1887 2.7047 34.1085C1.48118 34.4807 0.888672 35.2015 0.888672 36.6924V52.2174L0.89295 52.2196ZM29.6392 39.8988H33.7461V48.5725C33.714 49.0003 33.883 50.1362 35.8637 50.1661C36.8734 50.1832 41.8979 50.1661 41.9599 50.1661V39.8988H46.0669C46.084 39.8988 46.0669 52.6645 46.0669 52.7179C46.0882 55.8666 42.1567 56.273 40.3493 56.3265H29.6413V54.273C29.6627 54.273 39.8808 54.2751 39.9108 54.273C42.238 54.027 41.9621 52.7458 41.9621 52.3564V52.2196H35.5194C31.9472 52.1875 29.6691 50.6131 29.6435 48.8185C29.6392 48.6517 29.7205 39.9758 29.6392 39.8988Z" fill="url(#paint0_linear_157_62)"/>
<path d="M48.1217 52.2196H58.4039C59.7515 52.2196 61.0606 51.9372 62.1001 51.4495C63.8327 50.6538 64.5472 49.5779 64.5472 48.164V45.2378C64.5472 42.0806 60.6328 41.9523 58.3868 41.9523H54.2799C52.6649 41.9523 52.4189 40.9769 52.2264 39.8988V37.8454C52.4189 37.024 52.7783 35.9203 54.2007 35.7919C55.8542 35.7919 64.545 35.7919 64.545 35.7919V33.7385H54.7783C53.1633 33.7385 48.1174 33.931 48.1174 37.8454V40.3844C48.1174 42.1812 49.696 43.6443 53.1227 44.0036C53.5077 44.0293 53.8927 44.055 54.2756 44.055C54.2756 44.055 58.267 43.9779 58.3825 44.0036C60.6927 44.0036 60.436 45.8004 60.436 46.0571V48.1105C60.436 48.3929 60.3718 50.164 58.359 50.164C58.205 50.164 48.1152 50.164 48.1152 50.164V52.2196H48.1217ZM87.1352 48.025C87.1352 50.5041 88.5363 51.8945 92.2517 52.1725C92.5982 52.1961 92.9469 52.2174 93.2956 52.2174H103.563V50.164H94.0763C91.9565 50.164 91.2421 49.2742 91.2421 48.0014V33.7363H87.1352V48.025ZM66.5664 48.1127V37.8454C66.5664 35.6636 67.6359 34.1577 70.6648 33.7385H72.1022H79.4754H80.5984C83.6272 34.1577 85.0475 35.6614 85.0475 37.8454V48.0742C85.0475 49.8431 84.5876 50.7929 83.0882 51.4089L86.271 54.2709H81.6508L79.362 52.2174H76.6733L72.1043 52.2431C71.4434 52.2431 70.746 52.1511 69.9803 51.9415C67.683 51.3148 66.5664 50.1084 66.5664 48.1127ZM70.6733 48.1127C70.8829 49.1116 71.6851 50.1661 73.1118 50.1661H77.0989L74.8145 48.1127H79.4668L80.577 49.1437C80.577 49.1437 80.9748 48.8185 80.9748 48.1127C80.9748 47.4068 80.9406 37.8454 80.9406 37.8454C80.731 36.917 79.7898 35.7919 78.3994 35.7919H73.1139C71.5118 35.7919 70.6755 36.9641 70.6755 38.055L70.6733 48.1127Z" fill="url(#paint1_linear_157_62)"/>
<path d="M99.7081 31.5735C97.5028 31.5136 95.8194 31.7189 94.3798 32.3243C93.9713 32.4975 93.3189 32.5018 93.2504 33.0152C93.475 33.2505 93.5092 33.6034 93.6889 33.8922C94.0312 34.4483 94.613 35.1948 95.1306 35.5841C95.6975 36.0119 96.2814 36.4697 96.8868 36.8397C97.9648 37.4964 99.1691 37.8729 100.209 38.5317C100.82 38.9189 101.428 39.4108 102.027 39.8472C102.322 40.0654 102.519 40.4012 102.904 40.5381C102.904 40.5167 102.904 40.4974 102.904 40.4761C102.703 40.2194 102.649 39.8664 102.465 39.5969C102.194 39.3253 101.922 39.0536 101.65 38.782C100.855 37.7253 99.8407 36.7948 98.7669 36.0248C97.9092 35.4087 95.9905 34.5766 95.6311 33.5799C95.6098 33.5585 95.5905 33.5392 95.567 33.5157C96.1745 33.4472 96.8868 33.2269 97.4472 33.0772C98.3905 32.8248 99.2311 32.8911 100.204 32.6387C100.643 32.5125 101.081 32.3884 101.52 32.2622C101.52 32.1788 101.52 32.0954 101.52 32.012C101.028 31.5072 100.675 30.8398 100.14 30.382C98.7349 29.1863 97.2033 27.9928 95.6269 26.996C94.752 26.4441 93.6697 26.0847 92.7435 25.6163C92.4312 25.458 91.8836 25.3767 91.6782 25.1158C91.1905 24.4955 90.9275 23.7062 90.551 22.9853C89.7638 21.4709 88.9895 19.8153 88.2943 18.2217C87.8173 17.1351 87.5072 16.0613 86.9147 15.0859C84.0676 10.4058 81.0024 7.58011 76.2581 4.80366C75.2485 4.21329 74.0314 3.98014 72.7458 3.67426C72.0549 3.63362 71.3661 3.59084 70.6752 3.54806C70.2538 3.37052 69.8175 2.85716 69.4196 2.60689C67.8475 1.61225 63.8133 -0.548157 62.6496 2.29246C61.9138 4.08495 63.7491 5.83467 64.4058 6.74375C64.8657 7.38118 65.456 8.09561 65.7854 8.81432C66.0015 9.28491 66.04 9.75763 66.2239 10.256C66.6795 11.4838 67.4004 12.8827 67.9908 14.0185C68.2881 14.5939 68.6175 15.1971 68.994 15.7105C69.225 16.0249 69.6207 16.164 69.6849 16.6517C69.2977 17.1929 69.2763 18.0335 69.0581 18.7223C68.0785 21.8131 68.4485 25.6527 69.8731 27.9371C70.3095 28.6387 71.3405 30.1446 72.7565 29.5671C73.995 29.0623 73.7191 27.4986 74.072 26.119C74.1511 25.8067 74.1019 25.5778 74.2602 25.3682C74.2602 25.3896 74.2602 25.4088 74.2602 25.4323C74.6367 26.1831 75.011 26.9382 75.3896 27.689C76.226 29.0345 77.7083 30.4398 78.9618 31.3895C79.612 31.8815 80.1254 32.7328 80.9682 33.0194C80.9682 32.9981 80.9682 32.9788 80.9682 32.9553C80.9468 32.9553 80.9275 32.9553 80.904 32.9553C80.7415 32.7007 80.4848 32.5959 80.2773 32.3906C79.7875 31.9093 79.2399 31.3125 78.8356 30.7606C77.6934 29.2099 76.6837 27.5115 75.764 25.7446C75.3255 24.8997 74.9426 23.9714 74.5725 23.1115C74.4292 22.78 74.4313 22.2794 74.134 22.1083C73.7276 22.7372 73.133 23.2463 72.8185 23.9885C72.318 25.1757 72.2517 26.6259 72.0677 28.1254C71.9565 28.1639 72.0057 28.1382 71.9415 28.1874C71.0688 27.9756 70.7608 27.0794 70.4357 26.3072C69.6143 24.3564 69.4624 21.2163 70.1854 18.9725C70.3715 18.3907 71.2164 16.5618 70.8763 16.025C70.7137 15.4881 70.1747 15.1779 69.8752 14.7693C69.5009 14.2645 69.1309 13.5972 68.872 13.0132C68.2004 11.4924 67.563 9.7234 66.8549 8.18545C66.517 7.44963 65.9459 6.70739 65.4753 6.05499C64.9555 5.332 64.3715 4.79939 63.9694 3.92453C63.8261 3.61437 63.6314 3.11598 63.8432 2.79513C63.9117 2.57909 64.0058 2.48925 64.2197 2.41866C64.5833 2.13631 65.5951 2.51064 65.9758 2.66893C66.9812 3.08603 67.8196 3.48389 68.671 4.04859C69.0795 4.32025 69.4924 4.84431 69.9865 4.98976C70.1747 4.98976 70.3629 4.98976 70.5512 4.98976C71.4346 5.19297 72.4228 5.05393 73.2463 5.30419C74.7051 5.74697 76.0099 6.43574 77.195 7.18439C80.8099 9.46672 83.7639 12.7138 85.7853 16.5897C86.1104 17.2142 86.2516 17.8089 86.5361 18.4698C87.1136 19.8046 87.843 21.1778 88.4162 22.4826C88.9895 23.7853 89.5499 25.0987 90.3606 26.1831C90.7884 26.7521 92.4355 27.058 93.182 27.3746C93.706 27.597 94.5659 27.8259 95.0622 28.1254C96.0119 28.6986 96.9317 29.381 97.8194 30.0056C98.2728 30.32 99.6397 31.0066 99.7081 31.5735Z" fill="url(#paint2_linear_157_62)"/>
<path d="M71.6841 7.68932C71.2242 7.68076 70.8991 7.73852 70.5547 7.81552C70.5547 7.83691 70.5547 7.85616 70.5547 7.87969C70.5761 7.87969 70.5953 7.87969 70.6189 7.87969C70.8392 8.32889 71.2242 8.62193 71.4959 9.00909C71.7055 9.44759 71.913 9.88609 72.1226 10.3246C72.144 10.3032 72.1632 10.2839 72.1846 10.2626C72.5718 9.98876 72.7515 9.5524 72.7493 8.88289C72.5932 8.71819 72.5696 8.51284 72.4349 8.31819C72.2552 8.05509 71.9087 7.9075 71.6841 7.68932Z" fill="#00796B"/>
</g>
<defs>
<filter id="filter0_d_157_62" x="0.888672" y="0.880859" width="132.674" height="85.4453" filterUnits="userSpaceOnUse" color-interpolation-filters="sRGB">
<feFlood flood-opacity="0" result="BackgroundImageFix"/>
<feColorMatrix in="SourceAlpha" type="matrix" values="0 0 0 0 0 0 0 0 0 0 0 0 0 0 0 0 0 0 127 0" result="hardAlpha"/>
<feOffset dx="20" dy="20"/>
<feGaussianBlur stdDeviation="5"/>
<feComposite in2="hardAlpha" operator="out"/>
<feColorMatrix type="matrix" values="0 0 0 0 0 0 0 0 0 0 0 0 0 0 0 0 0 0 0.25 0"/>
<feBlend mode="normal" in2="BackgroundImageFix" result="effect1_dropShadow_157_62"/>
<feBlend mode="normal" in="SourceGraphic" in2="effect1_dropShadow_157_62" result="shape"/>
</filter>
<linearGradient id="paint0_linear_157_62" x1="21.851" y1="31.2465" x2="24.5911" y2="56.1938" gradientUnits="userSpaceOnUse">
<stop stop-color="#058F92"/>
<stop offset="0.5" stop-color="#038489"/>
<stop offset="1" stop-color="#026D71"/>
</linearGradient>
<linearGradient id="paint1_linear_157_62" x1="74.0957" y1="32.1192" x2="75.9717" y2="52.596" gradientUnits="userSpaceOnUse">
<stop stop-color="#FCC419"/>
<stop offset="0.813" stop-color="#FCC419"/>
</linearGradient>
<linearGradient id="paint2_linear_157_62" x1="75.8153" y1="2.32668" x2="87.2077" y2="34.4847" gradientUnits="userSpaceOnUse">
<stop stop-color="#058F92"/>
<stop offset="0.5" stop-color="#038489"/>
<stop offset="1" stop-color="#026D71"/>
</linearGradient>
</defs>
</svg>
