<svg width="110" height="109" viewBox="0 0 110 109" fill="none" xmlns="http://www.w3.org/2000/svg">
<g filter="url(#filter0_d_157_126)">
<path d="M14.1264 0.334961H65.6461C73.4572 0.334961 79.7725 6.65028 79.7725 14.4613V63.9868C79.7725 71.7978 73.4572 78.1132 65.6461 78.1132H14.1264C6.31532 78.1132 0 71.7978 0 63.9868V14.4613C0 6.65028 6.31532 0.334961 14.1264 0.334961Z" fill="#001E36"/>
<path d="M17.9512 54.8769V20.6744C17.9512 20.4418 18.0509 20.3088 18.2836 20.3088C18.8486 20.3088 19.3804 20.3088 20.1449 20.2756C20.9426 20.2423 21.7736 20.2423 22.671 20.2091C23.5685 20.1759 24.5324 20.1759 25.5628 20.1426C26.5932 20.1094 27.5904 20.1094 28.5875 20.1094C31.3131 20.1094 33.5733 20.4418 35.4346 21.1398C37.0966 21.7048 38.6256 22.6355 39.8886 23.8653C40.9522 24.929 41.7832 26.2253 42.315 27.6545C42.8136 29.0505 43.0795 30.4798 43.0795 31.9755C43.0795 34.8341 42.4147 37.194 41.0852 39.0553C39.7557 40.9167 37.8943 42.3127 35.7338 43.1104C33.4736 43.9414 30.9807 44.2406 28.2551 44.2406C27.4574 44.2406 26.9256 44.2406 26.5932 44.2073C26.2608 44.1741 25.7955 44.1741 25.1639 44.1741V54.8437C25.1972 55.0763 25.031 55.2758 24.7983 55.309C24.7651 55.309 24.7318 55.309 24.6654 55.309H18.35C18.0841 55.309 17.9512 55.176 17.9512 54.8769ZM25.1972 26.7238V37.892C25.6625 37.9252 26.0946 37.9585 26.4935 37.9585H28.2551C29.5514 37.9585 30.8477 37.759 32.0776 37.3602C33.1412 37.061 34.0719 36.4295 34.8031 35.5985C35.5011 34.7676 35.8335 33.6375 35.8335 32.175C35.8668 31.1446 35.6008 30.1142 35.069 29.2167C34.504 28.3525 33.7062 27.6878 32.7423 27.3221C31.5125 26.8236 30.183 26.6241 28.8202 26.6574C27.956 26.6574 27.1915 26.6574 26.56 26.6906C25.8952 26.6574 25.4298 26.6906 25.1972 26.7238Z" fill="#31A8FF"/>
<path d="M63.8214 35.8635C62.8242 35.3317 61.7606 34.966 60.6305 34.7334C59.4006 34.4675 58.1708 34.3013 56.9078 34.3013C56.243 34.268 55.545 34.3677 54.9134 34.5339C54.4813 34.6336 54.1157 34.8663 53.8831 35.1987C53.7169 35.4646 53.6171 35.797 53.6171 36.0961C53.6171 36.3953 53.7501 36.6944 53.9495 36.9603C54.2487 37.326 54.6475 37.6251 55.0796 37.8578C55.8441 38.2566 56.6419 38.6223 57.4396 38.9547C59.2345 39.5529 60.9629 40.3839 62.5583 41.3811C63.6552 42.0791 64.5526 43.0098 65.1842 44.1399C65.716 45.2035 65.9819 46.3669 65.9486 47.5634C65.9819 49.1257 65.5165 50.6879 64.6523 51.9842C63.7217 53.3137 62.4254 54.3441 60.9296 54.9424C59.3009 55.6404 57.3066 56.006 54.9134 56.006C53.3845 56.006 51.8887 55.8731 50.393 55.5739C49.2297 55.3745 48.0663 55.0089 47.0027 54.5103C46.77 54.3773 46.6038 54.1447 46.637 53.8788V48.0953C46.637 47.9955 46.6703 47.8626 46.77 47.7961C46.8697 47.7296 46.9694 47.7629 47.0691 47.8293C48.3655 48.5938 49.7282 49.1257 51.1907 49.458C52.4538 49.7904 53.7833 49.9566 55.1129 49.9566C56.3759 49.9566 57.2734 49.7904 57.8717 49.4913C58.4035 49.2586 58.7691 48.6936 58.7691 48.0953C58.7691 47.6299 58.5032 47.1978 57.9714 46.7657C57.4396 46.3336 56.3427 45.835 54.714 45.2035C53.0189 44.6052 51.4566 43.8075 49.9941 42.8103C48.9637 42.0791 48.0995 41.1152 47.468 39.9851C46.9362 38.9214 46.6703 37.7581 46.7035 36.5947C46.7035 35.1655 47.1024 33.8027 47.8336 32.5729C48.6646 31.2433 49.8944 30.1797 51.3237 29.5149C52.8859 28.7172 54.847 28.3516 57.2069 28.3516C58.5697 28.3516 59.9657 28.4513 61.3285 28.6507C62.3256 28.7837 63.2896 29.0496 64.187 29.4152C64.32 29.4484 64.4529 29.5814 64.5194 29.7143C64.5526 29.8473 64.5859 29.9802 64.5859 30.1132V35.5311C64.5859 35.664 64.5194 35.797 64.4197 35.8635C64.1205 35.93 63.9543 35.93 63.8214 35.8635Z" fill="#31A8FF"/>
</g>
<defs>
<filter id="filter0_d_157_126" x="0" y="0.334961" width="109.773" height="107.778" filterUnits="userSpaceOnUse" color-interpolation-filters="sRGB">
<feFlood flood-opacity="0" result="BackgroundImageFix"/>
<feColorMatrix in="SourceAlpha" type="matrix" values="0 0 0 0 0 0 0 0 0 0 0 0 0 0 0 0 0 0 127 0" result="hardAlpha"/>
<feOffset dx="20" dy="20"/>
<feGaussianBlur stdDeviation="5"/>
<feComposite in2="hardAlpha" operator="out"/>
<feColorMatrix type="matrix" values="0 0 0 0 0 0 0 0 0 0 0 0 0 0 0 0 0 0 0.25 0"/>
<feBlend mode="normal" in2="BackgroundImageFix" result="effect1_dropShadow_157_126"/>
<feBlend mode="normal" in="SourceGraphic" in2="effect1_dropShadow_157_126" result="shape"/>
</filter>
</defs>
</svg>
