<svg width="105" height="110" viewBox="0 0 105 110" fill="none" xmlns="http://www.w3.org/2000/svg">
<g filter="url(#filter0_d_157_103)">
<path d="M42.7065 12.457V24.738L63.976 37.019V24.738L42.7065 12.457ZM0.166016 24.738V37.019L10.8008 43.1582V30.8785L0.166016 24.738ZM32.0704 30.8785L21.4356 37.019V73.8593L32.0704 79.9998V55.4392L42.7065 61.5796V49.2987L32.0704 43.1582V30.8785Z" fill="#E55B2D"/>
<path d="M42.7064 12.457L10.8008 30.8785V43.1582L32.0704 30.8785V43.1582L42.7064 37.019V12.457ZM74.6121 18.5975L63.976 24.738V37.019L74.6121 30.8785V18.5975ZM53.3412 43.1582L42.7064 49.2987V61.5796L53.3412 55.4392V43.1582ZM42.7064 61.5796L32.0704 55.4392V79.9998L42.7064 73.8593V61.5796Z" fill="#ED8E24"/>
<path d="M42.7065 0.177734L0.166016 24.7384L10.8008 30.8789L42.7065 12.4574L63.976 24.7384L74.6121 18.5979L42.7065 0.177734ZM42.7065 37.0194L32.0704 43.1586L42.7065 49.2991L53.3412 43.1586L42.7065 37.0194Z" fill="#F8BF3C"/>
</g>
<defs>
<filter id="filter0_d_157_103" x="0.166016" y="0.177734" width="104.445" height="109.822" filterUnits="userSpaceOnUse" color-interpolation-filters="sRGB">
<feFlood flood-opacity="0" result="BackgroundImageFix"/>
<feColorMatrix in="SourceAlpha" type="matrix" values="0 0 0 0 0 0 0 0 0 0 0 0 0 0 0 0 0 0 127 0" result="hardAlpha"/>
<feOffset dx="20" dy="20"/>
<feGaussianBlur stdDeviation="5"/>
<feComposite in2="hardAlpha" operator="out"/>
<feColorMatrix type="matrix" values="0 0 0 0 0 0 0 0 0 0 0 0 0 0 0 0 0 0 0.25 0"/>
<feBlend mode="normal" in2="BackgroundImageFix" result="effect1_dropShadow_157_103"/>
<feBlend mode="normal" in="SourceGraphic" in2="effect1_dropShadow_157_103" result="shape"/>
</filter>
</defs>
</svg>
