<svg width="121" height="120" viewBox="0 0 121 120" fill="none" xmlns="http://www.w3.org/2000/svg">
<g filter="url(#filter0_d_157_135)">
<path d="M50.5532 58.4468L64.5176 41.8047L61.6417 39.3915L47.6773 56.0337L50.5532 58.4468Z" fill="black"/>
<path d="M64.518 41.8052L78.4824 25.1631L75.6066 22.7499L61.6421 39.3921L64.518 41.8052Z" fill="#0019FF"/>
<path d="M64.7023 42.0043L78.9551 25.6084L76.1218 23.1454L61.869 39.5413L64.7023 42.0043Z" fill="#0015FF"/>
<path d="M64.8852 42.2072L79.4219 26.0625L76.632 23.5505L62.0953 39.6951L64.8852 42.2072Z" fill="#0011FF"/>
<path d="M65.0626 42.4139L79.8789 26.5254L77.1333 23.965L62.317 39.8535L65.0626 42.4139Z" fill="#000CFF"/>
<path d="M65.2368 42.6236L80.3281 26.9961L77.6276 24.3882L62.5363 40.0157L65.2368 42.6236Z" fill="#0008FF"/>
<path d="M65.4078 42.8344L80.7695 27.4727L78.1149 24.8181L62.7532 40.1798L65.4078 42.8344Z" fill="#0004FF"/>
<path d="M65.5737 43.0513L81.2012 27.96L78.5933 25.2594L62.9658 40.3507L65.5737 43.0513Z" fill="#0000FF"/>
<path d="M65.7365 43.2684L81.625 28.4521L79.0647 25.7065L63.1762 40.5228L65.7365 43.2684Z" fill="#0500FF"/>
<path d="M65.8964 43.4879L82.041 28.9512L79.529 26.1613L63.3843 40.698L65.8964 43.4879Z" fill="#0900FF"/>
<path d="M66.0533 43.7117L82.4492 29.459L79.9863 26.6257L63.5904 40.8784L66.0533 43.7117Z" fill="#0D00FF"/>
<path d="M66.2055 43.939L82.8477 29.9746L80.4345 27.0987L63.7924 41.0632L66.2055 43.939Z" fill="#1100FF"/>
<path d="M66.3491 44.1679L83.2324 30.4961L80.8698 27.5785L63.9865 41.2504L66.3491 44.1679Z" fill="#1600FF"/>
<path d="M66.492 44.3995L83.6113 31.0244L81.3 28.0661L64.1807 41.4412L66.492 44.3995Z" fill="#1A00FF"/>
<path d="M66.6342 44.6339L83.9844 31.5596L81.7251 28.5614L64.3749 41.6356L66.6342 44.6339Z" fill="#1E00FF"/>
<path d="M66.77 44.8691L84.3457 32.0996L82.1391 29.0624L64.5633 41.8319L66.77 44.8691Z" fill="#2200FF"/>
<path d="M66.8994 45.1083L84.6953 32.6475L82.542 29.5722L64.7461 42.033L66.8994 45.1083Z" fill="#2700FF"/>
<path d="M67.0264 45.3485L85.0371 33.2002L82.9378 30.0878L64.9271 42.2362L67.0264 45.3485Z" fill="#2B00FF"/>
<path d="M67.1492 45.5919L85.3691 33.7598L83.3245 30.6112L65.1045 42.4434L67.1492 45.5919Z" fill="#2F00FF"/>
<path d="M67.2677 45.8366L85.6914 34.3242L83.702 31.1405L65.2783 42.6529L67.2677 45.8366Z" fill="#3300FF"/>
<path d="M67.3802 46.0826L86.002 34.8936L84.0684 31.6756L65.4466 42.8647L67.3802 46.0826Z" fill="#3800FF"/>
<path d="M67.4924 46.3331L86.3066 35.4707L84.4296 32.2195L65.6153 43.0819L67.4924 46.3331Z" fill="#3C00FF"/>
<path d="M67.5967 46.5841L86.5977 36.0518L84.7776 32.7683L65.7767 43.3007L67.5967 46.5841Z" fill="#4000FF"/>
<path d="M67.699 46.8359L86.8809 36.6367L85.1184 33.322L65.9365 43.5211L67.699 46.8359Z" fill="#4400FF"/>
<path d="M67.7935 47.0914L87.1504 37.2285L85.446 33.8835L66.0891 43.7464L67.7935 47.0914Z" fill="#4800FF"/>
<path d="M67.888 47.3487L87.4141 37.8252L85.7683 34.451L66.2422 43.9745L67.888 47.3487Z" fill="#4D00FF"/>
<path d="M67.9747 47.6051L87.6641 38.4238L86.0775 35.0214L66.3881 44.2027L67.9747 47.6051Z" fill="#5100FF"/>
<path d="M68.0577 47.8646L87.9043 39.0283L86.3773 35.5987L66.5308 44.435L68.0577 47.8646Z" fill="#5500FF"/>
<path d="M68.135 48.1243L88.1328 39.6357L86.6659 36.18L66.6682 44.6686L68.135 48.1243Z" fill="#5900FF"/>
<path d="M68.2087 48.3873L88.3516 40.249L86.9452 36.7682L66.8024 44.9065L68.2087 48.3873Z" fill="#5E00FF"/>
<path d="M68.2807 48.6497L88.5625 40.8643L87.2171 37.3594L66.9353 45.1449L68.2807 48.6497Z" fill="#6200FF"/>
<path d="M68.3432 48.9147L88.7578 41.4844L87.4738 37.9566L67.0592 45.3869L68.3432 48.9147Z" fill="#6600FF"/>
<path d="M68.4041 49.1803L88.9453 42.1074L87.7231 38.5578L67.1819 45.6307L68.4041 49.1803Z" fill="#6A00FF"/>
<path d="M68.4635 49.4457L89.125 42.7324L87.9649 39.162L67.3034 45.8753L68.4635 49.4457Z" fill="#6F00FF"/>
<path d="M68.5136 49.715L89.2891 43.3633L88.1914 39.7731L67.4159 46.1249L68.5136 49.715Z" fill="#7300FF"/>
<path d="M68.5602 49.9823L89.4434 43.9941L88.4086 40.3854L67.5254 46.3736L68.5602 49.9823Z" fill="#7700FF"/>
<path d="M68.6014 50.2507L89.5859 44.6279L88.6143 41.0017L67.6298 46.6245L68.6014 50.2507Z" fill="#7B00FF"/>
<path d="M68.6373 50.5213L89.7168 45.2656L88.8086 41.623L67.7291 46.8787L68.6373 50.5213Z" fill="#8000FF"/>
<path d="M68.668 50.7923L89.8359 45.9053L88.9914 42.2473L67.8235 47.1343L68.668 50.7923Z" fill="#8400FF"/>
<path d="M68.6953 51.0618L89.9453 46.5449L89.1648 42.8728L67.9147 47.3896L68.6953 51.0618Z" fill="#8800FF"/>
<path d="M68.7193 51.3338L90.0449 47.1885L89.3286 43.5033L68.003 47.6486L68.7193 51.3338Z" fill="#8C00FF"/>
<path d="M68.7381 51.6055L90.1328 47.833L89.4809 44.1359L68.0862 47.9083L68.7381 51.6055Z" fill="#9100FF"/>
<path d="M68.7497 51.877L90.207 48.4785L89.6197 44.7706L68.1624 48.1691L68.7497 51.877Z" fill="#9500FF"/>
<path d="M68.7601 52.1495L90.2734 49.126L89.751 45.4083L68.2376 48.4318L68.7601 52.1495Z" fill="#9900FF"/>
<path d="M68.7633 52.421L90.3262 49.7734L89.8687 46.0472L68.3058 48.6948L68.7633 52.421Z" fill="#9D00FF"/>
<path d="M68.7614 52.6927L90.3672 50.4219L89.9748 46.6883L68.369 48.9591L68.7614 52.6927Z" fill="#A100FF"/>
<path d="M68.7544 52.9667L90.3965 51.0732L90.0693 47.3333L68.4272 49.2268L68.7544 52.9667Z" fill="#A600FF"/>
<path d="M68.7461 53.2371L90.418 51.7217L90.1561 47.9766L68.4842 49.4921L68.7461 53.2371Z" fill="#AA00FF"/>
<path d="M68.7327 53.5081L90.4277 52.3711L90.2313 48.6221L68.5362 49.759L68.7327 53.5081Z" fill="#AE00FF"/>
<path d="M68.7084 53.7806L90.4199 53.0225L90.2889 49.2706L68.5774 50.0288L68.7084 53.7806Z" fill="#B200FF"/>
<path d="M68.6848 54.051L90.4062 53.6719L90.3407 49.9183L68.6193 50.2974L68.6848 54.051Z" fill="#B700FF"/>
<path d="M68.6541 54.3232H90.3789V50.5691H68.6541V54.3232Z" fill="#BB00FF"/>
<path d="M68.6242 54.5916L90.3457 54.9707L90.4112 51.2171L68.6898 50.8379L68.6242 54.5916Z" fill="#BF00FF"/>
<path d="M68.5834 54.8619L90.2949 55.6201L90.4259 51.8682L68.7144 51.11L68.5834 54.8619Z" fill="#C300FF"/>
<path d="M68.5374 55.1296L90.2324 56.2666L90.4289 52.5176L68.7339 51.3806L68.5374 55.1296Z" fill="#C800FF"/>
<path d="M68.4922 55.3986L90.1641 56.9141L90.4259 53.169L68.7541 51.6536L68.4922 55.3986Z" fill="#CC00FF"/>
<path d="M68.438 55.6652L90.0801 57.5586L90.4073 53.8187L68.7652 51.9253L68.438 55.6652Z" fill="#D000FF"/>
<path d="M68.3806 55.9313L89.9863 58.2021L90.3787 54.4685L68.773 52.1977L68.3806 55.9313Z" fill="#D400FF"/>
<path d="M68.318 56.1962L89.8809 58.8438L90.3384 55.1176L68.7755 52.47L68.318 56.1962Z" fill="#D900FF"/>
<path d="M68.2503 56.4599L89.7637 59.4834L90.2862 55.7658L68.7728 52.7423L68.2503 56.4599Z" fill="#DD00FF"/>
<path d="M68.1794 56.7236L89.6367 60.1221L90.224 56.4141L68.7667 53.0156L68.1794 56.7236Z" fill="#E100FF"/>
<path d="M68.1014 56.9853L89.4961 60.7578L90.148 57.0607L68.7533 53.2882L68.1014 56.9853Z" fill="#E500FF"/>
<path d="M68.024 57.2444L89.3496 61.3896L90.0659 57.7044L68.7403 53.5592L68.024 57.2444Z" fill="#EA00FF"/>
<path d="M67.9394 57.5017L89.1895 62.0186L89.97 58.3464L68.72 53.8296L67.9394 57.5017Z" fill="#EE00FF"/>
<path d="M67.8476 57.7595L89.0156 62.6465L89.8601 58.9885L68.6922 54.1015L67.8476 57.7595Z" fill="#F200FF"/>
<path d="M67.7565 58.0158L88.8359 63.2715L89.7442 59.6288L68.6647 54.3731L67.7565 58.0158Z" fill="#F600FF"/>
<path d="M67.6581 58.2688L88.6426 63.8916L89.6142 60.2653L68.6297 54.6426L67.6581 58.2688Z" fill="#FA00FF"/>
<path d="M67.5543 58.5226L88.4375 64.5107L89.4723 60.902L68.5891 54.9138L67.5543 58.5226Z" fill="#FF00FF"/>
<path d="M67.4471 58.7713L88.2227 65.123L89.3203 61.5329L68.5448 55.1812L67.4471 58.7713Z" fill="#FF00FB"/>
<path d="M67.3346 59.0191L87.9961 65.7324L89.1562 62.162L68.4947 55.4487L67.3346 59.0191Z" fill="#FF00F7"/>
<path d="M67.2205 59.265L87.7617 66.3379L88.984 62.7882L68.4428 55.7153L67.2205 59.265Z" fill="#FF00F3"/>
<path d="M67.101 59.5101L87.5156 66.9404L88.7996 63.4127L68.385 55.9823L67.101 59.5101Z" fill="#FF00EE"/>
<path d="M66.974 59.7516L87.2559 67.5371L88.6012 64.0323L68.3194 56.2468L66.974 59.7516Z" fill="#FF00EA"/>
<path d="M66.8474 59.9916L86.9902 68.1299L88.3966 64.6491L68.2537 56.5108L66.8474 59.9916Z" fill="#FF00E6"/>
<path d="M66.7093 60.2302L86.707 68.7188L88.1739 65.263L68.1761 56.7745L66.7093 60.2302Z" fill="#FF00E2"/>
<path d="M66.5733 60.4645L86.4199 69.3008L87.9469 65.8712L68.1003 57.0349L66.5733 60.4645Z" fill="#FF00DD"/>
<path d="M66.4337 60.6986L86.123 69.8799L87.7096 66.4774L68.0203 57.2962L66.4337 60.6986Z" fill="#FF00D9"/>
<path d="M66.2903 60.9277L85.8164 70.4512L87.4621 67.0769L67.936 57.5534L66.2903 60.9277Z" fill="#FF00D5"/>
<path d="M66.1411 61.1557L85.498 71.0186L87.2024 67.6736L67.8455 57.8107L66.1411 61.1557Z" fill="#FF00D1"/>
<path d="M65.9881 61.3809L85.1699 71.5801L86.9324 68.2653L67.7506 58.0662L65.9881 61.3809Z" fill="#FF00CC"/>
<path d="M65.8311 61.6043L84.832 72.1367L86.6521 68.8532L67.6512 58.3209L65.8311 61.6043Z" fill="#FF00C8"/>
<path d="M65.6682 61.8232L84.4824 72.6855L86.3595 69.4343L67.5453 58.5719L65.6682 61.8232Z" fill="#FF00C4"/>
<path d="M65.5052 62.0384L84.127 73.2275L86.0605 70.0096L67.4387 58.8205L65.5052 62.0384Z" fill="#FF00C0"/>
<path d="M65.3381 62.2542L83.7617 73.7666L85.7511 70.5829L67.3275 59.0705L65.3381 62.2542Z" fill="#FF00BB"/>
<path d="M65.1629 62.4657L83.3828 74.2979L85.4275 71.1493L67.2076 59.3172L65.1629 62.4657Z" fill="#FF00B7"/>
<path d="M64.9893 62.672L83 74.8203L85.0993 71.708L67.0886 59.5596L64.9893 62.672Z" fill="#FF00B3"/>
<path d="M64.8076 62.878L82.6035 75.3389L84.7568 72.2636L66.9609 59.8028L64.8076 62.878Z" fill="#FF00AF"/>
<path d="M64.6274 63.0791L82.2031 75.8486L84.4098 72.8114L66.8341 60.0419L64.6274 63.0791Z" fill="#FF00AB"/>
<path d="M64.4389 63.2773L81.7891 76.3516L84.0484 73.3533L66.6982 60.279L64.4389 63.2773Z" fill="#FF00A6"/>
<path d="M64.2517 63.4725L81.3711 76.8477L83.6824 73.8893L66.563 60.5142L64.2517 63.4725Z" fill="#FF00A2"/>
<path d="M64.0581 63.6641L80.9414 77.3359L83.304 74.4184L66.4207 60.7465L64.0581 63.6641Z" fill="#FF009E"/>
<path d="M63.8618 63.853L80.5039 77.8174L82.917 74.9415L66.2749 60.9771L63.8618 63.853Z" fill="#FF009A"/>
<path d="M63.6588 64.0373L80.0547 78.29L82.5177 75.4567L66.1217 61.204L63.6588 64.0373Z" fill="#FF0095"/>
<path d="M63.4569 64.2191L79.6016 78.7559L82.1136 75.966L65.9689 61.4292L63.4569 64.2191Z" fill="#FF0091"/>
<path d="M63.2521 64.3966L79.1406 79.2129L81.701 76.4673L65.8125 61.651L63.2521 64.3966Z" fill="#FF008D"/>
<path d="M63.0405 64.5718L78.668 79.6631L81.2758 76.9626L65.6483 61.8713L63.0405 64.5718Z" fill="#FF0089"/>
<path d="M62.8297 64.7418L78.1914 80.1035L80.846 77.4489L65.4843 62.0872L62.8297 64.7418Z" fill="#FF0084"/>
<path d="M62.6138 64.9077L77.7051 80.5352L80.4056 77.9273L65.3143 62.2998L62.6138 64.9077Z" fill="#FF0080"/>
<path d="M62.3966 65.0715L77.2129 80.96L79.9585 78.3996L65.1423 62.5111L62.3966 65.0715Z" fill="#FF007C"/>
<path d="M62.1762 65.2313L76.7129 81.376L79.5028 78.8639L64.9661 62.7193L62.1762 65.2313Z" fill="#FF0078"/>
<path d="M61.9523 65.3863L76.2051 81.7822L79.0384 79.3193L64.7857 62.9234L61.9523 65.3863Z" fill="#FF0073"/>
<path d="M61.727 65.5375L75.6914 82.1797L78.5673 79.7665L64.6029 63.1244L61.727 65.5375Z" fill="#FF006F"/>
<path d="M61.4981 65.685L75.1699 82.5684L78.0875 80.2058L64.4156 63.3225L61.4981 65.685Z" fill="#FF006B"/>
<path d="M61.2636 65.8279L74.6387 82.9473L77.597 80.636L64.2219 63.5166L61.2636 65.8279Z" fill="#FF0067"/>
<path d="M61.0312 65.9672L74.1055 83.3174L77.1037 81.0581L64.0294 63.7079L61.0312 65.9672Z" fill="#FF0062"/>
<path d="M60.7949 66.102L73.5645 83.6777L76.6016 81.4711L63.8321 63.8954L60.7949 66.102Z" fill="#FF005E"/>
<path d="M60.5587 66.2344L73.0195 84.0303L76.0948 81.877L63.634 64.0811L60.5587 66.2344Z" fill="#FF005A"/>
<path d="M60.3165 66.3614L72.4648 84.3721L75.5772 82.2728L63.4289 64.2621L60.3165 66.3614Z" fill="#FF0056"/>
<path d="M60.0721 66.4832L71.9043 84.7031L75.0528 82.6585L63.2207 64.4385L60.0721 66.4832Z" fill="#FF0052"/>
<path d="M59.8275 66.6027L71.3398 85.0264L74.5236 83.037L63.0112 64.6133L59.8275 66.6027Z" fill="#FF004D"/>
<path d="M59.5824 66.7151L70.7715 85.3369L73.9894 83.4034L62.8004 64.7816L59.5824 66.7151Z" fill="#FF0049"/>
<path d="M59.3329 66.8264L70.1953 85.6406L73.4465 83.7635L62.5841 64.9493L59.3329 66.8264Z" fill="#FF0045"/>
<path d="M59.0829 66.9307L69.6152 85.9316L72.8987 84.1116L62.3663 65.1107L59.0829 66.9307Z" fill="#FF0041"/>
<path d="M58.8282 67.033L69.0273 86.2148L72.3421 84.4524L62.1429 65.2705L58.8282 67.033Z" fill="#FF003C"/>
<path d="M58.5727 67.1284L68.4355 86.4854L71.7805 84.781L61.9177 65.4241L58.5727 67.1284Z" fill="#FF0038"/>
<path d="M58.3163 67.2219L67.8398 86.748L71.2141 85.1023L61.6906 65.5762L58.3163 67.2219Z" fill="#FF0034"/>
<path d="M58.0609 67.3087L67.2422 86.998L70.6446 85.4115L61.4633 65.7221L58.0609 67.3087Z" fill="#FF0030"/>
<path d="M57.8024 67.3917L66.6387 87.2383L70.0683 85.7113L61.232 65.8647L57.8024 67.3917Z" fill="#FF002B"/>
<path d="M57.5427 67.471L66.0312 87.4688L69.487 86.0019L60.9984 66.0041L57.5427 67.471Z" fill="#FF0027"/>
<path d="M57.2778 67.5437L65.416 87.6865L68.8968 86.2802L60.7586 66.1373L57.2778 67.5437Z" fill="#FF0023"/>
<path d="M57.0153 67.6147L64.8008 87.8965L68.3056 86.5511L60.5201 66.2693L57.0153 67.6147Z" fill="#FF001F"/>
<path d="M56.7494 67.6801L64.1797 88.0947L67.7075 86.8107L60.2771 66.3961L56.7494 67.6801Z" fill="#FF001A"/>
<path d="M56.4837 67.7391L63.5566 88.2803L67.1063 87.058L60.0334 66.5168L56.4837 67.7391Z" fill="#FF0016"/>
<path d="M56.2183 67.7946L62.9316 88.4561L66.5021 87.2959L59.7888 66.6345L56.2183 67.7946Z" fill="#FF0012"/>
<path d="M55.951 67.8456L62.3027 88.6211L65.8929 87.5235L59.5412 66.748L55.951 67.8456Z" fill="#FF000E"/>
<path d="M55.6818 67.8932L61.6699 88.7764L65.2787 87.7416L59.2905 66.8584L55.6818 67.8932Z" fill="#FF0009"/>
<path d="M55.4163 67.9325L61.0391 88.917L64.6653 87.9453L59.0425 66.9608L55.4163 67.9325Z" fill="#FF0005"/>
<path d="M55.1427 67.9713L60.3984 89.0508L64.0411 88.1426L58.7854 67.0631L55.1427 67.9713Z" fill="#FF0001"/>
<path d="M54.8728 68.0029L59.7598 89.1709L63.4177 88.3264L58.5307 67.1584L54.8728 68.0029Z" fill="#FF0300"/>
<path d="M54.6043 68.0312L59.1211 89.2812L62.7932 88.5007L58.2764 67.2507L54.6043 68.0312Z" fill="#FF0700"/>
<path d="M54.3332 68.0533L58.4785 89.3789L62.1637 88.6626L58.0184 67.3369L54.3332 68.0533Z" fill="#FF0C00"/>
<path d="M54.0596 68.0711L57.832 89.4658L61.5292 88.8139L57.7567 67.4192L54.0596 68.0711Z" fill="#FF1000"/>
<path d="M53.789 68.0837L57.1875 89.541L60.8955 88.9537L57.497 67.4964L53.789 68.0837Z" fill="#FF1400"/>
<path d="M53.5175 68.0931L56.541 89.6064L60.2587 89.084L57.2352 67.5706L53.5175 68.0931Z" fill="#FF1800"/>
<path d="M53.2469 68.0973L55.8945 89.6602L59.6207 89.2026L56.9731 67.6398L53.2469 68.0973Z" fill="#FF1D00"/>
<path d="M52.9733 68.0964L55.2441 89.7021L58.9778 89.3097L56.7069 67.704L52.9733 68.0964Z" fill="#FF2100"/>
<path d="M52.6984 68.0903L54.5918 89.7324L58.3317 89.4052L56.4383 67.7631L52.6984 68.0903Z" fill="#FF2500"/>
<path d="M52.4279 68.0801L53.9434 89.752L57.6884 89.4901L56.1729 67.8182L52.4279 68.0801Z" fill="#FF2900"/>
<path d="M52.156 68.0628L53.293 89.7578L57.042 89.5613L55.905 67.8663L52.156 68.0628Z" fill="#FF2E00"/>
<path d="M51.8844 68.0443L52.6426 89.7559L56.3945 89.6248L55.6363 67.9133L51.8844 68.0443Z" fill="#FF3200"/>
<path d="M51.6111 68.0197L51.9902 89.7412L55.7438 89.6757L55.3647 67.9542L51.6111 68.0197Z" fill="#FF3600"/>
<path d="M51.3418 67.9901V89.7148H55.096V67.9901H51.3418Z" fill="#FF3A00"/>
<path d="M51.0725 67.9543L50.6934 89.6758L54.447 89.7413L54.8261 68.0198L51.0725 67.9543Z" fill="#FF3F00"/>
<path d="M50.8012 67.9174L50.043 89.6289L53.7949 89.7599L54.553 68.0484L50.8012 67.9174Z" fill="#FF4300"/>
<path d="M50.5335 67.8734L49.3965 89.5684L53.1455 89.7648L54.2825 68.0698L50.5335 67.8734Z" fill="#FF4700"/>
<path d="M50.2654 67.8252L48.75 89.4971L52.495 89.7589L54.0105 68.0871L50.2654 67.8252Z" fill="#FF4B00"/>
<path d="M50.0009 67.7729L48.1074 89.415L51.8473 89.7422L53.7408 68.1001L50.0009 67.7729Z" fill="#FF5000"/>
<path d="M49.7337 67.7155L47.4629 89.3213L51.1965 89.7137L53.4674 68.1079L49.7337 67.7155Z" fill="#FF5400"/>
<path d="M49.4679 67.652L46.8203 89.2148L50.5465 89.6724L53.1941 68.1095L49.4679 67.652Z" fill="#FF5800"/>
<path d="M49.2032 67.5863L46.1797 89.0996L49.8973 89.6221L52.9208 68.1087L49.2032 67.5863Z" fill="#FF5C00"/>
<path d="M48.9415 67.5153L45.543 88.9727L49.2509 89.5599L52.6494 68.1026L48.9415 67.5153Z" fill="#FF6000"/>
<path d="M48.6807 67.4383L44.9082 88.833L48.6053 89.4849L52.3778 68.0902L48.6807 67.4383Z" fill="#FF6500"/>
<path d="M48.4207 67.358L44.2754 88.6836L47.9606 89.3999L52.1059 68.0743L48.4207 67.358Z" fill="#FF6900"/>
<path d="M48.1614 67.2724L43.6445 88.5225L47.3167 89.303L51.8335 68.053L48.1614 67.2724Z" fill="#FF6D00"/>
<path d="M47.9026 67.1826L43.0156 88.3506L46.6736 89.1951L51.5606 68.0271L47.9026 67.1826Z" fill="#FF7100"/>
<path d="M47.6483 67.0895L42.3926 88.1689L46.0352 89.0772L51.2909 67.9977L47.6483 67.0895Z" fill="#FF7600"/>
<path d="M47.3962 66.9891L41.7734 87.9736L45.3997 88.9453L51.0225 67.9608L47.3962 66.9891Z" fill="#FF7A00"/>
<path d="M47.1425 66.8883L41.1543 87.7715L44.763 88.8063L50.7512 67.9231L47.1425 66.8883Z" fill="#FF7E00"/>
<path d="M46.8947 66.7802L40.543 87.5557L44.1331 88.6533L50.4848 67.8778L46.8947 66.7802Z" fill="#FF8200"/>
<path d="M46.645 66.6686L39.9316 87.3301L43.5021 88.4902L50.2154 67.8287L46.645 66.6686Z" fill="#FF8700"/>
<path d="M46.3971 66.5535L39.3242 87.0947L42.8739 88.317L49.9468 67.7758L46.3971 66.5535Z" fill="#FF8B00"/>
<path d="M46.153 66.4311L38.7227 86.8457L42.2504 88.1297L49.6807 67.7151L46.153 66.4311Z" fill="#FF8F00"/>
<path d="M45.9124 66.308L38.127 86.5898L41.6318 87.9352L49.4172 67.6534L45.9124 66.308Z" fill="#FF9300"/>
<path d="M45.6715 66.1784L37.5332 86.3213L41.014 87.7276L49.1523 67.5848L45.6715 66.1784Z" fill="#FF9800"/>
<path d="M45.4339 66.0462L36.9453 86.0439L40.4011 87.5108L48.8896 67.5131L45.4339 66.0462Z" fill="#FF9C00"/>
<path d="M45.1995 65.9103L36.3633 85.7568L39.7929 87.2838L48.6292 67.4372L45.1995 65.9103Z" fill="#FFA000"/>
<path d="M44.9684 65.7677L35.7871 85.457L39.1895 87.0436L48.3708 67.3543L44.9684 65.7677Z" fill="#FFA400"/>
<path d="M44.7364 65.6233L35.2129 85.1494L38.5871 86.7951L48.1106 67.269L44.7364 65.6233Z" fill="#FFA900"/>
<path d="M44.5113 65.4741L34.6484 84.8311L37.9934 86.5354L47.8563 67.1785L44.5113 65.4741Z" fill="#FFAD00"/>
<path d="M44.2832 65.3211L34.084 84.5029L37.3987 86.2654L47.5979 67.0836L44.2832 65.3211Z" fill="#FFB100"/>
<path d="M44.0617 65.1641L33.5293 84.165L36.8128 85.9851L47.3452 66.9842L44.0617 65.1641Z" fill="#FFB500"/>
<path d="M43.8429 65.0032L32.9805 83.8174L36.2317 85.6945L47.0941 66.8803L43.8429 65.0032Z" fill="#FFB900"/>
<path d="M43.6266 64.8382L32.4375 83.46L35.6555 85.3935L46.8445 66.7717L43.6266 64.8382Z" fill="#FFBE00"/>
<path d="M43.4128 64.6691L31.9004 83.0928L35.0841 85.0822L46.5965 66.6585L43.4128 64.6691Z" fill="#FFC200"/>
<path d="M43.1994 64.4988L31.3672 82.7188L34.5157 84.7634L46.3479 66.5435L43.1994 64.4988Z" fill="#FFC600"/>
<path d="M42.994 64.3223L30.8457 82.333L33.9581 84.4323L46.1064 66.4217L42.994 64.3223Z" fill="#FFCA00"/>
<path d="M42.787 64.1436L30.3262 81.9395L33.4014 84.0928L45.8622 66.2969L42.787 64.1436Z" fill="#FFCF00"/>
<path d="M42.5859 63.9604L29.8164 81.5361L32.8536 83.7428L45.6231 66.1671L42.5859 63.9604Z" fill="#FFD300"/>
<path d="M42.3888 63.7738L29.3145 81.124L32.3127 83.3833L45.387 66.0332L42.3888 63.7738Z" fill="#FFD700"/>
<path d="M42.1915 63.5847L28.8164 80.7041L31.7747 83.0154L45.1499 65.896L42.1915 63.5847Z" fill="#FFDB00"/>
<path d="M42.0019 63.3901L28.3301 80.2734L31.2476 82.636L44.9195 65.7527L42.0019 63.3901Z" fill="#FFE000"/>
<path d="M41.8121 63.1948L27.8477 79.8369L30.7235 82.2501L44.6879 65.6079L41.8121 63.1948Z" fill="#FFE400"/>
<path d="M41.6258 62.9947L27.373 79.3906L30.2064 81.8536L44.4591 65.4577L41.6258 62.9947Z" fill="#FFE800"/>
<path d="M41.4449 62.7919L26.9082 78.9365L29.6981 81.4486L44.2348 65.3039L41.4449 62.7919Z" fill="#FFEC00"/>
<path d="M41.2674 62.5851L26.4512 78.4736L29.1968 81.034L44.0131 65.1455L41.2674 62.5851Z" fill="#FFF100"/>
<path d="M41.0932 62.3754L26.002 78.0029L28.7025 80.6108L43.7938 64.9833L41.0932 62.3754Z" fill="#FFF500"/>
<path d="M40.9242 62.1637L25.5625 77.5254L28.2171 80.18L43.5788 64.8183L40.9242 62.1637Z" fill="#FFF900"/>
<path d="M40.7525 61.9497L25.125 77.041L27.7329 79.7415L43.3604 64.6502L40.7525 61.9497Z" fill="#FFFD00"/>
<path d="M40.5936 61.7306L24.7051 76.5469L27.2654 79.2925L43.1539 64.4762L40.5936 61.7306Z" fill="#FCFF00"/>
<path d="M40.4357 61.5102L24.291 76.0469L26.8031 78.8368L42.9477 64.3001L40.4357 61.5102Z" fill="#F8FF00"/>
<path d="M40.2787 61.2873L23.8828 75.54L26.3458 78.3734L42.7417 64.1206L40.2787 61.2873Z" fill="#F4FF00"/>
<path d="M40.1265 61.061L23.4844 75.0254L25.8975 77.9013L42.5397 63.9368L40.1265 61.061Z" fill="#F0FF00"/>
<path d="M39.979 60.8321L23.0957 74.5039L25.4583 77.4215L42.3416 63.7496L39.979 60.8321Z" fill="#ECFF00"/>
<path d="M39.8381 60.6005L22.7188 73.9756L25.0301 76.9339L42.1494 63.5588L39.8381 60.6005Z" fill="#E7FF00"/>
<path d="M39.6998 60.3661L22.3496 73.4404L24.6089 76.4386L41.9591 63.3644L39.6998 60.3661Z" fill="#E3FF00"/>
<path d="M39.562 60.1299L21.9863 72.8994L24.193 75.9366L41.7687 63.1671L39.562 60.1299Z" fill="#DFFF00"/>
<path d="M39.4307 59.8917L21.6348 72.3525L23.7881 75.4278L41.584 62.967L39.4307 59.8917Z" fill="#DBFF00"/>
<path d="M39.3017 59.6505L21.291 71.7988L23.3903 74.9112L41.401 62.7628L39.3017 59.6505Z" fill="#D6FF00"/>
<path d="M39.1809 59.4071L20.9609 71.2393L23.0056 74.3878L41.2255 62.5556L39.1809 59.4071Z" fill="#D2FF00"/>
<path d="M39.0623 59.1624L20.6387 70.6748L22.6281 73.8585L41.0517 62.3461L39.0623 59.1624Z" fill="#CEFF00"/>
<path d="M38.9479 58.9164L20.3262 70.1055L22.2597 73.3234L40.8815 62.1343L38.9479 58.9164Z" fill="#CAFF00"/>
<path d="M38.8396 58.6659L20.0254 69.5283L21.9025 72.7795L40.7167 61.9171L38.8396 58.6659Z" fill="#C5FF00"/>
<path d="M38.7333 58.4159L19.7324 68.9482L21.5525 72.2317L40.5534 61.6993L38.7333 58.4159Z" fill="#C1FF00"/>
<path d="M38.635 58.1631L19.4531 68.3623L21.2156 71.677L40.3974 61.4779L38.635 58.1631Z" fill="#BDFF00"/>
<path d="M38.5347 57.9086L19.1777 67.7715L20.8821 71.1165L40.239 61.2536L38.5347 57.9086Z" fill="#B9FF00"/>
<path d="M38.4441 57.6532L18.918 67.1768L20.5637 70.551L40.0898 61.0275L38.4441 57.6532Z" fill="#B4FF00"/>
<path d="M38.3554 57.3939L18.666 66.5752L20.2526 69.9776L39.9419 60.7963L38.3554 57.3939Z" fill="#B0FF00"/>
<path d="M38.2743 57.1354L18.4277 65.9717L19.9547 69.4013L39.8013 60.565L38.2743 57.1354Z" fill="#ACFF00"/>
<path d="M38.1911 56.8747L18.1934 65.3633L19.6602 68.819L39.658 60.3305L38.1911 56.8747Z" fill="#A8FF00"/>
<path d="M38.1194 56.6137L17.9766 64.752L19.3829 68.2328L39.5258 60.0945L38.1194 56.6137Z" fill="#A3FF00"/>
<path d="M38.0514 56.3493L17.7695 64.1348L19.1149 67.6396L39.3967 59.8541L38.0514 56.3493Z" fill="#9FFF00"/>
<path d="M37.9849 56.0853L17.5703 63.5156L18.8543 67.0434L39.2689 59.6131L37.9849 56.0853Z" fill="#9BFF00"/>
<path d="M37.9279 55.8187L17.3867 62.8916L18.609 66.4412L39.1501 59.3684L37.9279 55.8187Z" fill="#97FF00"/>
<path d="M37.8685 55.5533L17.207 62.2666L18.3671 65.837L39.0286 59.1237L37.8685 55.5533Z" fill="#93FF00"/>
<path d="M37.8185 55.285L17.043 61.6367L18.1406 65.2269L38.9161 58.8751L37.8185 55.285Z" fill="#8EFF00"/>
<path d="M37.7719 55.0167L16.8887 61.0049L17.9235 64.6136L38.8067 58.6255L37.7719 55.0167Z" fill="#8AFF00"/>
<path d="M37.7306 54.7493L16.7461 60.3721L17.7177 63.9983L38.7023 58.3755L37.7306 54.7493Z" fill="#86FF00"/>
<path d="M37.6927 54.4777L16.6133 59.7334L17.5215 63.3761L38.601 58.1204L37.6927 54.4777Z" fill="#82FF00"/>
<path d="M37.6602 54.2097L16.4922 59.0967L17.3367 62.7546L38.5047 57.8676L37.6602 54.2097Z" fill="#7DFF00"/>
<path d="M37.6348 53.9392L16.3848 58.4561L17.1653 62.1282L38.4153 57.6114L37.6348 53.9392Z" fill="#79FF00"/>
<path d="M37.6108 53.6662L16.2852 57.8115L17.0015 61.4967L38.3271 57.3514L37.6108 53.6662Z" fill="#75FF00"/>
<path d="M37.592 53.3945L16.1973 57.167L16.8492 60.8641L38.2439 57.0917L37.592 53.3945Z" fill="#71FF00"/>
<path d="M37.5804 53.123L16.123 56.5215L16.7103 60.2294L38.1676 56.8309L37.5804 53.123Z" fill="#6CFF00"/>
<path d="M37.572 52.8495L16.0586 55.873L16.5811 59.5907L38.0944 56.5672L37.572 52.8495Z" fill="#68FF00"/>
<path d="M37.5687 52.579L16.0059 55.2266L16.4634 58.9528L38.0262 56.3052L37.5687 52.579Z" fill="#64FF00"/>
<path d="M37.5687 52.3063L15.9629 54.5771L16.3553 58.3108L37.9611 56.0399L37.5687 52.3063Z" fill="#60FF00"/>
<path d="M37.5738 52.0353L15.9316 53.9287L16.2588 57.6686L37.901 55.7752L37.5738 52.0353Z" fill="#5BFF00"/>
<path d="M37.5879 51.7629L15.916 53.2783L16.1779 57.0234L37.8498 55.5079L37.5879 51.7629Z" fill="#57FF00"/>
<path d="M37.5993 51.4909L15.9043 52.6279L16.1008 56.377L37.7958 55.24L37.5993 51.4909Z" fill="#53FF00"/>
<path d="M37.6217 51.2184L15.9102 51.9766L16.0412 55.7285L37.7527 54.9703L37.6217 51.2184Z" fill="#4FFF00"/>
<path d="M37.6473 50.947L15.9258 51.3262L15.9913 55.0798L37.7128 54.7006L37.6473 50.947Z" fill="#4AFF00"/>
<path d="M37.676 50.6777H15.9512V54.4319H37.676V50.6777Z" fill="#46FF00"/>
<path d="M37.7078 50.4075L15.9863 50.0283L15.9208 53.7819L37.6423 54.1611L37.7078 50.4075Z" fill="#42FF00"/>
<path d="M37.7506 50.1381L16.0391 49.3799L15.908 53.1318L37.6196 53.89L37.7506 50.1381Z" fill="#3EFF00"/>
<path d="M37.7907 49.8684L16.0957 48.7314L15.8992 52.4805L37.5942 53.6175L37.7907 49.8684Z" fill="#3AFF00"/>
<path d="M37.8398 49.6004L16.168 48.085L15.9061 51.83L37.578 53.3454L37.8398 49.6004Z" fill="#35FF00"/>
<path d="M37.8941 49.3339L16.252 47.4404L15.9248 51.1803L37.5669 53.0738L37.8941 49.3339Z" fill="#31FF00"/>
<path d="M37.9515 49.0687L16.3457 46.7979L15.9533 50.5315L37.5591 52.8023L37.9515 49.0687Z" fill="#2DFF00"/>
<path d="M38.0121 48.8029L16.4492 46.1553L15.9917 49.8815L37.5545 52.5291L38.0121 48.8029Z" fill="#29FF00"/>
<path d="M38.0798 48.5401L16.5664 45.5166L16.0439 49.2342L37.5573 52.2577L38.0798 48.5401Z" fill="#24FF00"/>
<path d="M38.1526 48.2764L16.6953 44.8779L16.108 48.5859L37.5653 51.9844L38.1526 48.2764Z" fill="#20FF00"/>
<path d="M38.2268 48.0166L16.832 44.2441L16.1801 47.9413L37.5749 51.7138L38.2268 48.0166Z" fill="#1CFF00"/>
<path d="M38.3081 47.7547L16.9824 43.6094L16.2661 47.2946L37.5917 51.4399L38.3081 47.7547Z" fill="#18FF00"/>
<path d="M38.3907 47.4954L17.1406 42.9785L16.3601 46.6507L37.6101 51.1675L38.3907 47.4954Z" fill="#13FF00"/>
<path d="M38.4805 47.2396L17.3125 42.3525L16.468 46.0105L37.636 50.8975L38.4805 47.2396Z" fill="#0FFF00"/>
<path d="M38.5756 46.9832L17.4961 41.7275L16.5879 45.3702L37.6673 50.6259L38.5756 46.9832Z" fill="#0BFF00"/>
<path d="M38.674 46.7302L17.6895 41.1074L16.7178 44.7337L37.7023 50.3565L38.674 46.7302Z" fill="#07FF00"/>
<path d="M38.7777 46.4794L17.8945 40.4912L16.8597 44.1L37.7429 50.0881L38.7777 46.4794Z" fill="#02FF00"/>
<path d="M38.8849 46.2287L18.1094 39.877L17.0118 43.4671L37.7873 49.8188L38.8849 46.2287Z" fill="#00FF02"/>
<path d="M38.9974 45.979L18.3359 39.2656L17.1758 42.8361L37.8373 49.5494L38.9974 45.979Z" fill="#00FF06"/>
<path d="M39.1115 45.7331L18.5703 38.6602L17.3481 42.2098L37.8893 49.2827L39.1115 45.7331Z" fill="#00FF0A"/>
<path d="M39.231 45.4899L18.8164 38.0596L17.5324 41.5873L37.947 49.0177L39.231 45.4899Z" fill="#00FF0F"/>
<path d="M39.356 45.2464L19.0742 37.4609L17.7288 40.9658L38.0107 48.7512L39.356 45.2464Z" fill="#00FF13"/>
<path d="M39.4847 45.0074L19.3418 36.8691L17.9355 40.35L38.0783 48.4882L39.4847 45.0074Z" fill="#00FF17"/>
<path d="M39.6189 44.7698L19.6211 36.2812L18.1542 39.737L38.152 48.2255L39.6189 44.7698Z" fill="#00FF1B"/>
<path d="M39.7548 44.5345L19.9082 35.6982L18.3812 39.1279L38.2278 47.9641L39.7548 44.5345Z" fill="#00FF1F"/>
<path d="M39.8925 44.3004L20.2031 35.1191L18.6165 38.5216L38.3059 47.7029L39.8925 44.3004Z" fill="#00FF24"/>
<path d="M40.0417 44.0714L20.5156 34.5479L18.8699 37.9221L38.396 47.4456L40.0417 44.0714Z" fill="#00FF28"/>
<path d="M40.189 43.8443L20.832 33.9814L19.1277 37.3264L38.4846 47.1893L40.189 43.8443Z" fill="#00FF2C"/>
<path d="M40.342 43.6191L21.1602 33.4199L19.3977 36.7347L38.5795 46.9338L40.342 43.6191Z" fill="#00FF30"/>
<path d="M40.5009 43.3957L21.5 32.8633L19.6799 36.1468L38.6809 46.6791L40.5009 43.3957Z" fill="#00FF35"/>
<path d="M40.658 43.1759L21.8438 32.3135L19.9667 35.5647L38.7809 46.4271L40.658 43.1759Z" fill="#00FF39"/>
<path d="M40.8269 42.9596L22.2051 31.7705L20.2715 34.9885L38.8933 46.1776L40.8269 42.9596Z" fill="#00FF3D"/>
<path d="M40.994 42.7458L22.5703 31.2334L20.5809 34.4171L39.0046 45.9295L40.994 42.7458Z" fill="#00FF41"/>
<path d="M41.1672 42.5353L22.9473 30.7031L20.9026 33.8516L39.1225 45.6838L41.1672 42.5353Z" fill="#00FF46"/>
<path d="M41.3427 42.3261L23.332 30.1777L21.2327 33.2901L39.2434 45.4384L41.3427 42.3261Z" fill="#00FF4A"/>
<path d="M41.5225 42.1229L23.7266 29.6621L21.5733 32.7374L39.3692 45.1982L41.5225 42.1229Z" fill="#00FF4E"/>
<path d="M41.7046 41.9209L24.1289 29.1514L21.9223 32.1886L39.498 44.9581L41.7046 41.9209Z" fill="#00FF52"/>
<path d="M41.8912 41.7218L24.541 28.6475L22.2817 31.6457L39.6319 44.72L41.8912 41.7218Z" fill="#00FF57"/>
<path d="M42.0803 41.5265L24.9609 28.1514L22.6496 31.1097L39.769 44.4848L42.0803 41.5265Z" fill="#00FF5B"/>
<path d="M42.274 41.3349L25.3906 27.6631L23.028 30.5806L39.9114 44.2525L42.274 41.3349Z" fill="#00FF5F"/>
<path d="M42.4703 41.147L25.8281 27.1826L23.415 30.0585L40.0571 44.0229L42.4703 41.147Z" fill="#00FF63"/>
<path d="M42.6693 40.9617L26.2734 26.709L23.8105 29.5423L40.2064 43.795L42.6693 40.9617Z" fill="#00FF68"/>
<path d="M42.8751 40.7799L26.7305 26.2432L24.2184 29.0331L40.3631 43.5698L42.8751 40.7799Z" fill="#00FF6C"/>
<path d="M43.0799 40.6024L27.1914 25.7861L24.6311 28.5318L40.5196 43.348L43.0799 40.6024Z" fill="#00FF70"/>
<path d="M43.2877 40.4282L27.6602 25.3369L25.0523 28.0374L40.6798 43.1287L43.2877 40.4282Z" fill="#00FF74"/>
<path d="M43.5004 40.2582L28.1387 24.8965L25.4841 27.5511L40.8458 42.9128L43.5004 40.2582Z" fill="#00FF78"/>
<path d="M43.7163 40.0904L28.625 24.4629L25.9245 27.0708L41.0158 42.6983L43.7163 40.0904Z" fill="#00FF7D"/>
<path d="M43.9335 39.9285L29.1172 24.04L26.3716 26.6004L41.1878 42.4889L43.9335 39.9285Z" fill="#00FF81"/>
<path d="M44.1539 39.7697L29.6172 23.625L26.8273 26.137L41.364 42.2817L44.1539 39.7697Z" fill="#00FF85"/>
<path d="M44.3797 39.6127L30.127 23.2168L27.2936 25.6798L41.5464 42.0757L44.3797 39.6127Z" fill="#00FF89"/>
<path d="M44.605 39.4615L30.6406 22.8193L27.7648 25.2325L41.7292 41.8746L44.605 39.4615Z" fill="#00FF8E"/>
<path d="M44.834 39.314L31.1621 22.4307L28.2446 24.7932L41.9164 41.6766L44.834 39.314Z" fill="#00FF92"/>
<path d="M45.0626 39.1711L31.6875 22.0518L28.7292 24.3631L42.1043 41.4824L45.0626 39.1711Z" fill="#00FF96"/>
<path d="M45.295 39.0318L32.2207 21.6816L29.2225 23.941L42.2968 41.2911L45.295 39.0318Z" fill="#00FF9A"/>
<path d="M45.5371 38.896L32.7676 21.3203L29.7304 23.527L42.4999 41.1027L45.5371 38.896Z" fill="#00FF9F"/>
<path d="M45.7753 38.7646L33.3145 20.9688L30.2392 23.1221L42.7 40.918L45.7753 38.7646Z" fill="#00FFA3"/>
<path d="M46.0155 38.6386L33.8672 20.6279L30.7548 22.7272L42.9032 40.7379L46.0155 38.6386Z" fill="#00FFA7"/>
<path d="M46.2579 38.5158L34.4258 20.2959L31.2773 22.3406L43.1094 40.5605L46.2579 38.5158Z" fill="#00FFAB"/>
<path d="M46.5026 38.3983L34.9902 19.9746L31.8065 21.964L43.3189 40.3877L46.5026 38.3983Z" fill="#00FFB0"/>
<path d="M46.7496 38.2829L35.5605 19.6611L32.3426 21.5947L43.5317 40.2164L46.7496 38.2829Z" fill="#00FFB4"/>
<path d="M46.9972 38.1736L36.1348 19.3594L32.8836 21.2365L43.7459 40.0507L46.9972 38.1736Z" fill="#00FFB8"/>
<path d="M47.2511 38.0673L36.7188 19.0664L33.4353 20.8865L43.9677 39.8874L47.2511 38.0673Z" fill="#00FFBC"/>
<path d="M47.5039 37.967L37.3047 18.7852L33.9899 20.5476L44.1891 39.7295L47.5039 37.967Z" fill="#00FFC1"/>
<path d="M47.7574 37.8696L37.8945 18.5127L34.5495 20.2171L44.4124 39.574L47.7574 37.8696Z" fill="#00FFC5"/>
<path d="M48.0118 37.7781L38.4883 18.252L35.114 19.8977L44.6376 39.4238L48.0118 37.7781Z" fill="#00FFC9"/>
<path d="M48.2692 37.6893L39.0879 18L35.6855 19.5866L44.8667 39.2759L48.2692 37.6893Z" fill="#00FFCD"/>
<path d="M48.5296 37.6073L39.6934 17.7607L36.2637 19.2877L45.1 39.1343L48.5296 37.6073Z" fill="#00FFD1"/>
<path d="M48.7893 37.529L40.3008 17.5312L36.845 18.9981L45.3336 38.9959L48.7893 37.529Z" fill="#00FFD6"/>
<path d="M49.0523 37.4534L40.9141 17.3105L37.4332 18.7169L45.5715 38.8598L49.0523 37.4534Z" fill="#00FFDA"/>
<path d="M49.3148 37.3853L41.5293 17.1035L38.0245 18.4489L45.8099 38.7307L49.3148 37.3853Z" fill="#00FFDE"/>
<path d="M49.5768 37.3209L42.1465 16.9062L38.6187 18.1903L46.049 38.6049L49.5768 37.3209Z" fill="#00FFE2"/>
<path d="M49.8463 37.2599L42.7734 16.7188L39.2238 17.941L46.2967 38.4822L49.8463 37.2599Z" fill="#00FFE7"/>
<path d="M50.1118 37.2035L43.3984 16.542L39.828 17.7021L46.5413 38.3636L50.1118 37.2035Z" fill="#00FFEB"/>
<path d="M50.3791 37.1534L44.0273 16.3779L40.4372 17.4755L46.7889 38.2511L50.3791 37.1534Z" fill="#00FFEF"/>
<path d="M50.6483 37.1068L44.6602 16.2236L41.0514 17.2584L47.0396 38.1416L50.6483 37.1068Z" fill="#00FFF3"/>
<path d="M50.9158 37.0646L45.293 16.0801L41.6667 17.0517L47.2895 38.0363L50.9158 37.0646Z" fill="#00FFF8"/>
<path d="M51.1873 37.0287L45.9316 15.9492L42.289 16.8574L47.5447 37.9369L51.1873 37.0287Z" fill="#00FFFC"/>
<path d="M51.4554 36.9971L46.5684 15.8291L42.9104 16.6736L47.7974 37.8416L51.4554 36.9971Z" fill="#00FEFF"/>
<path d="M51.7258 36.9688L47.209 15.7188L43.5368 16.4993L48.0537 37.7493L51.7258 36.9688Z" fill="#00FAFF"/>
<path d="M52.0008 36.9458L47.8555 15.6201L44.1703 16.3364L48.3155 37.6621L52.0008 36.9458Z" fill="#00F5FF"/>
<path d="M52.2686 36.9279L48.4961 15.5332L44.7989 16.1851L48.5714 37.5798L52.2686 36.9279Z" fill="#00F1FF"/>
<path d="M52.5391 36.9143L49.1406 15.457L45.4327 16.0443L48.8312 37.5016L52.5391 36.9143Z" fill="#00EDFF"/>
<path d="M52.8145 36.9069L49.791 15.3936L46.0734 15.916L49.0969 37.4294L52.8145 36.9069Z" fill="#00E9FF"/>
<path d="M53.087 36.9027L50.4395 15.3398L46.7133 15.7974L49.3608 37.3602L53.087 36.9027Z" fill="#00E4FF"/>
<path d="M53.3568 36.9046L51.0859 15.2988L47.3523 15.6912L49.6232 37.297L53.3568 36.9046Z" fill="#00E0FF"/>
<path d="M53.6298 36.9097L51.7363 15.2676L47.9964 15.5948L49.8899 37.2369L53.6298 36.9097Z" fill="#00DCFF"/>
<path d="M53.9041 36.9209L52.3887 15.249L48.6436 15.5109L50.1591 37.1828L53.9041 36.9209Z" fill="#00D8FF"/>
<path d="M54.1741 36.9343L53.0371 15.2393L49.2881 15.4357L50.4251 37.1307L54.1741 36.9343Z" fill="#00D4FF"/>
<path d="M54.4457 36.9567L53.6875 15.2451L49.9356 15.3761L50.6938 37.0877L54.4457 36.9567Z" fill="#00CFFF"/>
<path d="M54.7151 36.9803L54.3359 15.2588L50.5823 15.3243L50.9615 37.0458L54.7151 36.9803Z" fill="#00CBFF"/>
<path d="M54.9844 37.009V15.2842H51.2302V37.009H54.9844Z" fill="#00C7FF"/>
<path d="M55.2595 37.0428L55.6387 15.3213L51.8851 15.2558L51.5059 36.9772L55.2595 37.0428Z" fill="#00C3FF"/>
<path d="M55.527 37.0817L56.2852 15.3701L52.5333 15.2391L51.7751 36.9506L55.527 37.0817Z" fill="#00BEFF"/>
<path d="M55.7966 37.1257L56.9336 15.4307L53.1846 15.2342L52.0476 36.9292L55.7966 37.1257Z" fill="#00BAFF"/>
<path d="M56.0666 37.1748L57.582 15.5029L53.837 15.2411L52.3216 36.9129L56.0666 37.1748Z" fill="#00B6FF"/>
<path d="M56.3292 37.228L58.2227 15.5859L54.4828 15.2587L52.5893 36.9009L56.3292 37.228Z" fill="#00B2FF"/>
<path d="M56.5983 37.2855L58.8691 15.6797L55.1355 15.2873L52.8647 36.893L56.5983 37.2855Z" fill="#00ADFF"/>
<path d="M56.8622 37.347L59.5098 15.7842L55.7836 15.3267L53.136 36.8895L56.8622 37.347Z" fill="#00A9FF"/>
<path d="M57.1269 37.4147L60.1504 15.9014L56.4327 15.3789L53.4092 36.8922L57.1269 37.4147Z" fill="#00A5FF"/>
<path d="M57.3867 37.4856L60.7852 16.0283L57.0772 15.441L53.6787 36.8984L57.3867 37.4856Z" fill="#00A1FF"/>
<path d="M57.6494 37.5627L61.4219 16.168L57.7247 15.5161L53.9523 36.9108L57.6494 37.5627Z" fill="#009CFF"/>
<path d="M57.9094 37.642L62.0547 16.3164L58.3695 15.6001L54.2242 36.9257L57.9094 37.642Z" fill="#0098FF"/>
<path d="M58.1687 37.7266L62.6855 16.4766L59.0134 15.696L54.4966 36.9461L58.1687 37.7266Z" fill="#0094FF"/>
<path d="M58.4235 37.8174L63.3105 16.6494L59.6526 15.8049L54.7656 36.9729L58.4235 37.8174Z" fill="#0090FF"/>
<path d="M58.6798 37.9105L63.9355 16.8311L60.2929 15.9228L55.0372 37.0023L58.6798 37.9105Z" fill="#008BFF"/>
<path d="M58.9339 38.008L64.5566 17.0234L60.9304 16.0518L55.3076 37.0363L58.9339 38.008Z" fill="#0087FF"/>
<path d="M59.1857 38.1117L65.1738 17.2285L61.5651 16.1937L55.5769 37.0769L59.1857 38.1117Z" fill="#0083FF"/>
<path d="M59.4374 38.2198L65.7891 17.4443L62.1989 16.3467L55.8472 37.1222L59.4374 38.2198Z" fill="#007FFF"/>
<path d="M59.6871 38.3314L66.4004 17.6699L62.83 16.5098L56.1166 37.1713L59.6871 38.3314Z" fill="#007BFF"/>
<path d="M59.9291 38.4465L67.002 17.9053L63.4523 16.683L56.3794 37.2242L59.9291 38.4465Z" fill="#0076FF"/>
<path d="M60.1752 38.566L67.6055 18.1514L64.0777 16.8674L56.6474 37.282L60.1752 38.566Z" fill="#0072FF"/>
<path d="M60.4157 38.691L68.2012 18.4092L64.6963 17.0638L56.9109 37.3456L60.4157 38.691Z" fill="#006EFF"/>
<path d="M60.6567 38.8196L68.7949 18.6768L65.3141 17.2704L57.1759 37.4133L60.6567 38.8196Z" fill="#006AFF"/>
<path d="M60.8982 38.9528L69.3867 18.9551L65.931 17.4882L57.4424 37.486L60.8982 38.9528Z" fill="#0065FF"/>
<path d="M61.1286 39.0907L69.9648 19.2441L66.5352 17.7172L57.699 37.5638L61.1286 39.0907Z" fill="#0061FF"/>
<path d="M61.3636 39.2313L70.5449 19.542L67.1425 17.9554L57.9612 37.6447L61.3636 39.2313Z" fill="#005DFF"/>
<path d="M61.5956 39.3767L71.1191 19.8506L67.7449 18.2049L58.2214 37.731L61.5956 39.3767Z" fill="#0059FF"/>
<path d="M61.8227 39.5249L71.6855 20.168L68.3405 18.4636L58.4777 37.8205L61.8227 39.5249Z" fill="#0054FF"/>
<path d="M62.0469 39.6779L72.2461 20.4961L68.9314 18.7336L58.7322 37.9155L62.0469 39.6779Z" fill="#0050FF"/>
<path d="M62.2684 39.8359L72.8008 20.835L69.5173 19.0149L58.9849 38.0158L62.2684 39.8359Z" fill="#004CFF"/>
<path d="M62.4892 39.9959L73.3516 21.1816L70.1003 19.3046L59.238 38.1188L62.4892 39.9959Z" fill="#0048FF"/>
<path d="M62.7054 40.1599L73.8945 21.5381L70.6766 19.6045L59.4875 38.2263L62.7054 40.1599Z" fill="#0043FF"/>
<path d="M62.9212 40.328L74.4336 21.9043L71.2499 19.9149L59.7375 38.3385L62.9212 40.328Z" fill="#003FFF"/>
<path d="M63.1327 40.5012L74.9648 22.2812L71.8163 20.2366L59.9842 38.4565L63.1327 40.5012Z" fill="#003BFF"/>
<path d="M63.338 40.6767L75.4863 22.666L72.374 20.5667L60.2256 38.5774L63.338 40.6767Z" fill="#0037FF"/>
<path d="M63.5411 40.8564L76.002 23.0605L72.9267 20.9072L60.4659 38.7031L63.5411 40.8564Z" fill="#0032FF"/>
<path d="M63.7442 41.0386L76.5137 23.4629L73.4765 21.2562L60.707 38.832L63.7442 41.0386Z" fill="#002EFF"/>
<path d="M63.9433 41.2262L77.0176 23.876L74.0194 21.6167L60.9451 38.9668L63.9433 41.2262Z" fill="#002AFF"/>
<path d="M64.1366 41.4153L77.5117 24.2959L74.5534 21.9846L61.1783 39.104L64.1366 41.4153Z" fill="#0026FF"/>
<path d="M64.3301 41.6079L78.002 24.7246L75.0844 22.362L61.4126 39.2454L64.3301 41.6079Z" fill="#0022FF"/>
<path d="M54.2681 88.4681H52.1355C52.0366 88.4322 51.9373 88.4232 51.8375 88.4232C50.6989 88.3692 49.5686 88.2775 48.4481 88.1252C46.3522 87.854 44.2914 87.393 42.2854 86.7523C38.8426 85.6505 35.6347 84.0695 32.6617 82.0092C29.9049 80.0935 27.466 77.8352 25.342 75.2339C22.8381 72.1802 20.8869 68.81 19.5037 65.1069C18.2653 61.8184 17.5246 58.4132 17.2981 54.8985C17.2981 54.7088 17.2622 54.519 17.1992 54.3293V50.6162C17.2622 50.4526 17.2891 50.2817 17.2981 50.1103C17.3431 49.2699 17.433 48.4295 17.5427 47.599C18.0853 43.5881 19.2773 39.7838 21.1121 36.179C22.3771 33.6943 23.9135 31.3826 25.7201 29.2492C27.5095 27.1357 29.5157 25.2468 31.738 23.594C35.3619 20.9014 39.3473 18.9593 43.7024 17.7674C45.8166 17.1899 47.9771 16.8105 50.1631 16.6292C50.5512 16.5932 50.9588 16.6292 51.3469 16.5303H54.9975C55.2774 16.6112 55.5669 16.5662 55.8466 16.5932C57.2933 16.7191 58.7299 16.9009 60.1567 17.1806C64.6482 18.066 68.8134 19.7468 72.6637 22.2299C75.6552 24.1541 78.2937 26.4757 80.5977 29.1768C82.4507 31.3452 84.0221 33.7033 85.3057 36.2499C86.8238 39.2589 87.9077 42.411 88.5235 45.7263C88.8483 47.4787 89.0929 49.2494 89.1011 51.0383C89.1011 51.157 89.1281 51.2829 89.1371 51.3995V53.5317C89.1011 53.6666 89.1011 53.8114 89.0921 53.956C89.0921 54.2989 89.0921 54.6433 89.0652 54.9861C88.9015 57.1728 88.5591 59.3315 88.0165 61.4634C86.9775 65.4658 85.3048 69.1789 82.9825 72.6022C81.2561 75.1501 79.2417 77.4451 76.9278 79.4772C74.6238 81.501 72.1019 83.2086 69.3635 84.59C66.2091 86.1794 62.8929 87.2826 59.4136 87.8869C58.0767 88.1216 56.73 88.2748 55.3749 88.3563C55.0179 88.3976 54.6391 88.389 54.2681 88.4681Z" fill="#383838"/>
<path style="mix-blend-mode:lighten" d="M43.8139 37.5739C43.7887 38.2348 43.9062 38.9573 44.1009 39.68C44.4718 41.0549 45.0867 42.3148 45.8117 43.5049C47.4632 46.2112 49.545 48.5281 51.8037 50.6793C51.9886 50.8561 52.2088 51.0054 52.4446 51.1193C52.6808 51.2421 52.9166 51.2421 53.1606 51.1368C53.3964 51.0315 53.6073 50.8817 53.7844 50.6871C54.5683 49.8767 55.3431 49.0651 56.085 48.2275C57.1299 47.0374 58.1249 45.8132 59.0266 44.4998C59.8447 43.3099 60.5774 42.0581 61.1163 40.7008C61.6551 39.3518 61.9171 37.9603 61.7401 36.4973C61.4451 34.0831 60.4595 32.0376 58.6978 30.4336C56.6147 28.5402 54.1883 27.7821 51.4577 28.2044C47.0165 28.8927 43.7968 32.9825 43.8139 37.5739Z" fill="url(#paint0_radial_157_135)"/>
<path d="M66.7975 70.48C66.2385 70.497 65.6108 70.4278 64.9833 70.2946C63.1269 69.8882 61.55 69.0441 60.3383 67.5476C59.6013 66.635 58.9817 65.6461 58.4477 64.6059C57.8199 63.3803 57.2953 62.1034 56.8378 60.8109C56.2788 59.2474 55.8042 57.6498 55.4388 56.035C55.2359 55.1303 55.464 54.5635 56.4645 54.2519C57.7355 53.8548 59.016 53.4997 60.3212 53.2118C62.4822 52.7382 64.6603 52.4345 66.882 52.5094C67.5096 52.5345 68.1359 52.6019 68.7555 52.7118C70.5526 53.025 72.078 53.8534 73.3238 55.1631C75.4519 57.3947 76.2983 60.0573 75.7735 63.0924C75.0194 67.4293 71.1708 70.5142 66.7975 70.48Z" fill="url(#paint1_radial_157_135)"/>
<path d="M38.8051 70.48C39.3641 70.497 39.9917 70.4278 40.6192 70.2946C42.4757 69.8882 44.0525 69.0441 45.2643 67.5476C46.0012 66.635 46.6208 65.6461 47.1548 64.6059C47.7826 63.3803 48.3072 62.1034 48.7647 60.8109C49.3237 59.2474 49.7983 57.6498 50.1637 56.035C50.3666 55.1303 50.1385 54.5635 49.138 54.2519C47.867 53.8548 46.5865 53.4997 45.2813 53.2118C43.1204 52.7382 40.9422 52.4345 38.7205 52.5094C38.0929 52.5345 37.4666 52.6019 36.847 52.7118C35.0499 53.025 33.5246 53.8534 32.2787 55.1631C30.1507 57.3947 29.3042 60.0573 29.829 63.0924C30.5832 67.4293 34.4317 70.5142 38.8051 70.48Z" fill="url(#paint2_radial_157_135)"/>
</g>
<defs>
<filter id="filter0_d_157_135" x="15.8984" y="15.2344" width="104.531" height="104.53" filterUnits="userSpaceOnUse" color-interpolation-filters="sRGB">
<feFlood flood-opacity="0" result="BackgroundImageFix"/>
<feColorMatrix in="SourceAlpha" type="matrix" values="0 0 0 0 0 0 0 0 0 0 0 0 0 0 0 0 0 0 127 0" result="hardAlpha"/>
<feOffset dx="20" dy="20"/>
<feGaussianBlur stdDeviation="5"/>
<feComposite in2="hardAlpha" operator="out"/>
<feColorMatrix type="matrix" values="0 0 0 0 0 0 0 0 0 0 0 0 0 0 0 0 0 0 0.25 0"/>
<feBlend mode="normal" in2="BackgroundImageFix" result="effect1_dropShadow_157_135"/>
<feBlend mode="normal" in="SourceGraphic" in2="effect1_dropShadow_157_135" result="shape"/>
</filter>
<radialGradient id="paint0_radial_157_135" cx="0" cy="0" r="1" gradientUnits="userSpaceOnUse" gradientTransform="translate(52.9768 50.015) rotate(4.82254) scale(9.55182 17.6566)">
<stop stop-color="white"/>
<stop offset="1" stop-color="#009BD8"/>
</radialGradient>
<radialGradient id="paint1_radial_157_135" cx="0" cy="0" r="1" gradientUnits="userSpaceOnUse" gradientTransform="translate(55.471 55.4823) rotate(21.7759) scale(21.0637 11.256)">
<stop stop-color="white"/>
<stop offset="1" stop-color="#FF3044"/>
</radialGradient>
<radialGradient id="paint2_radial_157_135" cx="0" cy="0" r="1" gradientUnits="userSpaceOnUse" gradientTransform="translate(50.0198 54.7191) rotate(146.321) scale(21.2864 9.67577)">
<stop stop-color="white"/>
<stop offset="1" stop-color="#FCFF7C"/>
</radialGradient>
</defs>
</svg>
