<svg width="108" height="109" viewBox="0 0 108 109" fill="none" xmlns="http://www.w3.org/2000/svg">
<g filter="url(#filter0_d_157_118)">
<path d="M76.3148 35.7579L42.3527 1.79991C40.3986 -0.155959 37.2267 -0.155959 35.2701 1.79991L28.2183 8.85245L37.1633 17.7975C39.2428 17.0954 41.6264 17.5661 43.2832 19.2233C44.9486 20.8908 45.416 23.2947 44.6963 25.3811L53.3177 34.0026C55.4035 33.2838 57.8101 33.7482 59.4756 35.4166C61.8041 37.7445 61.8041 41.5164 59.4756 43.8449C57.1467 46.1741 53.3748 46.1741 51.0446 43.8449C49.2938 42.0927 48.8607 39.5202 49.7475 37.3629L41.7071 29.3225L41.7064 50.4808C42.2741 50.7618 42.8098 51.1369 43.2829 51.6079C45.6107 53.9355 45.6107 57.7068 43.2829 60.0382C40.9544 62.3657 37.1807 62.3657 34.8546 60.0382C32.5265 57.707 32.5265 53.9357 34.8546 51.6079C35.43 51.0336 36.0958 50.5989 36.8061 50.3075V28.9525C36.0954 28.6624 35.4304 28.2309 34.8542 27.6519C33.0907 25.8898 32.666 23.3016 33.5704 21.1361L24.7524 12.3167L1.46736 35.601C-0.489121 37.5583 -0.489121 40.7303 1.46736 42.6863L35.4274 76.6443C37.3826 78.6002 40.5535 78.6002 42.5114 76.6443L76.3144 42.8467C78.2703 40.8899 78.2703 37.717 76.3144 35.7607" fill="#F05133"/>
</g>
<defs>
<filter id="filter0_d_157_118" x="0" y="0.333008" width="107.781" height="107.778" filterUnits="userSpaceOnUse" color-interpolation-filters="sRGB">
<feFlood flood-opacity="0" result="BackgroundImageFix"/>
<feColorMatrix in="SourceAlpha" type="matrix" values="0 0 0 0 0 0 0 0 0 0 0 0 0 0 0 0 0 0 127 0" result="hardAlpha"/>
<feOffset dx="20" dy="20"/>
<feGaussianBlur stdDeviation="5"/>
<feComposite in2="hardAlpha" operator="out"/>
<feColorMatrix type="matrix" values="0 0 0 0 0 0 0 0 0 0 0 0 0 0 0 0 0 0 0.25 0"/>
<feBlend mode="normal" in2="BackgroundImageFix" result="effect1_dropShadow_157_118"/>
<feBlend mode="normal" in="SourceGraphic" in2="effect1_dropShadow_157_118" result="shape"/>
</filter>
</defs>
</svg>
