<svg width="126" height="78" viewBox="0 0 126 78" fill="none" xmlns="http://www.w3.org/2000/svg">
<g filter="url(#filter0_d_157_527)">
<path d="M71.9994 47.9996C61.9635 47.9996 53.1496 40.2817 47.9996 32.5717C42.8497 40.2817 34.0357 47.9996 23.9998 47.9996C10.7659 47.9996 0 37.2337 0 23.9998C0 10.7659 10.7659 0 23.9998 0C35.8697 0 43.7677 8.89593 47.9996 15.5099C52.2316 8.89593 60.1295 0 71.9994 0C85.2333 0 95.9992 10.7659 95.9992 23.9998C95.9992 37.2337 85.2333 47.9996 71.9994 47.9996ZM52.3616 24.0738C55.6556 31.2278 63.9995 39.9997 71.9994 39.9997C80.8214 39.9997 87.9993 32.8217 87.9993 23.9998C87.9993 15.1779 80.8214 7.99994 71.9994 7.99994C61.1675 7.99994 54.3976 19.9078 52.3616 24.0738ZM23.9998 7.99994C15.1779 7.99994 7.99994 15.1779 7.99994 23.9998C7.99994 32.8217 15.1779 39.9997 23.9998 39.9997C32.0337 39.9997 40.4117 31.1558 43.6457 24.0738C41.6737 20.0358 34.8897 7.99994 23.9998 7.99994ZM31.9997 24.9998V22.9998C31.9997 22.4478 31.5517 21.9998 30.9998 21.9998H16.9999C16.4479 21.9998 15.9999 22.4478 15.9999 22.9998V24.9998C15.9999 25.5518 16.4479 25.9998 16.9999 25.9998H30.9998C31.5517 25.9998 31.9997 25.5518 31.9997 24.9998ZM78.9994 21.9998H73.9994V16.9999C73.9994 16.4479 73.5514 15.9999 72.9994 15.9999H70.9994C70.4474 15.9999 69.9994 16.4479 69.9994 16.9999V21.9998H64.9995C64.4475 21.9998 63.9995 22.4478 63.9995 22.9998V24.9998C63.9995 25.5518 64.4475 25.9998 64.9995 25.9998H69.9994V30.9998C69.9994 31.5517 70.4474 31.9997 70.9994 31.9997H72.9994C73.5514 31.9997 73.9994 31.5517 73.9994 30.9998V25.9998H78.9994C79.5514 25.9998 79.9994 25.5518 79.9994 24.9998V22.9998C79.9994 22.4478 79.5514 21.9998 78.9994 21.9998Z" fill="url(#paint0_linear_157_527)"/>
</g>
<defs>
<filter id="filter0_d_157_527" x="0" y="0" width="126" height="78" filterUnits="userSpaceOnUse" color-interpolation-filters="sRGB">
<feFlood flood-opacity="0" result="BackgroundImageFix"/>
<feColorMatrix in="SourceAlpha" type="matrix" values="0 0 0 0 0 0 0 0 0 0 0 0 0 0 0 0 0 0 127 0" result="hardAlpha"/>
<feOffset dx="20" dy="20"/>
<feGaussianBlur stdDeviation="5"/>
<feComposite in2="hardAlpha" operator="out"/>
<feColorMatrix type="matrix" values="0 0 0 0 0 0 0 0 0 0 0 0 0 0 0 0 0 0 0.25 0"/>
<feBlend mode="normal" in2="BackgroundImageFix" result="effect1_dropShadow_157_527"/>
<feBlend mode="normal" in="SourceGraphic" in2="effect1_dropShadow_157_527" result="shape"/>
</filter>
<linearGradient id="paint0_linear_157_527" x1="42.3497" y1="-3.94597" x2="51.7436" y2="42.5157" gradientUnits="userSpaceOnUse">
<stop stop-color="#00B3BA"/>
<stop offset="0.998" stop-color="#00979C"/>
</linearGradient>
</defs>
</svg>
