<svg width="112" height="63" viewBox="0 0 112 63" fill="none" xmlns="http://www.w3.org/2000/svg">
<g filter="url(#filter0_d_157_84)">
<path d="M4.44518 0.952465C3.73796 1.01185 3.12054 1.58046 4.00276 2.53253C5.69738 3.48969 2.33147 4.19404 3.31418 4.83442C3.62756 5.50886 3.2891 6.26028 2.37281 6.38121C1.03074 6.49702 1.15795 8.32973 2.46595 7.36916C3.92554 6.90591 2.71826 7.55234 2.03019 7.68518C0.485446 8.13481 -0.567176 9.67793 0.330376 11.0881C1.18876 13.0297 1.41749 15.1955 2.08341 17.2154C3.18534 20.3219 4.79533 23.2779 6.88678 25.8309C7.87971 27.2786 9.33134 28.3072 10.6956 29.3802C12.0376 30.2505 13.5321 31.1211 15.0598 31.5656C17.7729 32.5586 20.6845 32.6515 23.5356 32.8763C25.2728 32.8729 27.0164 32.7504 28.7315 32.4438C30.2745 32.6107 31.3849 31.2915 32.7798 31.9881C33.6245 31.2387 34.8556 31.5651 35.7004 31.0201C36.3254 28.8946 33.5537 30.5987 32.6766 29.5598C31.7229 30.6805 30.9224 29.4369 29.766 29.786C27.7972 29.8848 29.9152 28.904 29.8658 28.003C28.8218 27.2026 27.6427 29.1021 26.9751 29.613C25.3265 29.315 23.6941 28.8464 22.1817 28.1328C20.4582 27.2352 18.7665 26.1674 17.5181 24.6533C16.2118 23.1069 14.7678 21.5431 14.1717 19.5572C12.9114 16.2787 12.9934 12.7289 12.6715 9.28517C12.7907 6.95358 15.2528 9.53611 16.3172 8.69306C15.9528 7.48384 14.0106 7.10106 12.9376 6.61736C11.9021 6.54583 11.5247 5.61786 10.4228 5.54292C10.4756 4.24854 8.39811 4.96078 7.64192 4.03938C8.38619 2.11824 5.17615 4.08499 5.42651 2.42273C5.94938 1.34209 5.15241 0.893059 4.44518 0.952465ZM4.45515 1.11546C4.62301 1.07358 4.81608 1.10726 5.01066 1.26182C5.93376 2.50511 3.31282 1.11924 4.2223 2.30632C3.6692 2.04702 3.95155 1.24111 4.45515 1.11546ZM71.3864 1.73085C71.2723 1.73085 70.9735 1.88641 70.4916 2.2032C69.8955 2.5881 69.2662 2.8916 68.6088 3.11131C68.1966 3.25267 67.9934 3.44965 67.9934 3.70342C67.9934 3.87884 68.1363 4.01548 68.4258 4.11256C69.0407 4.31524 69.4442 4.59479 69.6367 4.95415C69.778 5.23517 69.8496 5.73395 69.8496 6.45437V17.9605C69.8496 18.9688 69.6064 19.5344 69.1244 19.657C68.5879 19.7966 68.3194 20.0032 68.3194 20.2757C68.3194 20.3898 68.329 20.4805 68.346 20.5418C68.3886 20.7172 68.6746 20.7824 69.2009 20.7381C71.2906 20.5712 72.7746 20.53 73.6517 20.6083C73.9327 20.6356 74.1042 20.6228 74.1706 20.5751C74.237 20.5274 74.2704 20.4019 74.2704 20.1992C74.2704 19.9437 74.0638 19.7896 73.6517 19.7368C72.984 19.667 72.5583 19.5701 72.3743 19.4474C72.112 19.272 71.9689 18.9051 71.9519 18.3431C71.9348 17.781 71.9286 17.3505 71.9286 17.0524C71.9286 16.6317 72.1351 16.306 72.5473 16.0778C72.9152 15.8138 73.1725 15.6819 73.3224 15.6819C73.445 15.6819 73.5467 15.7551 73.6251 15.8948C74.5907 17.5281 75.7681 19.0898 77.1544 20.5817C77.3639 20.8014 77.7167 20.8618 78.2089 20.7647C79.2018 20.6863 80.0024 20.6435 80.6172 20.635C81.0294 20.6179 81.2359 20.4525 81.2359 20.146C81.2359 19.9007 81.1867 19.7498 81.0896 19.6936C80.9925 19.6374 80.7448 19.6071 80.3411 19.6071C79.7978 19.6071 79.2114 19.3402 78.5881 18.8054C77.6139 17.9556 76.578 16.694 75.4812 15.0266C75.1832 14.5616 75.0355 14.2677 75.0355 14.1451C75.0355 14.0667 75.0687 14.0016 75.1386 13.9488C76.0855 13.0019 76.9785 12.3377 77.813 11.9596C78.4108 11.6786 79.0462 11.5228 79.7224 11.4973C80.1533 11.4717 80.3677 11.3096 80.3677 11.0116C80.3677 10.6948 80.2311 10.5311 79.9586 10.5226C79.1258 10.5226 78.2869 10.5178 77.4438 10.5093C76.2329 10.5008 75.3114 10.4548 74.6795 10.3663C74.3985 10.322 74.2427 10.4555 74.2172 10.7621C74.2001 11.0687 74.3464 11.2386 74.6529 11.2744C75.3631 11.3715 75.7174 11.5366 75.7174 11.7733C75.7174 11.9045 75.6126 12.0826 75.4014 12.3023C74.3386 13.2237 73.4459 13.9671 72.7169 14.5376C72.4444 14.7658 72.2427 14.8802 72.1115 14.8802C71.9889 14.8802 71.9253 14.7658 71.9253 14.5376L71.902 6.29804C71.902 5.21826 71.9068 4.35712 71.9153 3.71674C71.9238 2.78683 71.9286 2.35147 71.9286 2.41278C71.9286 1.95634 71.7457 1.73085 71.3864 1.73085ZM41.332 1.82399C41.1924 1.82399 40.857 1.97956 40.3308 2.29634C39.6904 2.69998 39.0707 2.9987 38.4746 3.19115C38.0795 3.32229 37.8825 3.5226 37.8825 3.78658C37.8825 3.96201 38.0192 4.09533 38.2917 4.19241C38.8094 4.37634 39.17 4.63697 39.3761 4.97079C39.5822 5.3046 39.6888 5.82733 39.6888 6.53754V18.4495C39.6888 19.1682 39.4488 19.602 38.9703 19.7468C38.4917 19.8916 38.2551 20.0679 38.2551 20.279C38.2551 20.5158 38.2947 20.662 38.3782 20.7148C38.4616 20.7659 38.6841 20.7739 39.0435 20.7381C40.8352 20.5882 42.3332 20.5741 43.5441 20.6882C43.9393 20.7308 44.1362 20.5767 44.1362 20.2258C44.1362 19.9721 43.941 19.8227 43.5441 19.7801C42.9037 19.7017 42.4509 19.5396 42.187 19.2978C41.923 19.0559 41.7911 18.6683 41.7911 18.1335L41.7412 6.37789C41.731 5.53654 41.7389 4.67848 41.7645 3.80988C41.8003 2.897 41.8177 2.45684 41.8177 2.49261C41.8177 2.04468 41.6573 1.82399 41.332 1.82399ZM23.825 3.20779C23.7279 3.22482 23.6597 3.31698 23.6154 3.48389C23.5286 3.75639 23.6604 3.97083 24.0113 4.12922C24.5716 4.38469 24.9561 4.66911 25.1622 4.98079C25.3683 5.29246 25.4716 5.73896 25.4716 6.31802V17.588C25.4716 19.0016 25.041 19.7562 24.1809 19.8533C23.8045 19.8891 23.6154 20.0176 23.6154 20.2458C23.6154 20.6069 23.8028 20.761 24.1809 20.7082C25.5315 20.5242 27.2474 20.518 29.3269 20.6849C30.0456 20.7462 30.4317 20.6318 30.4845 20.3423C30.5373 20.0102 30.3482 19.8211 29.919 19.7768C29.0777 19.6712 28.5295 19.552 28.2758 19.4209C27.9505 19.2625 27.7868 18.9621 27.7868 18.5227V12.6017C27.7868 12.4893 27.8646 12.4287 28.0229 12.4287C29.4178 12.4287 30.4284 12.4669 31.0467 12.5418C31.6649 12.6168 32.0891 13.2047 32.3174 14.3015C32.3804 14.591 32.5312 14.7196 32.7764 14.694C33.0745 14.677 33.2207 14.5563 33.2122 14.3281C33.1236 12.4155 33.2031 10.8617 33.4484 9.66778C33.4926 9.45659 33.3639 9.31993 33.0658 9.25864C32.715 9.18029 32.5117 9.31694 32.4504 9.66778C32.3533 10.3099 32.2548 10.7054 32.1544 10.8586C32.0539 11.0119 31.8551 11.1056 31.5656 11.1414C30.0822 11.2385 28.951 11.2926 28.1693 11.3011C27.9155 11.3096 27.7901 11.2143 27.7901 11.0117V5.04738C27.7901 4.84471 27.8312 4.71285 27.9198 4.65154C28.0612 4.55446 28.3615 4.50851 28.8179 4.50851C30.8106 4.50851 32.0528 4.54659 32.5535 4.62493C33.0185 4.68625 33.3935 4.8691 33.6745 5.16715C33.913 5.42091 34.1623 5.86732 34.4263 6.5077C34.5217 6.74444 34.6933 6.86362 34.9386 6.86362C35.1838 6.86362 35.3045 6.72698 35.3045 6.45448C35.3385 5.06813 35.4307 4.08153 35.5806 3.49395C35.5891 3.45818 35.5938 3.42513 35.5972 3.38085C35.5972 3.24971 35.3033 3.19871 34.7157 3.23448C32.9513 3.34007 30.8573 3.39415 28.4354 3.39415C26.3814 3.39415 25.077 3.34964 24.5235 3.2611C24.1454 3.19979 23.9136 3.18224 23.825 3.20779ZM6.45768 3.52047C6.69271 3.57029 6.77385 3.71056 6.12836 3.79656L5.8689 3.78326C5.83484 3.51161 6.22264 3.47065 6.45768 3.52047ZM6.1982 4.42858C6.66486 4.63296 7.62157 4.72758 7.77825 5.24023C6.8228 4.74291 7.96838 5.83946 7.1662 5.81902C6.7336 5.82413 5.93252 4.89524 6.1982 4.42858ZM5.95871 5.20032C7.0402 6.02294 5.35604 5.19986 4.67138 5.71591C3.59329 5.82491 5.85312 5.10835 5.95871 5.20032ZM8.81611 5.69263C8.95412 5.73075 8.9541 5.86128 8.72631 6.13505C9.56425 7.1365 8.91431 6.7987 8.34376 6.08849C8.84449 6.43423 8.45827 7.92713 7.68845 6.90014C7.14345 5.88507 6.79841 6.57116 7.37577 7.26604C6.80863 6.19817 5.16689 6.65437 3.96618 7.06313C3.19125 6.97797 5.97993 6.40103 6.28139 6.26478C6.74762 6.27372 8.4021 5.57831 8.81611 5.69263ZM12.1758 6.82361C12.5183 6.8192 12.8561 6.8321 13.1904 6.8602C13.7269 7.48525 12.7843 8.5434 11.8033 8.61323C10.6111 9.05945 9.39758 9.16864 8.29054 9.31511C6.87013 9.13628 5.85017 10.414 4.37866 10.5758C4.77038 9.85029 4.05685 10.3255 3.31088 10.2898C3.69068 11.7544 0.682942 9.9005 2.45931 9.54795C1.12746 9.07448 1.10883 10.474 1.24848 11.271H1.15868C-0.060766 9.70076 1.29549 9.06034 2.83853 8.85937C2.54559 9.5832 3.25987 9.81597 3.94623 9.94711C5.05838 9.64055 3.21465 9.44333 4.056 9.15209C4.51755 9.06693 2.58454 8.68979 4.19571 8.47349C5.84775 8.19588 7.33406 7.54675 8.97248 7.20612C10.0812 6.98642 11.1483 6.83686 12.1758 6.82361ZM11.8099 7.19617C11.6641 7.15084 11.325 7.24202 11.1513 7.69846C11.2773 7.98629 11.3398 7.61429 11.3143 7.51551C11.9095 7.42439 11.9557 7.24151 11.8099 7.19617ZM8.3737 7.80825C7.89705 7.78631 7.11613 7.88947 6.84022 8.22073C7.19106 8.38082 7.57686 7.77773 8.08099 8.15753C9.02197 7.9787 8.85036 7.83018 8.3737 7.80825ZM15.1796 7.89473C15.4178 7.85583 16.1556 8.13132 15.8948 8.59329C15.7159 8.64438 15.7465 8.37478 15.6153 8.3305C15.075 8.05522 15.0366 7.91807 15.1796 7.89473ZM5.93875 8.53341C5.81418 8.53327 5.7145 8.5897 5.70258 8.74298L5.94209 8.96253C6.89882 9.04045 6.31245 8.5338 5.93875 8.53341ZM5.4032 8.97249C5.22559 8.94654 5.06102 9.04493 4.97076 9.37832C5.13766 9.33744 5.40277 9.4337 5.56287 9.55462C6.57197 10.2444 5.93601 9.05034 5.4032 8.97249ZM11.8931 9.13548C12.7787 8.96216 12.5203 11.2547 12.2357 11.9596C12.7722 11.5934 12.6689 13.6613 12.4951 14.4312C12.7881 14.0377 12.9086 15.0678 12.5816 15.795C12.6089 15.6758 13.2903 15.5719 12.7879 16.4337C12.4047 15.5889 12.2382 18.1521 12.4852 17.0025C13.1613 15.9159 12.9843 16.9447 13.1904 17.4249C13.3232 18.4213 13.7677 19.3403 13.9022 20.2225C14.5273 20.8526 13.636 20.4254 13.6394 21.277C13.8421 21.03 14.6691 21.6238 14.664 22.5078C14.7321 21.1061 14.8126 22.1799 15.4956 22.5443C16.0661 23.464 16.4935 24.3245 17.3451 25.0824C18.0093 25.8505 17.3034 25.3109 17.5912 25.781C18.2963 27.0311 19.9299 27.7558 21.3435 28.0828C21.9634 28.8901 22.894 29.6931 24.1543 29.3269C23.0881 29.9843 27.1571 30.1631 25.7809 30.5344C25.0656 30.9227 24.3869 30.2841 23.6886 30.3182C22.7178 29.9844 21.1832 28.9614 20.1426 29.6562C18.7035 30.5572 20.8801 28.6517 19.7135 29.5032C18.5315 30.922 18.9106 28.6205 17.7576 29.3103C17.6911 29.0906 16.7326 29.03 17.4582 28.6417C16.8076 28.6008 17.2132 28.5591 17.4482 28.0396C17.1689 27.9817 15.6163 28.0366 15.0066 27.5273C14.2879 26.5923 15.1321 26.972 15.8814 27.1082C14.679 27.3194 16.295 28.0103 17.0989 27.6271C16.7379 27.4739 16.3246 26.6934 15.3692 26.0105C14.0339 25.2066 12.9351 24.823 11.5504 24.1809C10.0517 23.2919 11.8859 23.8656 12.4053 24.334C13.9007 24.9931 13.3121 23.4089 12.4452 22.9967C11.4949 23.0359 11.2506 21.9441 10.4893 22.0054C11.6917 22.1979 12.5265 21.6945 11.1878 20.4853C9.9156 19.0001 11.7191 21.6058 10.9783 21.2703C10.6411 20.8258 10.8937 20.1863 9.81735 19.9564C9.80543 20.3668 9.66984 21.0028 9.43481 20.1393C9.13506 20.1904 8.79191 20.5194 8.54666 19.6304C8.77828 18.6204 7.54654 18.3898 7.35579 17.7443C8.42025 18.4238 8.90197 17.8881 8.14748 17.1455C7.62802 16.2378 7.5555 16.9496 7.26597 17.0757C6.22195 18.1418 7.17039 15.2365 6.70714 16.0744C6.24048 16.0608 6.50901 16.588 6.51753 17.242C4.99152 16.8639 6.88806 18.0451 7.32917 18.6957C6.63259 17.9667 6.75072 19.2421 6.16825 18.6358C5.97068 18.0993 5.94314 17.2522 4.97406 17.1023C6.07599 16.7208 4.31864 15.9457 4.46511 15.9048C5.09527 15.3308 5.1758 14.542 5.93539 15.7751C4.97312 15.6967 5.90823 17.3634 6.14496 16.8661C6.1075 16.0129 6.5383 15.1173 5.08383 14.7239C4.65634 15.2996 3.9195 13.5961 4.77447 13.9555C4.66206 12.8246 6.10055 13.4913 6.00858 13.0008C6.75114 12.6755 5.10965 11.6252 5.99528 11.2045C6.67312 11.6167 8.43132 10.556 7.24935 10.4095C7.98851 10.4027 8.5814 10.7265 8.65976 9.97707C9.25756 10.1065 10.8747 10.6214 9.40489 9.81074C9.87495 9.57741 10.8684 9.38017 11.4407 9.37166C11.6172 9.23435 11.7665 9.16025 11.8931 9.13548ZM62.3717 10.0869C61.2408 10.0869 60.3368 10.3394 59.6607 10.8486C58.9317 11.3766 58.5696 12.1121 58.5696 13.0607C58.5696 13.8322 58.8032 14.4471 59.2682 14.9035C59.6974 15.3327 60.5521 15.8332 61.8329 16.4038C62.7185 16.7904 63.3159 17.1288 63.6225 17.4183C63.9035 17.6738 64.0449 17.9883 64.0449 18.3664C64.0449 19.2264 63.427 19.657 62.1888 19.657C60.7224 19.657 59.6595 19.0835 59.0021 17.9339C58.8522 17.6801 58.6711 17.5657 58.4599 17.5913C58.2487 17.6083 58.1438 17.8482 58.1438 18.3131C58.1438 19.3929 58.1805 19.9968 58.2503 20.1194C58.3644 20.2505 58.7775 20.3934 59.4877 20.5518C60.312 20.7273 61.1383 20.818 61.9626 20.818C63.2008 20.818 64.1779 20.5414 64.8932 19.993C65.6085 19.4446 65.9643 18.7075 65.9643 17.7776C65.9643 16.9362 65.7021 16.2643 65.1793 15.7584C64.7756 15.3735 64.0114 14.9365 62.8873 14.4545C61.8161 13.9895 61.1378 13.6463 60.8482 13.4266C60.5229 13.1711 60.3592 12.833 60.3592 12.4021C60.3592 11.6306 60.9598 11.2445 62.1622 11.2445C63.2249 11.2445 64.1035 11.8084 64.7967 12.941C64.8938 13.0993 65.086 13.1486 65.3755 13.0873C65.6463 13.0175 65.7703 12.9253 65.7448 12.8112C65.525 11.8813 65.3788 11.1712 65.309 10.679C65.2817 10.5121 64.9529 10.3706 64.321 10.2565C63.7334 10.1441 63.0819 10.0869 62.3717 10.0869ZM51.4145 10.1401C50.3789 10.1401 49.3019 10.4373 48.1778 11.0249C47.1066 11.5869 46.5712 12.0778 46.5712 12.4985C46.5712 13.173 46.9318 13.4765 47.6523 13.4066C48.2841 13.3538 48.7687 12.9884 49.1059 12.3122C49.4431 11.6361 49.8023 11.2977 50.1804 11.2977C51.5054 11.2977 52.1392 12.0207 52.0864 13.4598L52.0631 14.3014C52.0546 14.6693 51.7511 14.9125 51.155 15.0266C47.6789 15.6857 45.9425 16.7723 45.9425 18.2898C45.9425 19.0886 46.2046 19.7209 46.7308 20.1859C47.2128 20.6066 47.8133 20.8179 48.5338 20.8179C49.2968 20.8179 50.0579 20.6384 50.8124 20.279C51.5669 19.9197 51.9848 19.7368 52.0631 19.7368C52.1687 19.7368 52.3513 19.9053 52.6153 20.2391C52.8776 20.5729 53.1811 20.7381 53.5234 20.7381C53.9271 20.7381 54.4657 20.5522 55.1368 20.1792C55.8078 19.8063 56.1447 19.5283 56.1447 19.3443C56.1447 19.002 56.016 18.8304 55.7588 18.8287C55.7145 18.8287 55.559 18.851 55.2865 18.8952C55.014 18.9395 54.8314 18.9618 54.7343 18.9618C54.2438 18.9618 54.0006 18.6774 54.0091 18.1069L54.0623 12.6815C54.0794 10.9868 53.1959 10.1401 51.4145 10.1401ZM11.7966 10.5426C11.5727 10.6068 11.2225 11.7971 11.464 12.2224C11.9953 13.0689 12.527 10.142 12.0893 11.1247C11.8543 12.3765 11.614 11.8534 11.9529 10.9218C11.9325 10.6225 11.8712 10.5212 11.7966 10.5426ZM4.31878 11.6503C4.40342 11.6465 4.55207 11.6533 4.78114 11.6769C5.96312 11.636 5.58361 12.3328 4.91087 12.3788C4.89554 12.4231 4.29461 12.2346 4.54497 12.0694C6.16636 12.2751 3.72622 11.6769 4.31878 11.6503ZM7.29593 12.0627C7.3945 12.2837 7.56167 12.6996 7.43564 12.8844C7.76775 13.2131 8.90232 13.798 7.99115 12.9941C8.57192 12.8783 7.91442 12.6946 7.56868 12.4187C7.16759 11.8166 7.19737 11.8418 7.29593 12.0627ZM3.44059 12.0927C3.70883 12.0822 3.98418 12.2199 3.46387 12.5384C2.9112 12.2617 3.17235 12.1031 3.44059 12.0927ZM11.0016 12.8678C10.9844 12.8433 10.9753 12.865 10.9949 12.9842C11.1955 13.4338 11.0532 12.9412 11.0016 12.8678ZM6.97327 13.3168C7.12996 13.5433 7.55409 13.4431 7.75165 13.6628C9.53654 14.4019 7.59151 13.184 6.97327 13.3168ZM6.69385 13.4565C6.60604 13.4765 6.62181 13.5932 6.81694 13.8623C6.93956 14.14 7.23528 14.1635 7.48223 14.2282C9.39741 15.1111 7.07435 13.37 6.69385 13.4565ZM3.39735 13.6062C3.68836 13.6537 4.03839 13.8106 3.65348 13.9621L3.49713 13.9023C2.87464 13.6187 3.10632 13.5587 3.39735 13.6062ZM6.10506 13.8391C6.01786 13.8436 6.09266 13.9745 6.49758 14.3347L6.76038 14.6041C8.08882 14.9682 6.36668 13.8254 6.10506 13.8391ZM5.92545 14.195C5.85686 14.1928 6.47309 14.8518 6.18824 14.8403C5.20213 14.1199 5.60471 14.6294 6.16164 15.183C6.76625 16.0805 7.2658 14.6483 6.28139 14.4678C6.0472 14.2711 5.9483 14.1957 5.92545 14.195ZM10.1101 15.1331C10.0976 15.1742 10.0954 15.3131 10.1201 15.6154C10.2849 15.7648 10.1477 15.0097 10.1101 15.1331ZM10.9816 15.2096C10.7692 15.2108 10.6096 16.7169 11.1346 17.0324C11.3509 17.6541 11.5819 17.3982 11.6602 16.6931C11.1527 16.7034 11.8691 15.5886 11.1879 15.8083C11.1283 15.3744 11.0524 15.2091 10.9816 15.2096ZM12.4486 15.2428C12.4105 15.1583 12.3188 15.3431 12.2856 15.9613V16.1376C12.4695 15.6804 12.4867 15.3273 12.4486 15.2428ZM2.50254 15.2927C2.63714 15.2603 3.40435 16.8141 3.30088 17.242C2.83082 17.0785 2.85359 16.343 2.6356 15.9547C2.48445 15.491 2.45766 15.3035 2.50254 15.2927ZM8.10759 15.3692C7.98326 15.715 8.37152 16.8487 8.60656 17.2354C9.20606 18.1567 8.9371 16.7315 9.59451 17.6512C9.23345 16.8439 9.7643 17.2833 9.68766 16.9393C9.52075 16.5919 7.90408 14.7529 8.63984 16.141C9.30576 17.7964 8.2217 15.933 8.10759 15.3692ZM2.18652 15.6387C2.36649 15.7547 2.84889 16.5395 2.9383 16.9759C3.6962 17.8888 3.39725 18.3917 4.18239 19.5106C3.17243 18.8737 2.98163 17.3532 2.33955 16.3705C2.07704 15.7401 2.07853 15.5691 2.18652 15.6387ZM51.7271 15.8449C51.8138 15.8515 51.8822 15.8732 51.9367 15.9081C52.0474 15.9779 52.0982 16.1209 52.0897 16.3406L52.0631 18.5027C52.0631 18.7752 51.7914 19.0088 51.2481 19.2013C50.7832 19.3682 50.3303 19.4508 49.8909 19.4508C48.7941 19.4508 48.2444 18.9472 48.2444 17.9373C48.2444 16.9358 49.3025 16.2463 51.4178 15.8682C51.5361 15.8461 51.6405 15.8383 51.7271 15.8449ZM7.76163 18.4994C8.16792 18.6269 7.92237 19.9557 8.53337 20.136C9.89758 21.9158 7.58846 20.1883 6.81694 20.0163C6.91572 20.0112 6.13207 19.7935 6.471 19.7169C6.22404 19.4631 5.67134 18.5415 6.93336 19.1581C7.93651 19.6605 8.02068 19.3215 7.5421 18.5227C7.63109 18.485 7.70359 18.4812 7.76163 18.4994ZM3.15785 18.7589C3.19163 18.589 3.88628 19.7064 4.01274 20.1726C4.39424 21.3869 5.58829 22.0864 5.70922 22.8903C7.03255 23.6533 6.35343 24.8979 7.46558 25.2487C7.95949 24.9984 8.00811 26.7475 9.05894 26.3831C8.47477 26.6573 9.30489 26.9815 9.59783 27.4908C10.2604 27.4005 11.7124 28.9503 10.2664 28.4155C9.65673 28.2861 9.24036 27.6518 8.80947 27.238C7.53041 26.4256 6.70032 25.0664 5.99863 23.7652C5.09427 22.3975 4.00562 21.0301 3.38738 19.4308C3.206 19.0157 3.1466 18.8155 3.15785 18.7589ZM13.3201 19.7867C13.2527 19.8213 13.2492 20.0234 13.4465 20.4653L13.5629 20.6549C13.7237 20.1323 13.4325 19.7292 13.3201 19.7867ZM8.71965 21.3502C9.09604 21.4321 9.66233 21.6343 9.89055 21.6795C9.95357 21.9503 8.60043 21.9082 9.78411 22.4379C9.09434 22.4192 8.88618 22.3672 9.87059 22.9701C9.48398 23.2801 10.65 23.5264 10.2498 23.9914C11.4369 24.9179 10.0355 24.2264 9.52797 23.8483C9.22822 23.6405 8.00665 23.2276 8.1974 22.9568C9.63825 23.713 8.56323 22.9237 7.92796 22.4213C9.0895 22.7057 6.99723 21.561 8.10427 21.8624C8.43297 21.9425 7.60653 21.1842 8.68972 21.736C8.15664 21.3052 8.34325 21.2682 8.71965 21.3502ZM15.9447 24.2541C15.7963 24.2018 15.9432 24.7762 16.274 25.1224C16.9791 25.962 16.4427 24.6457 16.1975 24.5469C16.0783 24.3591 15.9941 24.2716 15.9447 24.2541ZM9.72422 25.0791C10.1168 25.0833 10.7586 25.2604 11.1546 25.4716C12.8918 25.8582 10.785 26.324 10.0901 25.791L9.79741 25.7277C9.19024 25.2458 9.33165 25.0748 9.72422 25.0791ZM11.7999 25.262C11.9444 25.2312 12.6011 25.5013 12.881 25.761C13.7139 25.8734 13.7175 26.2539 12.7979 26.0171C12.6344 25.9167 12.3707 25.9223 12.2856 25.7111C11.8117 25.4084 11.7132 25.2805 11.7999 25.262ZM12.9076 25.2754C13.1703 25.2709 13.6005 25.3455 13.7359 25.5448C15.56 25.8377 13.6205 25.9652 13.0806 25.4849C12.5501 25.3631 12.6449 25.2798 12.9076 25.2754ZM12.9076 26.3032C13.1048 26.2596 14.3926 26.7913 13.4665 26.6725L13.1971 26.586C12.8977 26.3982 12.8419 26.3178 12.9076 26.3032ZM19.0449 26.6126C19.1024 26.6328 19.1608 26.6854 19.2013 26.7889C18.7222 26.7812 18.8725 26.552 19.0449 26.6126ZM12.9143 27.1115C13.2885 27.1477 14.728 27.9341 13.4532 27.5739L13.2569 27.4974L13.034 27.3943C12.7816 27.1699 12.7895 27.0995 12.9143 27.1115ZM16.0112 29.1839C16.1841 29.1564 17.6042 29.2852 16.3971 29.2737C16.0339 29.2184 15.9535 29.1931 16.0112 29.1839ZM12.2357 29.3935C12.3379 29.4163 12.5 29.4663 12.738 29.5532C14.2623 30.495 16.0196 30.9931 17.6478 31.7187C19.0784 31.906 20.587 32.2846 21.9954 31.9815C23.1706 32.569 24.3895 31.8293 25.568 32.3607C22.9639 32.8682 20.2849 32.3126 17.691 31.9515C16.056 31.7454 14.5958 31.0669 13.1039 30.4214C12.8876 30.3192 12.683 30.1913 12.4752 30.0721C11.4499 29.5032 11.5769 29.3871 12.575 29.9457C12.9275 30.2267 15.4287 31.2505 14.2382 30.5744C13.7881 30.4626 11.52 29.2335 12.2357 29.3935ZM21.716 29.8459C21.8327 29.9208 21.8367 30.1655 21.8325 30.4746C21.049 31.3398 21.5162 30.1209 21.0308 30.591C20.5829 30.9487 20.6892 30.378 20.931 30.2417C21.3696 29.8662 21.5994 29.7709 21.716 29.8459ZM28.2458 30.122C28.9452 30.1822 29.7452 30.3438 30.2084 30.3548C29.9274 30.9458 28.1905 30.4027 27.4275 30.5577L27.0982 30.5378L26.8953 30.5045C26.9489 30.1026 27.5465 30.0617 28.2458 30.122ZM34.26 30.3116C36.0687 30.3099 34.3793 30.5744 33.5482 30.571C32.6046 30.3496 33.9756 30.3559 34.26 30.3116ZM23.3659 30.5478C23.5107 30.5314 23.5602 30.6455 23.1497 30.9103L23 30.9569C22.9796 30.7082 23.2212 30.5641 23.3659 30.5478ZM22.6774 30.6542C22.704 30.6953 22.6445 30.8132 22.4146 31.0567C21.7452 31.1001 22.5975 30.5308 22.6774 30.6542ZM16.1509 30.8405C16.3142 30.7994 18.0737 31.3069 18.2998 31.2596C20.0932 31.9255 17.2293 31.4762 16.6366 31.1032C16.2206 30.9274 16.0965 30.8542 16.1509 30.8405ZM24.8163 30.927C24.8201 30.9716 24.7268 31.0764 24.4637 31.2663L24.2441 31.4093C23.9324 31.1934 24.8046 30.7929 24.8163 30.927Z" fill="#339AF0"/>
</g>
<defs>
<filter id="filter0_d_157_84" x="0" y="0.947266" width="111.236" height="61.9287" filterUnits="userSpaceOnUse" color-interpolation-filters="sRGB">
<feFlood flood-opacity="0" result="BackgroundImageFix"/>
<feColorMatrix in="SourceAlpha" type="matrix" values="0 0 0 0 0 0 0 0 0 0 0 0 0 0 0 0 0 0 127 0" result="hardAlpha"/>
<feOffset dx="20" dy="20"/>
<feGaussianBlur stdDeviation="5"/>
<feComposite in2="hardAlpha" operator="out"/>
<feColorMatrix type="matrix" values="0 0 0 0 0 0 0 0 0 0 0 0 0 0 0 0 0 0 0.25 0"/>
<feBlend mode="normal" in2="BackgroundImageFix" result="effect1_dropShadow_157_84"/>
<feBlend mode="normal" in="SourceGraphic" in2="effect1_dropShadow_157_84" result="shape"/>
</filter>
</defs>
</svg>
