<svg width="111" height="106" viewBox="0 0 111 106" fill="none" xmlns="http://www.w3.org/2000/svg">
<g filter="url(#filter0_d_157_108)">
<path d="M40.4879 54.3291C61.3429 54.3291 78.2492 47.8739 78.2492 39.9111C78.2492 31.9483 61.3429 25.4932 40.4879 25.4932C19.6329 25.4932 2.72656 31.9483 2.72656 39.9111C2.72656 47.8739 19.6329 54.3291 40.4879 54.3291Z" stroke="#20CDD3" stroke-width="5"/>
<path d="M40.4885 46.9487C44.3751 46.9487 47.5258 43.798 47.5258 39.9114C47.5258 36.0247 44.3751 32.874 40.4885 32.874C36.6019 32.874 33.4512 36.0247 33.4512 39.9114C33.4512 43.798 36.6019 46.9487 40.4885 46.9487Z" fill="#20CDD3"/>
<path d="M28.0018 47.1202C38.4293 65.1812 52.4728 76.5949 59.3688 72.6135C66.2648 68.6321 63.4019 50.7632 52.9744 32.7023C42.5469 14.6413 28.5034 3.22757 21.6074 7.20898C14.7114 11.1904 17.5743 29.0593 28.0018 47.1202Z" stroke="#20CDD3" stroke-width="5"/>
<path d="M28.0022 32.7023C17.5747 50.7632 14.7118 68.6321 21.6078 72.6135C28.5038 76.5949 42.5473 65.1812 52.9748 47.1202C63.4023 29.0593 66.2652 11.1904 59.3691 7.20899C52.4731 3.22758 38.4297 14.6413 28.0022 32.7023Z" stroke="#20CDD3" stroke-width="5"/>
</g>
<defs>
<filter id="filter0_d_157_108" x="0.226562" y="3.91699" width="110.523" height="101.988" filterUnits="userSpaceOnUse" color-interpolation-filters="sRGB">
<feFlood flood-opacity="0" result="BackgroundImageFix"/>
<feColorMatrix in="SourceAlpha" type="matrix" values="0 0 0 0 0 0 0 0 0 0 0 0 0 0 0 0 0 0 127 0" result="hardAlpha"/>
<feOffset dx="20" dy="20"/>
<feGaussianBlur stdDeviation="5"/>
<feComposite in2="hardAlpha" operator="out"/>
<feColorMatrix type="matrix" values="0 0 0 0 0 0 0 0 0 0 0 0 0 0 0 0 0 0 0.25 0"/>
<feBlend mode="normal" in2="BackgroundImageFix" result="effect1_dropShadow_157_108"/>
<feBlend mode="normal" in="SourceGraphic" in2="effect1_dropShadow_157_108" result="shape"/>
</filter>
</defs>
</svg>
