<svg width="126" height="109" viewBox="0 0 126 109" fill="none" xmlns="http://www.w3.org/2000/svg">
<g filter="url(#filter0_d_157_504)">
<path d="M37.8915 43.488C38.2404 37.2641 41.2882 31.7807 45.8862 27.8936C50.3954 24.0757 56.4647 21.7422 63.0869 21.7422C69.7026 21.7422 75.7719 24.0757 80.2844 27.8936C84.8791 31.7807 87.9269 37.2641 88.2791 43.4815C88.628 49.8765 86.0575 55.8174 81.5483 60.2212C76.9502 64.7007 70.4102 67.5114 63.0869 67.5114C55.7636 67.5114 49.2105 64.7007 44.6158 60.2212C40.1033 55.8174 37.5393 49.8765 37.8915 43.488Z" fill="white"/>
<path d="M50.1415 44.0505C50.3205 40.857 51.8843 38.0434 54.2436 36.0489C56.5573 34.0899 59.6715 32.8926 63.0694 32.8926C66.4639 32.8926 69.5781 34.0899 71.8935 36.0489C74.2511 38.0434 75.8149 40.857 75.9956 44.0471C76.1747 47.3285 74.8557 50.3768 72.542 52.6364C70.1828 54.9348 66.827 56.3771 63.0694 56.3771C59.3118 56.3771 55.9493 54.9348 53.5917 52.6364C51.2764 50.3768 49.9608 47.3284 50.1415 44.0505Z" fill="#265787"/>
<path d="M29.5536 50.5188C29.5756 51.7685 29.9741 54.197 30.572 56.0936C31.8285 60.1078 33.9598 63.8215 36.9253 67.0944C39.9686 70.4585 43.7161 73.1606 48.0446 75.0791C52.5943 77.0938 57.5239 78.1206 62.6444 78.1121C67.7565 78.1054 72.6862 77.0583 77.2359 75.0284C81.5643 73.0913 85.3084 70.3774 88.3466 67.0117C91.3105 63.7252 93.4384 60.0048 94.6983 55.9905C95.3316 53.9623 95.7319 51.9036 95.8923 49.8382C96.0494 47.8032 95.9835 45.7648 95.6947 43.7281C95.1306 39.7594 93.7576 36.0356 91.6432 32.6411C89.7095 29.5219 87.2168 26.7912 84.2529 24.4927L84.2597 24.4877L54.3489 1.5216C54.3219 1.50134 54.3 1.47942 54.2713 1.46084C52.3088 -0.0455721 49.0089 -0.0404974 46.8506 1.46929C44.6686 2.99597 44.4186 5.52069 46.3608 7.11323L46.3523 7.12168L58.8277 17.2663L20.8038 17.3068H20.7532C17.6103 17.3102 14.589 19.3722 13.9911 21.9781C13.3764 24.6329 15.5111 26.835 18.7789 26.8469L18.7739 26.8587L38.0467 26.8216L3.65553 53.2192C3.61162 53.2513 3.56432 53.2851 3.52379 53.3171C0.279564 55.8014 -0.76917 59.9322 1.27431 62.5464C3.34818 65.2046 7.75769 65.2097 11.0357 62.5616L29.8053 47.2003C29.8053 47.2003 29.5317 49.2741 29.5536 50.5188ZM77.7847 57.4631C73.9173 61.4031 68.503 63.6374 62.6444 63.6493C56.7775 63.6594 51.3631 61.4454 47.4957 57.5121C45.6059 55.5954 44.2177 53.3898 43.3614 51.0407C42.5221 48.7321 42.1962 46.2816 42.4123 43.8092C42.6167 41.3925 43.3361 39.0873 44.4845 37.0016C45.6127 34.9514 47.1664 33.0988 49.0849 31.5316C52.8442 28.4681 57.6303 26.8097 62.636 26.803C67.6467 26.7962 72.4295 28.4394 76.1922 31.4928C78.1073 33.0532 79.6593 34.8991 80.7875 36.9459C81.9409 39.0299 82.6553 41.3266 82.8681 43.7501C83.0809 46.2191 82.7549 48.6662 81.9156 50.9765C81.0577 53.3324 79.6745 55.5379 77.7847 57.4631Z" fill="#EA7600"/>
</g>
<defs>
<filter id="filter0_d_157_504" x="0.226562" y="0.333984" width="125.748" height="107.778" filterUnits="userSpaceOnUse" color-interpolation-filters="sRGB">
<feFlood flood-opacity="0" result="BackgroundImageFix"/>
<feColorMatrix in="SourceAlpha" type="matrix" values="0 0 0 0 0 0 0 0 0 0 0 0 0 0 0 0 0 0 127 0" result="hardAlpha"/>
<feOffset dx="20" dy="20"/>
<feGaussianBlur stdDeviation="5"/>
<feComposite in2="hardAlpha" operator="out"/>
<feColorMatrix type="matrix" values="0 0 0 0 0 0 0 0 0 0 0 0 0 0 0 0 0 0 0.25 0"/>
<feBlend mode="normal" in2="BackgroundImageFix" result="effect1_dropShadow_157_504"/>
<feBlend mode="normal" in="SourceGraphic" in2="effect1_dropShadow_157_504" result="shape"/>
</filter>
</defs>
</svg>
