<svg width="136" height="69" viewBox="0 0 136 69" fill="none" xmlns="http://www.w3.org/2000/svg">
<g filter="url(#filter0_d_157_517)">
<path d="M23.5904 18.6699H22.5359C22.1141 22.9722 21.5236 28.2024 14.1001 28.2024H10.6836C8.70114 28.2024 8.61678 27.9072 8.61678 26.5153V4.1181C8.61678 2.68401 8.61678 2.0935 12.5816 2.0935H13.9735V0.828125C12.4551 0.954663 8.65896 0.954663 6.92961 0.954663C5.28462 0.954663 1.99464 0.954663 0.560547 0.828125V2.0935H1.53067C4.77847 2.0935 4.86283 2.55747 4.86283 4.07592V26.22C4.86283 27.7385 4.77847 28.2024 1.53067 28.2024H0.560547V29.51H22.4516L23.5904 18.6699Z" fill="white"/>
<path d="M22.8758 0.786196C22.7071 0.280045 22.6227 0.111328 22.0744 0.111328C21.5261 0.111328 21.3995 0.280045 21.2308 0.786196L14.44 17.9953C14.1447 18.7124 13.6385 20.0199 11.0234 20.0199V21.0744H17.5612V20.0199C16.2537 20.0199 15.4523 19.4294 15.4523 18.5858C15.4523 18.3749 15.4944 18.2906 15.5788 17.9953L17.0129 14.3679H25.3644L27.0515 18.6702C27.1359 18.8389 27.2203 19.0498 27.2203 19.1763C27.2203 20.0199 25.6174 20.0199 24.816 20.0199V21.0744H33.1253V20.0199H32.5348C30.5524 20.0199 30.3415 19.7247 30.0463 18.8811L22.8758 0.786196ZM21.1886 3.78092L24.9426 13.3134H17.4347L21.1886 3.78092Z" fill="white"/>
<path d="M56.6593 1.08105H30.9721L30.2129 10.5292H31.2252C31.8157 3.73835 32.4484 2.34643 38.8175 2.34643C39.5767 2.34643 40.6733 2.34643 41.0951 2.43079C41.9809 2.59951 41.9809 3.06348 41.9809 4.0336V26.1777C41.9809 27.6118 41.9809 28.2023 37.5521 28.2023H35.8649V29.5098C37.5943 29.3833 41.8544 29.3833 43.7946 29.3833C45.7348 29.3833 50.0793 29.3833 51.8086 29.5098V28.2023H50.1215C45.6927 28.2023 45.6927 27.6118 45.6927 26.1777V4.0336C45.6927 3.19002 45.6927 2.59951 46.4519 2.43079C46.9159 2.34643 48.0547 2.34643 48.8561 2.34643C55.183 2.34643 55.8157 3.73835 56.4062 10.5292H57.4607L56.6593 1.08105Z" fill="white"/>
<path d="M79.2656 28.1606H78.2111C77.1566 34.614 76.1865 37.6931 68.9739 37.6931H63.4062C61.4238 37.6931 61.3394 37.3978 61.3394 36.0059V24.7862H65.0934C69.1848 24.7862 69.6487 26.136 69.6487 29.7212H70.7032V18.5859H69.6487C69.6487 22.1711 69.1848 23.4787 65.0934 23.4787H61.3394V13.3979C61.3394 12.0059 61.4238 11.7107 63.4062 11.7107H68.8052C75.2586 11.7107 76.3552 14.0305 77.0301 19.8935H78.0846L76.9036 10.4453H53.2832V11.7107H54.2533C57.5011 11.7107 57.5855 12.1747 57.5855 13.6931V35.7107C57.5855 37.2291 57.5011 37.6931 54.2533 37.6931H53.2832V39.0006H77.4941L79.2656 28.1606Z" fill="white"/>
<path d="M91.9629 13.271L97.7415 4.83515C98.6272 3.48542 100.061 2.13568 103.815 2.0935V0.828125H93.7766V2.0935C95.4638 2.13568 96.3917 3.06362 96.3917 4.03375C96.3917 4.45554 96.3074 4.5399 96.0121 5.00387L91.2037 12.09L85.8047 3.99157C85.7204 3.86503 85.5095 3.52759 85.5095 3.35888C85.5095 2.85273 86.4374 2.13568 88.209 2.0935V0.828125C86.7749 0.954663 83.6958 0.954663 82.093 0.954663C80.7854 0.954663 78.1703 0.912483 76.6097 0.828125V2.0935H77.4111C79.7309 2.0935 80.5323 2.38876 81.3337 3.56977L89.0525 15.2534L82.1773 25.4186C81.5868 26.2622 80.3214 28.2024 76.1035 28.2024V29.51H86.1422V28.2024C84.2019 28.1603 83.4849 27.0214 83.4849 26.2622C83.4849 25.8826 83.6114 25.7139 83.9067 25.2499L89.8539 16.4344L96.5183 26.4731C96.6026 26.6418 96.7292 26.8105 96.7292 26.9371C96.7292 27.4432 95.8012 28.1603 93.9875 28.2024V29.51C95.4638 29.3835 98.5429 29.3835 100.103 29.3835C101.875 29.3835 103.815 29.4256 105.587 29.51V28.2024H104.785C102.592 28.2024 101.706 27.9915 100.821 26.684L91.9629 13.271Z" fill="white"/>
</g>
<defs>
<filter id="filter0_d_157_517" x="0.560547" y="0.111328" width="135.025" height="68.8896" filterUnits="userSpaceOnUse" color-interpolation-filters="sRGB">
<feFlood flood-opacity="0" result="BackgroundImageFix"/>
<feColorMatrix in="SourceAlpha" type="matrix" values="0 0 0 0 0 0 0 0 0 0 0 0 0 0 0 0 0 0 127 0" result="hardAlpha"/>
<feOffset dx="20" dy="20"/>
<feGaussianBlur stdDeviation="5"/>
<feComposite in2="hardAlpha" operator="out"/>
<feColorMatrix type="matrix" values="0 0 0 0 0 0 0 0 0 0 0 0 0 0 0 0 0 0 0.25 0"/>
<feBlend mode="normal" in2="BackgroundImageFix" result="effect1_dropShadow_157_517"/>
<feBlend mode="normal" in="SourceGraphic" in2="effect1_dropShadow_157_517" result="shape"/>
</filter>
</defs>
</svg>
